<svg width="464" height="250" viewBox="0 0 464 250" fill="none" xmlns="http://www.w3.org/2000/svg">
<path opacity="0.5" d="M454.256 248.407C454.223 248.473 454.184 248.539 454.151 248.605C453.894 249.065 453.63 249.533 453.353 250L36.6054 249.875C36.6054 249.875 36.2031 249.421 35.4712 248.559C35.4316 248.513 35.3854 248.46 35.3459 248.407C33.4862 246.176 29.7406 241.483 25.3553 234.862C25.3553 234.862 25.3553 234.855 25.3487 234.855C13.7162 217.289 -2.41377 186.177 0.30313 151.649C1.06808 141.901 3.33656 131.883 7.62953 121.82C20.6469 91.2937 59.488 70.719 94.4714 70.3044C108.016 70.1398 120.981 73.0029 131.651 79.4794C133.543 80.6246 135.924 81.5131 138.687 82.1187C141.021 82.632 143.626 82.9414 146.455 83.0401C169.18 83.8365 206.135 71.0613 228.055 38.9027C239.694 21.8296 257.565 10.6472 278.1 4.82888C279.056 4.55903 280.019 4.29576 280.988 4.05223C285.657 2.85435 290.458 1.92632 295.337 1.26156C296.214 1.14309 297.098 1.0312 297.982 0.932469C319.651 -1.57519 342.863 1.01803 364.157 8.19217C366.959 9.13336 369.729 10.1601 372.459 11.2659C412.527 27.457 443.699 60.5304 440.955 106.702C440.85 108.525 440.685 110.374 440.467 112.243C440.059 115.798 439.445 119.431 438.628 123.13C438.146 125.308 437.592 127.52 436.959 129.751C420.453 188.27 486.47 190.909 454.256 248.407Z" fill="#D8E9FF"/>
<path d="M454.256 248.407L129.87 248.44L132.666 151.682V125.387H144.8V104.852H169.001V122.281H176.394V90.0499H178.003V87.7989H178.293V90.0499H184.129V87.7989H184.419V90.0499H192.682V87.7989H192.972V90.0499H198.175V87.7989H198.459V90.0499H200.595V120.135H208.766V115.271L218.4 115.317V107.432H220.339V105.872H220.596V107.432H228.035V107.439H229.525V105.879H229.782V107.439H231.576V123.117H243.044V128.889H249.42V125.539H255.336V112.237H258.283V106.03H258.725V112.237H265.794V100.607H266.487V112.237H271.162V112.073H271.156V110.598H271.162V109.203H271.156V106.879H271.162V105.399H271.156V103.075H271.162V101.594H271.156V99.271H271.162V97.665H271.156V95.3416H271.162V93.3013H271.156V90.9779H271.162V89.4378H272.554V87.7002H272.778V89.4378H283.098V87.7002H283.322V89.4378H285.208V101.601L286.534 101.607V101.601H286.521V99.2775H286.534V97.6716H286.521V95.3482H286.534V93.7488H286.521V91.4255H286.534V91.4189H299.05V91.4255H301.2C301.312 91.4847 301.424 91.5505 301.536 91.6098V107.116H303.837V104.879H330.255V122.307H338.32V90.0762H340.074V87.8253H340.39V90.0762H346.761V87.8253H347.077V90.0762H356.098V87.8253H356.415V90.0762H362.093V87.8253H362.409V90.0762H364.743V120.162H373.659V115.298L384.171 115.344V107.459H386.288V105.899H386.571V107.459H394.689H396.311V105.899H396.588V107.459H398.547V123.143H411.063V128.915H418.026V125.565H424.482V112.257H427.7V106.03H428.188V112.237H435.904V100.607H436.662V112.237H440.454C440.045 115.791 439.432 119.424 438.614 123.123C438.133 125.302 437.579 127.513 436.946 129.745C420.453 188.27 486.47 190.909 454.256 248.407Z" fill="#DCEAFB"/>
<path d="M372.465 11.2597V248.408H364.163V8.18604C366.966 9.13381 369.735 10.154 372.465 11.2597Z" fill="#A8CCFF"/>
<path d="M138.687 82.1124V248.559H35.4778C35.4382 248.513 35.392 248.46 35.3525 248.408C33.4928 246.176 29.7472 241.484 25.3619 234.862C25.3619 234.862 25.3619 234.856 25.3553 234.856C13.7162 217.289 -2.41377 186.177 0.303127 151.649C1.06808 141.901 3.33656 131.884 7.62953 121.82C20.6469 91.294 59.488 70.7193 94.4714 70.3047C107.884 70.4495 120.671 73.3455 131.295 79.4797C133.28 80.6249 135.779 81.5069 138.687 82.1124Z" fill="#C9E0FF"/>
<path d="M297.982 0.925781V30.1291C297.982 32.4064 297.428 34.2625 296.749 34.2625H296.571C295.892 34.2625 295.338 32.4064 295.338 30.1291V1.25487C296.215 1.1364 297.099 1.02451 297.982 0.925781Z" fill="#97C0F8"/>
<path d="M295.971 27.2334C286.33 27.2334 278.509 35.4869 278.509 45.6624H313.433C313.433 35.4869 305.612 27.2334 295.971 27.2334Z" fill="#3B7DED"/>
<path d="M297.362 27.4634C296.861 27.3515 296.347 27.2988 295.826 27.2988C289.541 27.2988 284.45 35.5261 284.45 45.6686H287.517C287.517 36.3554 291.803 28.6678 297.362 27.4634Z" fill="#A8CCFF"/>
<path d="M410.964 221.225C410.964 221.225 406.315 215.815 410.681 212.379C410.681 212.379 413.866 210.457 416.464 210.609C416.464 210.609 412.784 216.769 413.978 217.381C415.172 217.994 417.585 210.227 417.585 210.227C417.585 210.227 424.832 209.523 427.167 210.642C427.167 210.642 420.968 215.703 422.274 216.006C423.58 216.309 430.273 211.339 430.273 211.339C430.273 211.339 437.019 212.485 436.656 216.592C436.294 220.699 433.972 221.969 432.95 221.857C431.928 221.745 425.954 219.468 425.822 220.304C425.69 221.14 429.29 223.871 431.809 223.996C431.809 223.996 427.055 229.229 423.896 227.721C420.737 226.208 420.467 223.818 418.495 222.917C416.524 222.022 414.842 222.022 415.66 222.936C416.471 223.851 420.038 224.74 421.166 226.734C422.294 228.722 423.303 230.065 420.032 229.571C416.761 229.077 411.446 226.695 411.215 223.957C410.964 221.225 410.964 221.225 410.964 221.225Z" fill="#6CA3EA"/>
<path d="M433.332 216.704C433.332 216.704 415.013 216 410.964 221.232C410.964 221.232 410.067 223.905 407.317 226.34L406.889 227.505C406.889 227.505 410.061 224.161 411.201 223.964C411.201 223.964 409.421 217.481 433.332 216.704Z" fill="#6CA3EA"/>
<path d="M407.318 226.34C407.318 226.34 403.387 229.242 403.11 234.429L403.823 234.494C403.823 234.494 405.075 229.13 407.351 227.037C409.619 224.931 407.318 226.34 407.318 226.34Z" fill="#6CA3EA"/>
<path d="M394.716 214.42C394.716 214.42 402.108 210.286 398.659 204.679C398.659 204.679 395.903 201.236 392.942 200.348C392.942 200.348 394.518 208.707 392.942 208.904C391.366 209.102 391.861 199.459 391.861 199.459C391.861 199.459 384.073 195.721 381.019 196.017C381.019 196.017 385.846 204.185 384.27 203.988C382.694 203.79 377.274 195.53 377.274 195.53C377.274 195.53 369.288 194.056 368.009 198.775C366.729 203.494 368.8 205.857 369.98 206.153C371.161 206.449 378.751 206.35 378.553 207.331C378.355 208.312 373.231 209.891 370.369 209.003C370.369 209.003 373.522 216.776 377.663 216.381C381.804 215.986 383.083 213.432 385.649 213.235C388.214 213.038 390.087 213.729 388.801 214.413C387.521 215.104 383.182 214.637 381.112 216.394C379.041 218.152 377.366 219.231 381.211 220.021C385.055 220.811 391.953 220.317 393.331 217.362C394.716 214.42 394.716 214.42 394.716 214.42Z" fill="#6CA3EA"/>
<path d="M371.656 200.256C371.656 200.256 392.356 206.943 394.717 214.42C394.717 214.42 394.618 217.763 396.689 221.601V223.075C396.689 223.075 394.519 218.06 393.339 217.368C393.339 217.375 397.975 210.879 371.656 200.256Z" fill="#6CA3EA"/>
<path d="M396.688 221.6C396.688 221.6 399.88 226.438 398.06 232.329L397.236 232.111C397.236 232.111 398.034 225.628 396.365 222.364C394.697 219.099 396.688 221.6 396.688 221.6Z" fill="#6CA3EA"/>
<path d="M406.48 208.727C406.48 208.727 396.733 203.284 401.283 195.892C401.283 195.892 404.924 191.351 408.821 190.186C408.821 190.186 406.744 201.21 408.821 201.467C410.898 201.724 410.252 189.021 410.252 189.021C410.252 189.021 420.513 184.091 424.542 184.48C424.542 184.48 418.178 195.241 420.256 194.984C422.333 194.727 429.481 183.835 429.481 183.835C429.481 183.835 440.006 181.886 441.694 188.113C443.382 194.339 440.652 197.446 439.096 197.841C437.54 198.229 427.536 198.097 427.793 199.394C428.05 200.69 434.809 202.764 438.575 201.599C438.575 201.599 434.42 211.84 428.96 211.327C423.507 210.807 421.812 207.437 418.436 207.18C415.059 206.923 412.586 207.832 414.281 208.733C415.969 209.642 421.687 209.03 424.417 211.346C427.147 213.663 429.356 215.085 424.285 216.125C419.22 217.165 410.127 216.513 408.306 212.623C406.486 208.733 406.48 208.727 406.48 208.727Z" fill="#97C0F8"/>
<path d="M436.88 190.055C436.88 190.055 409.599 198.875 406.48 208.728C406.48 208.728 406.612 213.137 403.882 218.192V220.14C403.882 220.14 406.737 213.526 408.3 212.618C408.3 212.618 402.194 204.055 436.88 190.055Z" fill="#97C0F8"/>
<path d="M403.882 218.193C403.882 218.193 399.675 224.57 402.075 232.33L403.156 232.041C403.156 232.041 402.108 223.491 404.304 219.193C406.506 214.888 403.882 218.193 403.882 218.193Z" fill="#97C0F8"/>
<path d="M406.151 249.164C416.696 249.164 425.236 240.634 425.236 230.117H387.061C387.067 240.634 395.607 249.164 406.151 249.164Z" fill="#97C0F8"/>
<path d="M410.846 249.02C410.068 249.118 409.276 249.164 408.472 249.164C397.934 249.164 389.388 240.634 389.388 230.117H394.129C394.129 239.831 401.423 247.848 410.846 249.02Z" fill="#A8CCFF"/>
<path d="M425.67 230.111H386.434V230.697H425.67V230.111Z" fill="#97C0F8"/>
<path d="M317.29 248.223L298.535 170.531L299.847 167.471L318.431 248.216C318.477 248.42 318.318 248.617 318.107 248.617H317.797C317.553 248.617 317.349 248.459 317.29 248.223Z" fill="#6CA3EA"/>
<path d="M232.649 248.619C232.266 248.619 231.97 248.276 232.036 247.895L237.562 214.479H239.929L233.341 248.059C233.269 248.388 232.979 248.619 232.649 248.619Z" fill="#6CA3EA"/>
<path d="M285.635 248.617C285.253 248.617 284.956 248.275 285.022 247.893L290.548 214.478H292.915L286.328 248.058C286.262 248.387 285.971 248.617 285.635 248.617Z" fill="#6CA3EA"/>
<path d="M298.488 214.551H232.511L246.181 129.021H312.158L298.488 214.551Z" fill="#F3FAFF"/>
<path d="M303.427 213.893H227.657V216.407H303.427V213.893Z" fill="#6CA3EA"/>
<path d="M272.308 146.917C272.255 147.595 272.156 148.26 272.011 148.905C270.633 155.019 265.186 159.699 259.02 159.712C252.202 159.725 247.098 154.012 247.619 146.957C248.14 139.901 254.088 134.175 260.906 134.162C262.337 134.162 263.689 134.405 264.929 134.872C265.489 135.076 266.024 135.327 266.538 135.616C267.639 136.241 268.622 137.044 269.453 137.999C269.914 138.532 270.33 139.105 270.686 139.717C270.897 140.072 271.088 140.441 271.26 140.822C271.741 141.882 272.071 143.027 272.229 144.245C272.308 144.85 272.348 145.476 272.341 146.114C272.341 146.377 272.328 146.647 272.308 146.917Z" fill="#B8D0FC"/>
<path d="M271.266 140.822L259.97 146.937C259.97 146.937 264.632 138.743 266.544 135.616C267.646 136.241 268.628 137.044 269.459 137.999C269.921 138.532 270.336 139.105 270.692 139.717C270.903 140.079 271.094 140.447 271.266 140.822Z" fill="white"/>
<path d="M272.44 139.275L262.12 144.863C262.12 144.863 266.38 137.38 268.128 134.523C269.137 135.096 270.033 135.833 270.792 136.702C271.214 137.189 271.59 137.709 271.919 138.275C272.104 138.591 272.282 138.933 272.44 139.275Z" fill="#214D9A"/>
<path d="M293.231 208.048L238.933 208.041L244.432 176.771L298.731 176.778L293.231 208.048ZM239.368 207.726L292.901 207.732L298.289 177.094L244.755 177.087L239.368 207.726Z" fill="#B8D0FC"/>
<path d="M289.993 203.756L241.834 203.75C241.834 203.75 250.374 199.175 252.721 199.419C255.062 199.656 258.432 201.512 260.602 201.584C262.771 201.657 265.112 195.167 267.526 195.47C269.939 195.773 270.843 201.518 272.089 200.952C273.336 200.393 277.088 200.149 279.244 200.952C281.4 201.755 284.546 198.399 286.445 198.504C288.344 198.616 289.993 203.756 289.993 203.756Z" fill="#214D9A"/>
<path d="M253.413 194.569H244.214L244.3 194.082H253.499L253.413 194.569Z" fill="#214D9A"/>
<path d="M253.229 195.609H244.036L244.122 195.122H253.314L253.229 195.609Z" fill="#214D9A"/>
<path d="M244.592 188.08L292.751 188.086C292.751 188.086 285.813 183.512 283.387 183.755C280.96 183.992 276.937 185.848 274.748 185.914C272.559 185.987 272.493 179.497 269.974 179.8C267.455 180.103 264.533 185.848 263.478 185.282C262.43 184.723 258.763 184.479 256.323 185.282C253.883 186.085 251.918 182.729 249.979 182.834C248.054 182.939 244.592 188.08 244.592 188.08Z" fill="#B8D0FC"/>
<path d="M256.013 179.786H246.813L246.899 179.299H256.098L256.013 179.786Z" fill="#B8D0FC"/>
<path d="M255.835 180.827H246.636L246.721 180.34H255.921L255.835 180.827Z" fill="#B8D0FC"/>
<path d="M247.712 172.415H245.602L247.441 162.536H249.552L247.712 172.415Z" fill="#B8D0FC"/>
<path d="M250.593 172.415H248.482L249.9 164.76H252.01L250.593 172.415Z" fill="#B8D0FC"/>
<path d="M253.469 172.414H251.358L252.842 164.431H254.952L253.469 172.414Z" fill="#B8D0FC"/>
<path d="M256.351 172.414H254.234L255.362 166.339H257.479L256.351 172.414Z" fill="#B8D0FC"/>
<path d="M259.226 172.414H257.116L258.323 165.898H260.433L259.226 172.414Z" fill="#B8D0FC"/>
<path d="M262.101 172.414H259.991L260.928 167.359H263.044L262.101 172.414Z" fill="#B8D0FC"/>
<path d="M275.967 172.414H273.856L275.69 162.535H277.806L275.967 172.414Z" fill="#214D9A"/>
<path d="M278.848 172.414H276.731L278.156 164.76H280.266L278.848 172.414Z" fill="#214D9A"/>
<path d="M281.724 172.414H279.614L281.098 164.43H283.208L281.724 172.414Z" fill="#214D9A"/>
<path d="M284.599 172.414H282.489L283.617 166.339H285.727L284.599 172.414Z" fill="#214D9A"/>
<path d="M287.481 172.414H285.364L286.578 165.898H288.688L287.481 172.414Z" fill="#214D9A"/>
<path d="M290.356 172.414H288.246L289.183 167.359H291.293L290.356 172.414Z" fill="#214D9A"/>
<path d="M286.146 140.164H279.268L279.446 139.223H286.317L286.146 140.164Z" fill="#B8D0FC"/>
<path d="M294.579 140.164H286.982L287.16 139.223H294.757L294.579 140.164Z" fill="#B8D0FC"/>
<path d="M299.988 140.164H295.147L295.326 139.223H300.166L299.988 140.164Z" fill="#B8D0FC"/>
<path d="M304.511 140.164H300.772L300.951 139.223H304.683L304.511 140.164Z" fill="#B8D0FC"/>
<path d="M285.385 144.172H278.507L278.685 143.231H285.563L285.385 144.172Z" fill="#B8D0FC"/>
<path d="M293.821 144.172H286.23L286.409 143.231H293.999L293.821 144.172Z" fill="#B8D0FC"/>
<path d="M299.233 144.172H294.393L294.571 143.231H299.411L299.233 144.172Z" fill="#B8D0FC"/>
<path d="M303.75 144.172H300.018L300.196 143.231H303.928L303.75 144.172Z" fill="#B8D0FC"/>
<path d="M290.225 137.972H279.681L279.852 137.031H290.403L290.225 137.972Z" fill="#B8D0FC"/>
<path d="M297.313 137.972H291.233L291.405 137.031H297.491L297.313 137.972Z" fill="#B8D0FC"/>
<path d="M304.925 137.972H298.172L298.35 137.031H305.103L304.925 137.972Z" fill="#B8D0FC"/>
<path d="M289.426 142.237H278.875L279.053 141.296H289.598L289.426 142.237Z" fill="#B8D0FC"/>
<path d="M296.508 142.237H290.428L290.606 141.296H296.686L296.508 142.237Z" fill="#B8D0FC"/>
<path d="M304.118 142.237H297.365L297.543 141.296H304.296L304.118 142.237Z" fill="#B8D0FC"/>
<path d="M284.634 148.188H277.756L277.934 147.247H284.812L284.634 148.188Z" fill="#B8D0FC"/>
<path d="M293.069 148.188H285.479L285.65 147.247H293.247L293.069 148.188Z" fill="#B8D0FC"/>
<path d="M298.476 148.188H293.636L293.814 147.247H298.654L298.476 148.188Z" fill="#B8D0FC"/>
<path d="M302.999 148.188H299.26L299.438 147.247H303.177L302.999 148.188Z" fill="#B8D0FC"/>
<path d="M288.669 146.246H278.118L278.296 145.305H288.847L288.669 146.246Z" fill="#B8D0FC"/>
<path d="M295.758 146.246H289.678L289.849 145.305H295.929L295.758 146.246Z" fill="#B8D0FC"/>
<path d="M303.368 146.246H296.615L296.793 145.305H303.546L303.368 146.246Z" fill="#B8D0FC"/>
<path d="M283.921 151.946H277.05L277.228 151.004H284.099L283.921 151.946Z" fill="#B8D0FC"/>
<path d="M292.361 151.946H284.765L284.943 151.004H292.533L292.361 151.946Z" fill="#B8D0FC"/>
<path d="M297.77 151.946H292.93L293.108 151.004H297.948L297.77 151.946Z" fill="#B8D0FC"/>
<path d="M302.287 151.946H298.555L298.733 151.004H302.465L302.287 151.946Z" fill="#B8D0FC"/>
<path d="M287.962 150.004H277.411L277.589 149.062H288.14L287.962 150.004Z" fill="#B8D0FC"/>
<path d="M295.044 150.004H288.964L289.142 149.062H295.222L295.044 150.004Z" fill="#B8D0FC"/>
<path d="M302.662 150.004H295.902L296.08 149.062H302.833L302.662 150.004Z" fill="#B8D0FC"/>
<path d="M268.279 164.003H264.909L264.995 163.542H268.365L268.279 164.003Z" fill="#B8D0FC"/>
<path d="M272.407 164.003H268.688L268.773 163.542H272.492L272.407 164.003Z" fill="#B8D0FC"/>
<path d="M267.91 165.965H264.54L264.626 165.504H267.996L267.91 165.965Z" fill="#B8D0FC"/>
<path d="M272.038 165.965H268.318L268.404 165.504H272.123L272.038 165.965Z" fill="#B8D0FC"/>
<path d="M270.278 162.93H265.114L265.2 162.469H270.363L270.278 162.93Z" fill="#B8D0FC"/>
<path d="M273.746 162.93H270.766L270.858 162.469H273.832L273.746 162.93Z" fill="#B8D0FC"/>
<path d="M269.881 165.016H264.718L264.804 164.556H269.967L269.881 165.016Z" fill="#B8D0FC"/>
<path d="M273.35 165.016H270.376L270.462 164.556H273.436L273.35 165.016Z" fill="#B8D0FC"/>
<path d="M295.237 164.003H291.867L291.959 163.542H295.323L295.237 164.003Z" fill="#B8D0FC"/>
<path d="M299.365 164.003H295.646L295.738 163.542H299.451L299.365 164.003Z" fill="#B8D0FC"/>
<path d="M294.867 165.965H291.504L291.59 165.504H294.953L294.867 165.965Z" fill="#B8D0FC"/>
<path d="M298.996 165.965H295.276L295.369 165.504H299.081L298.996 165.965Z" fill="#B8D0FC"/>
<path d="M297.235 162.93H292.071L292.157 162.47H297.32L297.235 162.93Z" fill="#B8D0FC"/>
<path d="M300.704 162.93H297.729L297.815 162.47H300.789L300.704 162.93Z" fill="#B8D0FC"/>
<path d="M296.846 165.016H291.683L291.768 164.556H296.932L296.846 165.016Z" fill="#B8D0FC"/>
<path d="M300.314 165.016H297.333L297.419 164.556H300.399L300.314 165.016Z" fill="#B8D0FC"/>
<path d="M313.143 247.353C313.024 248.959 310.749 248.979 308.171 248.683C305.593 248.387 306.278 249.038 302.665 249.084C299.051 249.137 297.811 247.946 297.633 247.426C297.475 246.972 299.216 246.583 301.075 246.129C301.313 246.07 301.544 246.017 301.781 245.958C303.878 245.425 305.269 243.859 307.063 242.49C308.764 241.193 310.954 236.5 310.954 236.5L315.886 236.276C315.886 236.276 313.809 240.482 313.031 242.292C312.569 243.358 312.767 244.668 312.965 245.675C313.077 246.228 313.189 246.787 313.143 247.353Z" fill="#FFAE73"/>
<path d="M308.177 248.677C305.598 248.381 306.284 249.032 302.67 249.078C299.057 249.131 297.817 247.94 297.639 247.42C297.481 246.966 299.222 246.577 301.081 246.123L301.101 246.156C301.101 246.156 303.429 247.4 306.396 247.104C308.816 246.86 311.296 245.853 312.964 245.669C313.07 246.215 313.175 246.775 313.136 247.341C313.024 248.96 310.755 248.98 308.177 248.677Z" fill="#1E3865"/>
<path d="M347.209 247.683C347.09 249.289 344.822 249.308 342.243 249.012C339.665 248.716 340.351 249.368 336.737 249.42C333.123 249.473 331.883 248.282 331.705 247.768C331.547 247.314 333.288 246.926 335.148 246.472C335.378 246.412 335.616 246.353 335.853 246.294C337.95 245.761 339.335 244.194 341.129 242.819C342.83 241.522 341.129 233.835 341.129 233.835L346.556 233.308C346.556 233.308 346.299 239.778 346.299 242.72C346.299 243.878 346.833 244.997 347.037 246.004C347.143 246.564 347.248 247.117 347.209 247.683Z" fill="#FFAE73"/>
<path d="M342.243 249.02C339.665 248.723 340.351 249.375 336.737 249.428C333.123 249.48 331.883 248.289 331.705 247.776C331.547 247.321 333.288 246.933 335.148 246.479L335.167 246.512C335.167 246.512 337.495 247.756 340.469 247.453C342.889 247.21 345.362 246.196 347.037 246.012C347.143 246.558 347.248 247.117 347.209 247.683C347.09 249.296 344.822 249.316 342.243 249.02Z" fill="#1E3865"/>
<path d="M331.377 114.889C330.441 111.059 331.799 109.268 333.019 108.32C333.599 106.912 334.259 105.892 334.938 105.51C336.171 104.812 337.648 104.733 338.684 104.793C338.42 104.516 337.892 104.418 337.892 104.418C338.532 104.325 339.963 104.957 339.963 104.957C348.879 101.528 350.277 114.632 350.092 117.673C349.907 120.714 349.934 124.301 354.57 126.697C363.419 131.271 351.628 148.515 351.628 148.515C351.853 146.054 340.484 133.075 334.549 129.191C333.105 127.072 332.59 123.32 332.551 123.024C332.801 125.999 333.309 127.664 333.764 128.599C331.06 126.124 330.665 120.155 331.377 114.889Z" fill="#424143"/>
<path d="M334.898 129.388C334.865 129.401 337.76 130.902 339.936 130.31C341.98 129.75 343.319 127.104 343.292 127.098C342.422 126.927 342.178 125.735 342.191 120.628L341.802 120.707L335.214 122.01C335.214 122.01 335.366 124.083 335.366 126.032C335.373 127.657 335.274 129.211 334.898 129.388Z" fill="#FFAE73"/>
<path d="M335.214 121.998C335.214 121.998 335.366 124.071 335.366 126.019C339.052 125.914 341.004 122.557 341.802 120.694L335.214 121.998Z" fill="#F9924F"/>
<path d="M308.395 239.106C308.072 240.12 308.797 241.16 309.859 241.206L312.431 241.324L315.154 241.41C315.833 241.43 316.486 241.134 316.915 240.607C319.091 237.941 325.784 229.069 329.847 216.175C329.959 215.813 330.084 215.445 330.209 215.076C332.893 207.27 338.452 197.477 341.38 188.611C341.848 187.196 342.264 185.866 342.64 184.609C342.758 184.208 342.877 183.813 342.989 183.418C345.146 175.928 345.772 171.018 346.352 165.766L325.197 165.937C325.204 165.943 320.753 200.491 308.395 239.106Z" fill="#214D9A"/>
<path d="M328.165 153.807C328.218 163.858 326.688 168.162 326.688 168.162C326.688 168.162 335.748 172.756 346.51 169.373C346.636 169.334 354.213 167.195 354.213 167.195C354.035 166.786 352.538 160.066 352.36 159.691C350.085 154.821 349.465 152.774 349.201 151.28C348.7 148.483 348.693 145.593 348.937 142.862C349.597 135.642 351.549 129.646 351.549 129.646C348.614 128.981 345.871 127.809 342.818 126.664C342.119 127.539 339.969 128.448 338.109 128.408C335.966 128.362 335.267 127.447 335.379 126.447C333.091 127.717 331.271 128.915 331.271 128.915C329.325 132.285 325.389 135.549 325.105 140.716C325.026 141.986 328.165 153.531 328.165 153.807Z" fill="white"/>
<path d="M346.359 154.926C347.282 156.229 349.056 164.173 353.468 165.167C351.193 159.506 349.472 157.025 349.201 155.288C348.7 152.043 348.693 148.679 348.937 145.507C347.46 142.927 346.359 141.15 346.359 141.15C346.24 140.735 344.011 133.851 343.299 140.005C342.58 146.165 345.324 153.464 346.359 154.926Z" fill="#4B9BA9"/>
<path d="M333.981 123.847C333.981 123.847 342.705 123.992 342.712 118.568C342.718 113.145 343.846 109.505 338.274 109.189C332.701 108.867 331.62 110.94 331.171 112.75C330.736 114.553 331.712 123.669 333.981 123.847Z" fill="#FFAE73"/>
<path d="M334.304 109.051C334.304 109.051 336.691 115.415 340.357 116.357C344.024 117.298 345.613 116.317 345.613 116.317C345.613 116.317 342.797 114.086 342.217 110.196C342.224 110.196 336.111 106.023 334.304 109.051Z" fill="#424143"/>
<path d="M334.898 109.564C334.898 109.564 333.11 110.986 332.675 112.368C332.24 113.75 332.042 116.593 331.211 116.494C331.211 116.494 329.411 112.17 331.435 109.722C333.585 107.129 334.898 109.564 334.898 109.564Z" fill="#424143"/>
<path d="M320.251 160.783L316.13 173.321L318.484 174.263L325.296 163.186L320.251 160.783Z" fill="#FFAE73"/>
<path d="M331.363 128.178C331.363 128.178 326.503 130.1 325.099 133.101C323.694 136.102 321.564 156.229 320.713 158.296C319.863 160.363 319.229 162.001 319.229 162.001C319.229 162.001 321.683 164.062 324.142 164.213C326.609 164.364 331.363 128.178 331.363 128.178Z" fill="white"/>
<path d="M335.372 126.447C335.372 126.447 330.321 138.893 330.176 141.414C330.024 143.935 329.583 182.616 329.583 182.616C329.583 182.616 329.879 184.393 326.463 183.656C323.047 182.912 322.157 182.175 322.157 182.175C322.157 182.175 325.421 158.316 324.531 150.016C323.641 141.716 331.363 128.184 331.363 128.184L335.372 126.447Z" fill="white"/>
<path d="M312.438 241.332L315.398 241.424C315.926 241.437 316.434 241.214 316.77 240.806C318.762 238.403 325.692 229.406 329.86 216.183C329.972 215.821 330.097 215.453 330.223 215.084C332.907 207.278 338.466 197.484 341.394 188.619C341.862 187.204 342.277 185.874 342.653 184.617C342.772 184.215 342.891 183.821 343.003 183.426L339.89 181.069C339.89 181.069 330.539 196.188 327.644 210.411C325.119 222.765 315.042 237.633 312.438 241.332Z" fill="#153D74"/>
<path d="M339.559 211.733C339.506 218.275 339.816 232.867 340.614 239.995C340.687 240.646 341.241 241.14 341.9 241.14H344.109C345.039 241.14 345.738 241.133 346.2 241.127C346.602 241.12 346.938 240.837 347.017 240.442C349.213 229.293 350.783 220.032 351.93 212.029C352.893 205.329 353.75 199.589 354.403 194.646C355.063 189.67 355.524 185.504 355.689 181.983C355.716 181.43 355.735 180.89 355.742 180.364C355.755 179.837 355.755 179.324 355.748 178.83L337.469 177.053C337.706 189.177 339.586 207.711 339.559 211.733Z" fill="#214D9A"/>
<path d="M344.104 241.14C344.941 241.14 345.587 241.134 346.042 241.127C346.53 241.121 346.946 240.772 347.038 240.298C349.221 229.214 350.784 220 351.924 212.029C352.887 205.329 353.745 199.59 354.397 194.647C355.057 189.671 355.518 185.505 355.683 181.983L348.977 185.919C348.977 185.919 353.257 187.427 351.621 198.839C349.986 210.252 346.379 239.528 344.104 241.14Z" fill="#153D74"/>
<path d="M343.247 181.872C343.247 181.872 344.533 186.512 348.991 185.92C353.442 185.327 359.779 182.662 359.779 182.662C359.779 182.662 357.874 176.659 355.506 168.774C352.638 159.224 349.096 146.916 347.421 139.15C346.953 136.971 346.63 135.155 346.511 133.858L342.819 126.704C342.819 126.704 337.306 139.044 337.009 142.158C336.712 145.271 343.247 181.872 343.247 181.872Z" fill="white"/>
<path d="M347.69 141.69L342.811 126.697C342.824 126.703 348.97 128.52 352.063 130.08C352.063 130.08 353.995 132.568 355.188 138.307C355.188 138.307 356.454 152.083 353.632 157.118C353.632 157.118 344.723 158.895 330.466 154.005V150.747C330.466 150.747 346.055 151.563 349.247 151.931L347.69 141.69Z" fill="#FFAE73"/>
<path d="M343.437 148.673C343.635 153.715 344.822 163.495 355.413 168.728C355.439 168.741 355.472 168.754 355.499 168.767C352.63 159.217 349.089 146.909 347.414 139.143C345.475 142.052 343.332 145.902 343.437 148.673Z" fill="#DCEAFF"/>
<path d="M342.811 126.704C342.811 126.704 351.852 127.342 354.029 132.18C356.205 137.024 356.897 153.123 354.127 157.868C354.127 157.868 350.309 158.954 343.563 157.691C343.477 157.677 343.398 157.658 343.313 157.645C343.313 157.645 341.156 152.386 343.088 151.346C343.088 151.346 348.779 151.642 348.186 149.766C347.599 147.884 342.811 126.704 342.811 126.704Z" fill="white"/>
<path d="M320.147 152.767L320.411 153.623L335.249 149.016C335.249 149.016 335.447 148.792 335.348 148.489C335.242 148.16 334.978 148.16 334.978 148.16L320.147 152.767Z" fill="#214D9A"/>
<path d="M319.072 153.571L320.147 152.768L320.411 153.623L319.072 153.571Z" fill="#214D9A"/>
<path d="M316.716 172.98C316.716 172.98 312.951 175.053 312.456 176.639C311.962 178.219 312.298 181.53 312.898 181.484C313.498 181.431 314.389 177.923 314.883 177.679C315.378 177.429 316.07 176.692 316.07 177.232C316.07 177.778 315.576 178.765 315.82 178.91C316.07 179.062 316.861 177.528 317.402 177.232C317.95 176.936 318.174 174.494 318.708 173.836C319.242 173.177 316.716 172.98 316.716 172.98Z" fill="#FFAE73"/>
<path d="M330.473 150.752C330.473 150.752 327.11 148.686 325.692 149.002C324.281 149.318 320.68 151.924 322.415 152.483C324.142 153.049 325.547 152.457 326.213 152.865C326.879 153.273 327.367 154.023 330.473 154.01C333.579 154.004 330.473 150.752 330.473 150.752Z" fill="#FFAE73"/>
<g opacity="0.6">
<path d="M167.465 248.618H167.412C167.082 248.618 166.818 248.348 166.832 248.026L167.715 209.792L170.32 209.489L168.098 248.026C168.071 248.355 167.794 248.618 167.465 248.618Z" fill="#6CA3EA"/>
<path d="M152.293 248.618H152.24C151.91 248.618 151.646 248.349 151.66 248.026L152.543 209.793L155.148 209.49L152.926 248.026C152.906 248.355 152.629 248.618 152.293 248.618Z" fill="#6CA3EA"/>
<path d="M194.153 248.617H194.206C194.536 248.617 194.799 248.348 194.786 248.025L193.903 209.792L191.298 209.489L193.52 248.025C193.547 248.354 193.817 248.617 194.153 248.617Z" fill="#6CA3EA"/>
<path d="M150.57 207.422V181.227C150.57 176.62 154.316 172.881 158.932 172.881H177.845C182.461 172.881 186.207 176.62 186.207 181.227V208.423L150.57 207.422Z" fill="#6CA3EA"/>
<path d="M189.589 211.557H154.712C152.423 211.557 150.57 209.707 150.57 207.423H189.596V211.557H189.589Z" fill="#6CA3EA"/>
<path d="M193.751 211.557H166.556C165.409 211.557 164.485 210.629 164.485 209.49C164.485 208.345 165.415 207.423 166.556 207.423H193.751C194.899 207.423 195.822 208.351 195.822 209.49C195.822 210.629 194.899 211.557 193.751 211.557Z" fill="#6CA3EA"/>
</g>
<path d="M214.634 233.374C214.897 234.691 216.777 234.473 218.881 233.96C220.984 233.447 220.483 234.059 223.47 233.723C226.457 233.394 227.368 232.282 227.46 231.834C227.539 231.439 226.062 231.301 224.479 231.117C224.281 231.097 224.077 231.071 223.879 231.044C222.092 230.82 220.78 229.669 219.157 228.721C217.621 227.826 215.32 224.173 215.32 224.173L211.218 224.495C211.218 224.495 213.368 227.76 214.205 229.175C214.693 230.011 214.667 231.11 214.607 231.966C214.568 232.433 214.541 232.907 214.634 233.374Z" fill="#FFAE73"/>
<path d="M218.881 233.96C220.984 233.447 220.483 234.059 223.471 233.723C226.458 233.394 227.368 232.282 227.46 231.834C227.539 231.439 226.062 231.301 224.48 231.117L224.466 231.15C224.466 231.15 222.673 232.42 220.187 232.479C218.155 232.525 216.012 231.946 214.608 231.972C214.575 232.433 214.548 232.907 214.641 233.374C214.898 234.691 216.777 234.467 218.881 233.96Z" fill="#1E3865"/>
<path d="M179.393 239.265C178.576 240.331 179.987 241.595 181.761 242.832C183.535 244.063 182.75 244.096 184.972 246.117C187.201 248.137 188.632 248.078 189.028 247.854C189.377 247.657 188.507 246.459 187.59 245.149C187.478 244.985 187.359 244.82 187.247 244.655C186.232 243.168 186.232 241.424 185.869 239.581C185.526 237.837 188.382 231.42 188.382 231.42L183.792 230.84C183.792 230.84 183.192 234.717 182.677 236.277C182.374 237.198 181.101 237.797 180.422 238.317C180.053 238.594 179.677 238.883 179.393 239.265Z" fill="#FFAE73"/>
<path d="M181.762 242.826C183.536 244.057 182.751 244.09 184.974 246.11C187.203 248.131 188.634 248.072 189.029 247.848C189.379 247.65 188.508 246.452 187.592 245.143L187.559 245.149C187.559 245.149 185.422 244.649 183.727 242.826C182.349 241.338 181.36 239.351 180.417 238.317C180.048 238.6 179.672 238.89 179.388 239.265C178.577 240.331 179.988 241.595 181.762 242.826Z" fill="#1E3865"/>
<path d="M198.129 206.468L193.942 217.723L188.475 232.413C188.475 232.413 186.991 232.558 185.567 232.15C184.261 231.775 182.758 230.787 182.758 230.787C182.758 230.787 184.275 215.011 187.11 205.954C187.835 203.631 188.653 201.749 189.55 200.689C193.935 195.509 198.129 206.468 198.129 206.468Z" fill="#0B3563"/>
<path d="M193.869 188.598C191.125 187.716 182.849 188.243 174.989 189.776L173.782 187.67L156.795 186.347C156.795 186.347 151.19 198.754 154.256 206.659C154.704 207.824 155.601 208.567 157.131 208.587H157.382C157.382 208.587 167.491 208.58 170.775 208.58C179.223 208.58 188.653 202.782 189.872 202.538C191.871 202.137 192.669 206.125 194.667 210.311C196.665 214.497 213.434 228.846 213.434 228.846C213.434 228.846 216.013 228.872 217.074 228.471C218.222 228.043 218.637 227.483 218.637 227.483C218.637 227.483 200.061 190.592 193.869 188.598Z" fill="#214D9A"/>
<path d="M167.835 136.359C165.441 135.793 162.196 136.458 161.656 136.523C155.206 137.274 153.762 147.278 154.244 150.075C155.127 155.229 152.648 156.683 149.687 160.804C143.752 169.07 147.854 175.882 152.681 177.567C155.582 178.581 159.532 175.823 159.532 175.823C159.605 175.85 169.787 166.148 174.825 161.435C183.299 157.947 173.928 137.807 167.835 136.359Z" fill="#424143"/>
<path d="M169.212 159.941C169.245 159.954 166.587 161.685 164.418 161.317C162.38 160.975 160.224 158.322 160.25 158.316C161.075 158.065 161.8 157.105 161.286 152.162L161.675 152.201L168.183 152.826C168.183 152.826 168.236 154.847 168.427 156.736C168.586 158.309 168.836 159.803 169.212 159.941Z" fill="#FFAE73"/>
<path d="M168.19 152.82C168.19 152.82 168.243 154.841 168.434 156.73C164.854 156.987 162.638 153.926 161.682 152.202L168.19 152.82Z" fill="#F9924F"/>
<path d="M169.56 154.485C169.56 154.485 161.126 155.466 160.592 150.213C160.058 144.961 158.614 141.552 163.975 140.703C169.336 139.854 170.589 141.749 171.196 143.46C171.803 145.172 171.743 154.097 169.56 154.485Z" fill="#FFAE73"/>
<path d="M170.188 140.769C170.188 140.769 166.113 146.587 162.657 147.857C159.195 149.121 157.566 148.331 157.566 148.331C157.566 148.331 159.215 146.06 159.762 142.941C159.921 142.019 160.56 141.256 161.444 140.946C163.923 140.078 168.704 138.755 170.188 140.769Z" fill="#1E3865"/>
<path d="M166.824 141.196C166.824 141.196 169 142.44 169.871 143.546C170.708 144.619 171.605 147.462 171.48 148.713C171.48 148.713 172.852 142.736 170.656 140.564C168.321 138.261 166.824 141.196 166.824 141.196Z" fill="#1E3865"/>
<path d="M175.701 173.875C175.444 190.882 175.628 187.328 173.769 188.941C173.32 189.329 172.054 189.559 170.392 189.671C165.17 190.02 155.984 189.158 155.634 188.197C154.427 184.86 155.278 183.827 154.276 178.719C154.17 178.18 154.038 177.587 153.887 176.949C153.049 173.441 152.231 172.249 155.205 166.615C157.903 161.514 160.817 157.434 161.068 157.585C168.183 161.804 168.645 158.191 168.645 158.191C168.645 158.191 175.826 165.582 175.701 173.875Z" fill="white"/>
<path d="M193.935 217.723L188.343 233.025C188.343 233.025 186.332 233.677 184.868 233.466C183.377 233.249 182.56 232.44 182.56 232.44C182.56 232.44 184.268 215.011 187.103 205.955L193.935 217.723Z" fill="#214D9A"/>
<path d="M168.652 158.191C168.652 158.191 175.972 159.429 176.836 162.575C177.693 165.721 183.984 183.057 183.984 183.057C183.984 183.057 179.032 184.881 177.317 183.169C175.596 181.451 171.336 167.248 171.336 167.248L168.652 158.191Z" fill="white"/>
<path d="M170.392 189.672C165.169 190.02 155.983 189.158 155.634 188.197C154.427 184.86 155.278 183.827 154.275 178.72L156.729 173.151C156.729 173.151 156.379 179.523 158.713 181.596C161.041 183.669 168.256 185.597 169.39 187.335C169.931 188.164 170.287 189 170.392 189.672Z" fill="#DCEAFF"/>
<path d="M170.82 186.038C170.82 186.038 172.377 187.381 172.818 187.486C173.26 187.591 173.511 187.493 173.511 187.493L172.377 186.17L170.82 186.038Z" fill="#FFAE73"/>
<path d="M170.199 184.465L174.136 185.478C174.136 185.478 174.037 185.761 173.589 185.827C173.14 185.893 171.947 185.715 171.947 185.715L170.199 184.465Z" fill="#FFAE73"/>
<path d="M163.52 186.63C163.52 186.63 169.145 184.136 170.2 184.465C171.255 184.794 173.965 186.229 174.387 186.828C174.809 187.433 172.171 186.755 171.347 186.703C170.813 186.67 169.573 187.4 168.953 187.756C166.362 189.243 164.561 189.112 164.561 189.112L163.52 186.63Z" fill="#FFAE73"/>
<path d="M161.068 157.585C161.068 157.585 153.109 159.072 151.638 161.277C148.42 166.082 141.575 185.979 145.406 188.651C149.726 191.659 165.058 189.434 165.058 189.434C165.058 189.434 165.565 187.052 164.86 185.9C164.148 184.748 152.614 182.885 152.08 182.359C151.546 181.826 157.342 174.145 156.722 172.67C154.751 167.958 161.068 157.585 161.068 157.585Z" fill="white"/>
<path d="M192.524 185.782C192.524 185.782 198.09 187.282 198.663 188.145C199.237 189.007 200.358 191.646 200.312 192.331C200.266 193.022 198.742 190.968 198.175 190.442C197.806 190.099 196.474 189.902 195.815 189.797C194.159 189.527 193.361 188.77 192.742 188.395C192.326 188.145 191.818 188.191 191.818 188.191L192.524 185.782Z" fill="#FFAE73"/>
<path d="M198.182 189.658C198.182 189.658 198.518 191.547 198.775 191.889C199.032 192.232 199.276 192.304 199.276 192.304L199.237 190.672L198.182 189.658Z" fill="#FFAE73"/>
<path d="M198.67 188.145L200.932 191.205C200.932 191.205 200.694 191.35 200.325 191.133C199.962 190.922 199.197 190.08 199.197 190.08L198.67 188.145Z" fill="#FFAE73"/>
<path d="M192.741 188.401C192.741 188.401 193.256 189.651 194.291 190.099C195.32 190.547 196.078 191.218 196.243 190.981C196.408 190.737 195.465 189.467 195.465 189.467L192.741 188.401Z" fill="#FFAE73"/>
<path d="M182.5 178.962L194.212 186.354C194.212 186.354 192.979 187.999 192.57 188.144C190.4 188.94 180.647 188.177 177.311 183.168L182.5 178.962Z" fill="white"/>
<path d="M177.857 186.992C178.549 186.992 185.42 186.518 185.42 186.518C185.42 186.518 185.223 187.736 185.645 188.387L178.945 189.664L177.566 189.263L177.857 186.992Z" fill="#FDDBBA"/>
<path d="M166.396 188.098L177.864 186.992C177.864 186.992 177.462 189.112 178.959 189.664L166.317 190.586C166.31 190.586 165.295 189.158 166.396 188.098Z" fill="#FF912B"/>
<path d="M185.408 186.67L177.659 187.262C177.659 187.262 177.719 186.992 177.864 186.992C178.009 186.986 185.559 186.439 185.559 186.439L185.533 186.65L185.408 186.67Z" fill="#FF912B"/>
<path d="M178.952 189.665L185.777 188.368L185.711 188.197L178.438 189.586L178.952 189.665Z" fill="#FF912B"/>
<path d="M99.5446 248.558H99.4852C99.1225 248.558 98.8324 248.255 98.839 247.893L99.8215 205.204L102.71 204.868L100.244 247.9C100.224 248.262 99.9139 248.558 99.5446 248.558Z" fill="#6CA3EA"/>
<path d="M82.7008 248.558H82.6415C82.2788 248.558 81.9886 248.255 81.9952 247.893L82.9778 205.204L85.8662 204.868L83.3998 247.9C83.3801 248.262 83.0701 248.558 82.7008 248.558Z" fill="#6CA3EA"/>
<path d="M129.172 248.558H129.232C129.594 248.558 129.884 248.256 129.878 247.894L128.895 205.204L126.007 204.869L128.473 247.9C128.493 248.262 128.803 248.558 129.172 248.558Z" fill="#6CA3EA"/>
<path d="M80.7881 202.558V173.309C80.7881 168.162 84.9426 163.989 90.073 163.989H111.063C116.187 163.989 120.348 168.162 120.348 173.309V203.677L80.7881 202.558Z" fill="#6CA3EA"/>
<path d="M124.108 207.173H85.4115C82.8529 207.173 80.7822 205.106 80.7822 202.552H124.101V207.173H124.108Z" fill="#6CA3EA"/>
<path d="M128.711 207.173H98.548C97.2687 207.173 96.2334 206.139 96.2334 204.862C96.2334 203.586 97.2687 202.552 98.548 202.552H128.711C129.99 202.552 131.026 203.586 131.026 204.862C131.026 206.139 129.99 207.173 128.711 207.173Z" fill="#6CA3EA"/>
<path d="M112.474 153.182C112.474 153.182 110.72 154.676 110.337 158.546C110.047 161.482 112.091 184.294 113.628 186.104C117.954 191.205 123.368 189.046 125.491 189.823L127.496 188.026C127.496 188.026 120.453 182.84 119.919 181.148C117.855 174.632 119.134 155.637 112.474 153.182Z" fill="#FDDBBA"/>
<path d="M111.215 134.576C111.215 134.576 111.334 130.39 105.808 129.574C100.282 128.751 98.752 130.041 97.8156 131.45C96.8725 132.858 95.1118 138.604 95.2899 140.888C95.4679 143.172 101.772 146.002 101.667 147.338C101.561 148.668 111.215 134.576 111.215 134.576Z" fill="#424143"/>
<path d="M136.847 244.945C136.669 246.36 138.601 246.775 140.844 246.973C143.092 247.17 142.393 247.611 145.46 248.295C148.526 248.973 149.792 248.164 150.03 247.749C150.241 247.381 148.829 246.742 147.326 246.018C147.135 245.926 146.95 245.834 146.759 245.742C145.064 244.912 144.154 243.306 142.868 241.806C141.648 240.384 140.6 235.935 140.6 235.935L136.438 234.869C136.438 234.869 137.474 238.877 137.823 240.588C138.028 241.595 137.632 242.694 137.289 243.53C137.098 243.984 136.913 244.452 136.847 244.945Z" fill="#FFAE73"/>
<path d="M140.85 246.973C143.099 247.17 142.4 247.611 145.466 248.295C148.533 248.973 149.799 248.164 150.036 247.749C150.247 247.381 148.836 246.742 147.333 246.018L147.306 246.045C147.306 246.045 145.11 246.716 142.631 245.933C140.613 245.294 138.681 243.984 137.289 243.53C137.105 243.984 136.913 244.452 136.854 244.952C136.669 246.36 138.602 246.775 140.85 246.973Z" fill="#1E3865"/>
<path d="M105.702 187.316C105.702 187.316 133.511 190.192 138.094 194.444C142.677 198.696 141.859 238.279 141.859 238.279C141.147 239.016 140.62 239.003 139.492 238.911C138.41 238.825 136.201 237.897 136.201 237.897C136.201 237.897 130.247 218.461 130.174 213.959C130.102 209.457 129.159 201.822 127.266 201.368C125.373 200.921 102.86 203.435 100.394 196.34C97.9273 189.245 102.022 183.4 102.022 183.4L105.702 187.316Z" fill="#1E3865"/>
<path d="M92.7169 194.457C93.9171 195.26 96.0603 196.497 99.6608 196.622C106.104 196.859 114.142 196.089 115.725 194.595C116.134 194.207 116.338 193.568 116.391 192.766C116.562 190.297 115.382 186.236 114.591 182.88C114.076 180.695 113.727 178.812 114.01 177.851C114.887 174.916 117.598 168.939 117.835 166.978C118.072 165.017 115.718 154.486 112.474 153.183C109.223 151.88 96.6933 153.183 96.6933 153.183C91.7937 154.177 91.5892 164.596 93.2181 173.461C93.2576 173.692 93.3038 173.915 93.3499 174.139C95.1041 183.15 89.3669 192.219 92.7169 194.457Z" fill="white"/>
<path d="M108.907 155.098C108.821 155.67 107.252 156.598 103.902 155.716C100.69 154.874 100.308 153.827 100.308 153.136C100.308 152.32 101.706 151.221 101.686 146.206L102.068 146.278L108.544 147.555C108.544 147.555 108.399 149.589 108.392 151.504C108.386 153.116 109.052 154.143 108.907 155.098Z" fill="#FFAE73"/>
<path d="M108.544 147.562C108.544 147.562 108.399 149.595 108.392 151.511C104.772 151.412 102.853 148.108 102.068 146.285L108.544 147.562Z" fill="#F9924F"/>
<path d="M109.75 149.372C109.75 149.372 101.177 149.51 101.177 144.185C101.171 138.861 100.063 135.287 105.53 134.971C111.003 134.655 112.065 136.689 112.5 138.466C112.935 140.243 111.979 149.2 109.75 149.372Z" fill="#FFAE73"/>
<path d="M109.434 134.839C109.434 134.839 107.086 141.092 103.486 142.013C99.8851 142.935 98.3223 141.974 98.3223 141.974C98.3223 141.974 101.085 139.782 101.659 135.958C101.659 135.964 107.667 131.864 109.434 134.839Z" fill="#424143"/>
<path d="M108.854 135.346C108.854 135.346 110.608 136.741 111.036 138.097C111.465 139.453 111.656 142.243 112.474 142.151C112.474 142.151 114.241 137.906 112.256 135.497C110.139 132.956 108.854 135.346 108.854 135.346Z" fill="#424143"/>
<path d="M115.962 246.111C115.942 247.539 117.907 247.73 120.163 247.664C122.418 247.598 121.772 248.125 124.897 248.447C128.017 248.77 129.184 247.815 129.375 247.381C129.547 246.993 128.069 246.519 126.493 245.973C126.296 245.907 126.098 245.834 125.9 245.762C124.126 245.13 123.044 243.643 121.594 242.3C120.222 241.03 123.249 234.869 123.249 234.869L119.279 232.908C119.279 232.908 118.527 237.304 117.558 241.155C117.307 242.149 116.49 243.787 116.239 244.656C116.107 245.123 115.969 245.604 115.962 246.111Z" fill="#FFAE73"/>
<path d="M92.8897 193.397C94.0899 194.2 96.0617 196.491 99.6622 196.622C105.604 195.273 112.37 193.7 116.392 192.765C116.564 190.297 115.383 186.236 114.592 182.88C109.897 184.308 102.913 179.437 100.572 177.509C98.1059 175.488 98.1851 168.749 98.1851 168.749L93.2195 173.461C93.259 173.691 93.3052 173.915 93.3513 174.139C95.1055 183.149 89.5398 191.159 92.8897 193.397Z" fill="#DCEAFF"/>
<path d="M120.163 247.664C122.418 247.598 121.772 248.125 124.898 248.447C128.017 248.77 129.184 247.815 129.375 247.381C129.547 246.993 128.07 246.519 126.494 245.972L126.474 245.999C126.474 245.999 124.364 246.914 121.818 246.42C119.741 246.018 117.677 244.939 116.246 244.649C116.114 245.123 115.976 245.604 115.969 246.111C115.943 247.532 117.908 247.723 120.163 247.664Z" fill="#1E3865"/>
<path d="M99.7013 189.008C106.764 188.81 127.853 190.489 131.902 193.536C136.887 197.287 122.643 237.871 122.643 237.871C122.643 237.871 120.988 238.029 120.467 237.969C118.205 237.713 117.282 237.028 117.282 237.028C117.282 237.028 117.335 213.143 119.003 208.575C120.54 204.356 121.483 202.862 119.557 202.606C117.631 202.355 93.5816 205.416 91.5769 198.169C90.0075 192.509 92.3287 187.27 92.3287 187.27C92.3287 187.27 93.1926 189.198 99.7013 189.008Z" fill="#25468F"/>
<path d="M96.6938 153.182C96.6938 153.182 91.7875 153.597 91.4051 157.467C91.1149 160.403 88.9849 181.241 90.5214 183.057C94.8474 188.158 109.263 189.237 111.38 190.014L111.966 187.605C111.966 187.605 96.5751 179.865 96.8125 178.108C97.0433 176.344 101.396 152.485 96.6938 153.182Z" fill="white"/>
<path d="M100.479 131.68C100.479 131.68 100.829 129.449 97.7296 128.87C94.6302 128.291 94.5708 134.866 94.2411 136.452C93.9114 138.038 94.7357 138.986 95.9227 139.085C97.1031 139.184 100.479 131.68 100.479 131.68Z" fill="#424143"/>
<path d="M112.132 187.494C112.132 187.494 116.517 186.256 117.559 186.546C118.601 186.835 122.182 189.198 121.674 189.843C121.173 190.488 118.02 189.462 116.57 189.652C115.119 189.85 113.998 190.561 112.956 190.409C111.914 190.258 110.819 189.843 110.819 189.843L112.132 187.494Z" fill="#FFAE73"/>
<path d="M112.132 187.493C112.132 187.493 114.275 186.394 114.888 185.769C114.967 185.69 115.093 185.71 115.152 185.802C115.317 186.059 115.469 186.559 114.717 187.052C113.635 187.757 112.132 187.493 112.132 187.493Z" fill="#FFAE73"/>
<path d="M127.489 188.02C127.489 188.02 132.039 188.27 132.929 188.882C133.82 189.494 136.438 192.891 135.752 193.332C135.066 193.779 132.422 191.785 130.984 191.502C129.547 191.219 128.254 191.528 127.318 191.041C126.381 190.554 125.484 189.817 125.484 189.817L127.489 188.02Z" fill="#FFAE73"/>
<path d="M96.2451 248.927H77.7411C76.8509 247.841 77.1806 243.846 77.3125 242.536C77.3389 242.273 77.3586 242.121 77.3586 242.121C77.3586 242.121 83.6761 237.08 84.5466 240.936C84.5729 241.055 84.6059 241.173 84.6389 241.292C85.7336 244.905 90.6398 246.544 93.4688 247.005C95.3152 247.308 95.9945 248.262 96.2451 248.927Z" fill="#163054"/>
<path d="M45.7572 188.914C46.4232 188.914 77.4565 194.726 82.587 201.071C85.1522 204.236 85.5347 240.825 85.5347 240.825C85.5347 240.825 82.3628 244.747 75.5112 242.47C75.5112 242.47 70.4862 217.439 70.8621 209.844C70.9676 207.745 49.6611 209.541 45.7637 208.534C41.8664 207.527 32.3375 199.063 34.4345 194.936C36.525 190.816 45.7572 188.914 45.7572 188.914Z" fill="#1E3865"/>
<path d="M68.2252 187.196C68.2252 187.196 70.2101 188.908 72.2478 189.388C73.4084 189.664 74.536 189.98 75.2021 190.283C77.0419 191.126 80.537 194.897 80.2138 195.272C79.1719 196.47 74.9713 193.344 74.1734 193.567C73.3688 193.791 75.4922 195.608 74.6481 196.101C74.2063 196.358 73.382 194.792 72.6039 194.568C71.5554 194.272 70.863 192.692 70.5464 192.58C69.9331 192.37 67.3877 190.086 67.3877 190.086L68.2252 187.196Z" fill="#FFAE73"/>
<path d="M104.428 248.927H85.9237C85.0335 247.841 85.3632 243.846 85.4951 242.536C85.5215 242.273 85.5413 242.121 85.5413 242.121C85.5413 242.121 91.8587 237.08 92.7292 240.936C92.7555 241.055 92.7885 241.173 92.8215 241.292C93.9162 244.905 98.8224 246.544 101.651 247.005C103.491 247.308 104.17 248.262 104.428 248.927Z" fill="#153C6B"/>
<path d="M54.8968 188.914C55.5628 188.914 86.5962 194.726 91.7266 201.071C94.2919 204.236 94.6743 240.825 94.6743 240.825C94.6743 240.825 91.5024 244.747 84.6508 242.47C84.6508 242.47 79.6259 217.439 80.0018 209.844C80.1073 207.745 58.8007 209.541 54.9034 208.534C51.0061 207.527 41.4772 199.063 43.5742 194.936C45.6712 190.816 54.8968 188.914 54.8968 188.914Z" fill="#25468F"/>
<path d="M52.9596 151.279C50.7307 151.095 48.3897 150.503 46.3652 149.844C43.8395 149.028 41.7952 147.83 43.1141 145.52C44.3275 143.394 46.286 138.642 46.1541 134.713L50.8626 138.497L54.0609 141.071C54.0609 141.071 54.0477 142.585 53.6982 145.244C53.6322 145.731 53.5597 146.251 53.4739 146.81C53.4014 147.264 53.6124 147.712 54.0015 147.955C54.0279 147.969 54.0477 147.988 54.074 148.001C55.6435 148.989 54.8258 151.437 52.9596 151.279Z" fill="#FFAE73"/>
<path d="M54.0467 140.446C54.0467 140.446 54.2115 140.999 53.928 143.026C51.0792 142.565 48.415 140.294 48.415 140.294C49.8658 139.899 50.3934 138.333 51.4748 138.478L54.0467 140.446Z" fill="#F9924F"/>
<path d="M56.6854 140.907C56.6854 140.907 45.7255 142.723 44.6968 135.891C43.6681 129.059 41.5578 124.696 48.515 123.248C55.4721 121.8 57.2262 124.202 58.123 126.394C59.0199 128.599 59.5078 140.261 56.6854 140.907Z" fill="#FFAE73"/>
<path d="M59.7307 123.379C60.1989 125.025 58.9393 127.025 56.8291 127.684C53.6902 128.664 54.3826 132.508 52.9714 132.455C51.5602 132.403 50.9865 130.244 49.7269 131.968C48.652 133.436 50.6238 135.18 50.4853 135.983C50.2545 137.365 48.0783 140.196 46.1264 140.057C44.1678 139.913 40.5079 130.632 41.2399 127.763C41.9719 124.893 44.8998 121.865 47.6761 121.444C50.4457 121.029 54.2969 122.221 55.1871 122.221C56.0773 122.221 59.4801 122.491 59.7307 123.379Z" fill="#424143"/>
<path d="M62.4482 186.867C62.2635 188.446 61.9338 189.513 61.4128 189.862C59.7774 190.954 57.6144 192.31 55.1943 193.659C46.6216 198.431 34.8835 203.038 32.4963 194.969C29.6937 185.498 31.5335 167.714 34.2834 156.67C35.8661 150.305 40.2448 143.631 43.2056 143.638C48.2504 143.644 55.5042 144.974 58.4322 152.187C59.5664 154.978 61.2348 164.66 62.0789 173.526C62.5866 178.798 62.8043 183.793 62.4482 186.867Z" fill="white"/>
<path d="M42.6982 143.697L43.8391 141.13C43.8391 141.13 53.9681 142.157 55.6827 147.968C55.6827 147.962 47.8551 143.822 42.6982 143.697Z" fill="#DCEAFF"/>
<path d="M62.448 186.866C62.2634 188.446 61.9337 189.512 61.4127 189.861C59.7773 190.954 57.6143 192.31 55.1942 193.659C52.6685 192.125 47.4919 188.472 46.2785 184.168C44.6959 178.54 45.8037 171.61 45.8037 171.61L62.448 186.866Z" fill="#DCEAFF"/>
<path d="M44.748 152.359C44.748 152.359 45.6251 176.553 47.0033 181.332C49.3509 189.486 70.7894 192.396 70.7894 192.396C70.7894 192.396 72.0555 190.967 71.4884 188.591C71.4884 188.591 58.6755 178.508 58.2996 176.593C57.9237 174.671 61.089 161.665 57.4753 156.94C53.8549 152.207 47.1814 148.107 44.748 152.359Z" fill="white"/>
<path d="M17.8763 248.697H17.8037C17.2234 248.684 16.7816 248.217 16.8344 247.677L20.6855 209.292L24.0486 209.588L18.5159 248.184C18.4764 248.48 18.1994 248.704 17.8763 248.697Z" fill="#6CA3EA"/>
<path d="M37.6995 248.696H37.627C37.0467 248.683 36.6048 248.216 36.6576 247.676L40.5087 209.291L43.8719 209.587L38.3392 248.183C38.2996 248.479 38.0226 248.703 37.6995 248.696Z" fill="#6CA3EA"/>
<path d="M74.9116 248.697H74.9842C75.5645 248.683 76.0063 248.216 75.9536 247.676L72.1024 209.292L68.7393 209.588L74.272 248.183C74.3115 248.479 74.5885 248.703 74.9116 248.697Z" fill="#6CA3EA"/>
<path d="M18.9648 203.848L15.3115 171.788C14.8301 167.168 16.3798 162.646 23.0599 162.291L34.8112 161.573C41.7749 161.284 44.9204 167.076 45.8041 171.525L52.781 206.77L18.9648 203.848Z" fill="#6CA3EA"/>
<path d="M22.104 209.851H71.9182C73.613 209.851 74.9978 208.469 74.9978 206.777C74.9978 205.086 73.613 203.704 71.9182 203.704H19.0244V206.777C19.0244 208.462 20.4092 209.851 22.104 209.851Z" fill="#6CA3EA"/>
<path d="M22.104 209.851H49.7017C51.3964 209.851 52.7812 208.469 52.7812 206.777C52.7812 205.086 51.3964 203.704 49.7017 203.704H19.0244V206.777C19.0244 208.462 20.4092 209.851 22.104 209.851Z" fill="#6CA3EA"/>
<path d="M96.8846 106.458H88.2986C84.8629 106.458 82.0537 103.654 82.0537 100.225V92.2808C82.0537 88.8517 84.8629 86.0479 88.2986 86.0479H96.8846C100.32 86.0479 103.129 88.8517 103.129 92.2808V100.218C103.123 103.654 100.314 106.458 96.8846 106.458Z" fill="#6CA3EA"/>
<path d="M96.5078 105.577H88.6671C85.5281 105.577 82.9629 103.016 82.9629 99.8834V92.6302C82.9629 89.4973 85.5281 86.937 88.6671 86.937H96.5078C99.6468 86.937 102.212 89.4973 102.212 92.6302V99.8834C102.212 103.01 99.6468 105.577 96.5078 105.577Z" fill="#DCEAFF"/>
<path d="M92.5925 89.234C92.8328 89.234 93.0277 89.0395 93.0277 88.7996C93.0277 88.5597 92.8328 88.3652 92.5925 88.3652C92.3521 88.3652 92.1572 88.5597 92.1572 88.7996C92.1572 89.0395 92.3521 89.234 92.5925 89.234Z" fill="#6CA3EA"/>
<path d="M95.6788 89.4183C95.7975 89.2076 96.0613 89.1353 96.2723 89.2471C96.4833 89.3656 96.5558 89.6289 96.4437 89.8395C96.325 90.0501 96.0613 90.1225 95.8503 90.0106C95.6326 89.8922 95.5601 89.6289 95.6788 89.4183Z" fill="#6CA3EA"/>
<path d="M98.6922 91.8074C98.8966 91.6758 99.167 91.735 99.2923 91.939C99.4242 92.1431 99.3648 92.4129 99.1604 92.5446C98.9559 92.6762 98.6856 92.617 98.5537 92.4129C98.435 92.2089 98.4877 91.939 98.6922 91.8074Z" fill="#6CA3EA"/>
<path d="M100.189 95.5132C100.433 95.5132 100.624 95.7106 100.624 95.9476C100.624 96.1911 100.427 96.382 100.189 96.382C99.9451 96.382 99.7539 96.1845 99.7539 95.9476C99.7539 95.704 99.9451 95.5132 100.189 95.5132Z" fill="#6CA3EA"/>
<path d="M99.1139 100.555C99.3543 100.555 99.5492 100.36 99.5492 100.12C99.5492 99.8805 99.3543 99.686 99.1139 99.686C98.8736 99.686 98.6787 99.8805 98.6787 100.12C98.6787 100.36 98.8736 100.555 99.1139 100.555Z" fill="#6CA3EA"/>
<path d="M96.6801 102.556C96.8516 102.727 96.8516 103.003 96.6801 103.174C96.5087 103.345 96.2317 103.345 96.0602 103.174C95.8888 103.003 95.8888 102.727 96.0602 102.556C96.2383 102.384 96.5152 102.384 96.6801 102.556Z" fill="#6CA3EA"/>
<path d="M92.5925 104.398C92.8328 104.398 93.0277 104.204 93.0277 103.964C93.0277 103.724 92.8328 103.529 92.5925 103.529C92.3521 103.529 92.1572 103.724 92.1572 103.964C92.1572 104.204 92.3521 104.398 92.5925 104.398Z" fill="#6CA3EA"/>
<path d="M89.4932 89.4183C89.3745 89.2076 89.1107 89.1353 88.8997 89.2471C88.6886 89.3656 88.6161 89.6289 88.7282 89.8395C88.8469 90.0501 89.1107 90.1225 89.3217 90.0106C89.5327 89.8922 89.6053 89.6289 89.4932 89.4183Z" fill="#6CA3EA"/>
<path d="M86.4731 91.8074C86.2686 91.6758 85.9983 91.735 85.873 91.939C85.7411 92.1431 85.8004 92.4129 86.0049 92.5446C86.2093 92.6762 86.4797 92.617 86.605 92.4129C86.7368 92.2089 86.6775 91.939 86.4731 91.8074Z" fill="#6CA3EA"/>
<path d="M84.9821 95.5132C84.7381 95.5132 84.5469 95.7106 84.5469 95.9476C84.5469 96.1911 84.7447 96.382 84.9821 96.382C85.2261 96.382 85.4173 96.1845 85.4173 95.9476C85.4173 95.704 85.2195 95.5132 84.9821 95.5132Z" fill="#6CA3EA"/>
<path d="M86.0514 100.555C86.2918 100.555 86.4867 100.36 86.4867 100.12C86.4867 99.8805 86.2918 99.686 86.0514 99.686C85.8111 99.686 85.6162 99.8805 85.6162 100.12C85.6162 100.36 85.8111 100.555 86.0514 100.555Z" fill="#6CA3EA"/>
<path d="M88.4831 102.556C88.3116 102.727 88.3116 103.004 88.4831 103.175C88.6545 103.346 88.9315 103.346 89.103 103.175C89.2744 103.004 89.2744 102.727 89.103 102.556C88.9315 102.385 88.6545 102.385 88.4831 102.556Z" fill="#6CA3EA"/>
<path d="M92.4727 95.9471C92.4727 95.7036 92.6705 95.5127 92.9079 95.5127C93.1519 95.5127 93.3431 95.7101 93.3431 95.9471C93.3431 96.1906 93.1453 96.3815 92.9079 96.3815C92.6705 96.3815 92.4727 96.1906 92.4727 95.9471Z" fill="#6CA3EA"/>
<path d="M92.9683 90.5039H92.8496V95.947H92.9683V90.5039Z" fill="#6CA3EA"/>
<path d="M95.6373 93.5331L92.748 95.7969L92.9679 96.0764L95.8572 93.8127L95.6373 93.5331Z" fill="#6CA3EA"/>
</svg>
