<svg width="523" height="139" viewBox="0 0 523 139" fill="none" xmlns="http://www.w3.org/2000/svg">
<path d="M29.3141 38.6406H0V138.412H29.3141V38.6406Z" fill="white"/>
<path d="M79.7052 100.576C80.3067 105.543 81.6403 109.091 83.68 111.194C87.2887 114.92 93.9308 116.795 103.659 116.795C109.359 116.795 113.909 115.984 117.257 114.337C120.63 112.689 122.304 110.231 122.304 106.962C122.304 103.82 120.944 101.438 118.25 99.7904C115.531 98.1432 105.463 95.3302 88.0209 91.3515C75.4689 88.3358 66.6041 84.5598 61.4787 80.049C56.3533 75.5888 53.7644 69.1772 53.7644 60.789C53.7644 50.9056 57.7654 42.3907 65.7934 35.295C73.8215 28.1992 85.1183 24.626 99.6838 24.626C113.491 24.626 124.762 27.2869 133.47 32.6341C142.178 37.9812 147.172 47.2057 148.454 60.2822H119.558C119.139 56.6836 118.093 53.82 116.42 51.7419C113.23 47.9406 107.816 46.04 100.155 46.04C93.8524 46.04 89.3546 47.003 86.6873 48.8783C84.02 50.7789 82.6602 53.009 82.6602 55.5686C82.6602 58.787 84.0723 61.0931 86.9226 62.5376C89.773 64.0328 99.8146 66.643 117.1 70.2923C128.606 72.9025 137.235 76.8812 142.988 82.1777C148.663 87.5502 151.513 94.2658 151.513 102.325C151.513 112.943 147.434 121.61 139.275 128.326C131.116 135.041 118.486 138.386 101.436 138.386C84.02 138.386 71.1803 134.838 62.8908 127.717C54.6012 120.622 50.4434 111.549 50.4434 100.551H79.7052V100.576Z" fill="white"/>
<path d="M161.424 50.7033V30.7591H176.826V0.880859H205.408V30.7591H223.347V50.7033H205.408V107.292C205.408 111.676 205.983 114.413 207.134 115.503C208.285 116.592 211.789 117.125 217.673 117.125C218.562 117.125 219.477 117.099 220.471 117.074C221.438 117.049 222.406 116.998 223.347 116.922V137.854L209.671 138.336C196.02 138.792 186.685 136.511 181.69 131.468C178.447 128.25 176.826 123.308 176.826 116.643V50.7033H161.424Z" fill="white"/>
<path d="M230.564 50.7033V30.7591H245.967V0.880859H274.575V30.7591H292.514V50.7033H274.575V107.292C274.575 111.676 275.15 114.413 276.301 115.503C277.451 116.592 280.956 117.125 286.839 117.125C287.728 117.125 288.644 117.099 289.637 117.074C290.605 117.049 291.572 116.998 292.514 116.922V137.854L278.837 138.336C265.187 138.792 255.851 136.511 250.857 131.468C247.614 128.25 245.993 123.308 245.993 116.643V50.7033H230.564Z" fill="white"/>
<path d="M21.8348 6.09643L23.9268 4.06907C21.3903 2.06705 18.1738 0.875977 14.6436 0.875977C11.1133 0.875977 7.8969 2.06705 5.36035 4.06907L7.45234 6.09643C9.43974 4.60125 11.924 3.71428 14.6436 3.71428C17.3632 3.71428 19.8474 4.60125 21.8348 6.09643Z" fill="white"/>
<path d="M23.9014 22.0358L25.9934 24.0631C28.0592 21.605 29.2883 18.4879 29.2883 15.0667C29.2883 11.6456 28.0592 8.52849 25.9934 6.07031L23.9014 8.09767C25.4442 10.0237 26.3595 12.4312 26.3595 15.0667C26.3856 17.7023 25.4442 20.1098 23.9014 22.0358Z" fill="white"/>
<path d="M5.38689 8.12209L3.29491 6.09473C1.22906 8.5529 0 11.67 0 15.0911C0 18.5123 1.22906 21.6294 3.29491 24.0876L5.38689 22.0602C3.84404 20.1342 2.92881 17.7267 2.92881 15.0911C2.92881 12.4556 3.84404 10.0481 5.38689 8.12209Z" fill="white"/>
<path d="M7.45234 24.0635L5.36035 26.0908C7.8969 28.0929 11.1133 29.2839 14.6436 29.2839C18.1738 29.2839 21.3903 28.0929 23.9268 26.0908L21.8348 24.0635C19.8474 25.5587 17.3632 26.4456 14.6436 26.4456C11.924 26.4456 9.43974 25.5587 7.45234 24.0635Z" fill="white"/>
<path d="M14.6448 23.605C19.4974 23.605 23.4312 19.7928 23.4312 15.0901C23.4312 10.3875 19.4974 6.5752 14.6448 6.5752C9.79221 6.5752 5.8584 10.3875 5.8584 15.0901C5.8584 19.7928 9.79221 23.605 14.6448 23.605Z" fill="white"/>
<path d="M403.259 127.692C402.317 126.375 401.742 123.891 401.533 120.217C401.402 115.376 401.324 111.246 401.324 107.824V58.7115C401.324 45.8124 396.617 37.0188 387.177 32.3812C377.736 27.7182 366.936 25.4121 354.803 25.4121C336.132 25.4121 322.952 30.1257 315.29 39.553C310.479 45.5844 307.759 53.2883 307.131 62.6395H335.007C335.687 58.5088 337.073 55.2397 339.113 52.8068C341.989 49.5377 346.879 47.8905 353.809 47.8905C359.981 47.8905 364.661 48.7268 367.826 50.3993C371.016 52.0719 372.611 55.113 372.611 59.4971C372.611 63.0957 370.545 65.7566 366.387 67.4545C364.06 68.4428 360.216 69.2538 354.855 69.9127L344.944 71.1038C333.7 72.4722 325.201 74.7784 319.396 77.9715C308.831 83.8761 303.575 93.4047 303.575 106.557C303.575 116.719 306.844 124.55 313.407 130.1C319.971 135.625 328.287 138.412 338.354 138.412C346.252 138.412 353.312 136.664 359.562 133.217C364.792 130.277 369.421 126.704 373.422 122.497C373.631 124.93 373.892 127.084 374.232 128.985C374.572 130.886 375.174 132.913 376.063 135.067H407.495V130.936C405.612 130.1 404.2 129.01 403.259 127.692ZM352.502 82.9892C357.313 82.9892 361.733 84.6364 365.184 87.3733L362.334 90.1356C359.614 88.0829 356.215 86.8665 352.502 86.8665C348.788 86.8665 345.389 88.0829 342.669 90.1356L339.819 87.3733C343.271 84.6364 347.69 82.9892 352.502 82.9892ZM364.504 102.401C364.504 108.838 359.118 114.033 352.502 114.033C345.86 114.033 340.499 108.813 340.499 102.401C340.499 95.9643 345.886 90.7692 352.502 90.7692C359.144 90.7438 364.504 95.9643 364.504 102.401ZM336.995 114.667C334.17 111.322 332.471 107.039 332.471 102.376C332.471 97.7129 334.17 93.4301 336.995 90.0849L339.845 92.8472C337.727 95.4828 336.472 98.7772 336.472 102.376C336.472 105.974 337.727 109.269 339.845 111.904L336.995 114.667ZM352.502 121.788C347.69 121.788 343.271 120.141 339.819 117.404L342.669 114.641C345.389 116.694 348.788 117.91 352.502 117.91C356.215 117.91 359.614 116.694 362.334 114.641L365.184 117.404C361.733 120.141 357.313 121.788 352.502 121.788ZM368.009 114.667L365.158 111.904C367.276 109.269 368.532 105.974 368.532 102.376C368.532 98.7772 367.276 95.4828 365.158 92.8472L368.009 90.0849C370.833 93.4301 372.533 97.7129 372.533 102.376C372.533 107.039 370.833 111.322 368.009 114.667Z" fill="white"/>
<path d="M518.738 127.692C517.796 126.375 517.221 123.891 517.012 120.217C516.881 115.376 516.803 111.246 516.803 107.824V58.7115C516.803 45.8124 512.096 37.0188 502.656 32.3812C493.215 27.7182 482.415 25.4121 470.282 25.4121C451.611 25.4121 438.431 30.1257 430.769 39.553C425.958 45.5844 423.238 53.2883 422.61 62.6395H450.486C451.166 58.5088 452.552 55.2397 454.592 52.8068C457.468 49.5377 462.358 47.8905 469.288 47.8905C475.459 47.8905 480.14 48.7268 483.305 50.3993C486.495 52.0719 488.09 55.113 488.09 59.4971C488.09 63.0957 486.024 65.7566 481.866 67.4545C479.539 68.4428 475.695 69.2538 470.334 69.9127L460.423 71.1038C449.179 72.4722 440.68 74.7784 434.875 77.9715C424.31 83.8761 419.054 93.4047 419.054 106.557C419.054 116.719 422.323 124.55 428.886 130.1C435.45 135.625 443.766 138.412 453.833 138.412C461.731 138.412 468.791 136.664 475.041 133.217C480.271 130.277 484.9 126.704 488.901 122.497C489.11 124.93 489.371 127.084 489.711 128.985C490.051 130.886 490.653 132.913 491.542 135.067H523V130.936C521.117 130.1 519.679 129.01 518.738 127.692ZM467.981 82.9892C472.792 82.9892 477.212 84.6364 480.663 87.3733L477.813 90.1356C475.093 88.0829 471.694 86.8665 467.981 86.8665C464.267 86.8665 460.868 88.0829 458.148 90.1356L455.298 87.3733C458.776 84.6364 463.195 82.9892 467.981 82.9892ZM480.01 102.401C480.01 108.838 474.623 114.033 468.007 114.033C461.365 114.033 456.004 108.813 456.004 102.401C456.004 95.9643 461.391 90.7692 468.007 90.7692C474.623 90.7438 480.01 95.9643 480.01 102.401ZM452.5 114.667C449.676 111.322 447.976 107.039 447.976 102.376C447.976 97.7129 449.676 93.4301 452.5 90.0849L455.35 92.8472C453.232 95.4828 451.977 98.7772 451.977 102.376C451.977 105.974 453.232 109.269 455.35 111.904L452.5 114.667ZM467.981 121.788C463.169 121.788 458.75 120.141 455.298 117.404L458.148 114.641C460.868 116.694 464.267 117.91 467.981 117.91C471.694 117.91 475.093 116.694 477.813 114.641L480.663 117.404C477.212 120.141 472.792 121.788 467.981 121.788ZM483.488 114.667L480.637 111.904C482.755 109.269 484.011 105.974 484.011 102.376C484.011 98.7772 482.755 95.4828 480.637 92.8472L483.488 90.0849C486.312 93.4301 488.011 97.7129 488.011 102.376C488.011 107.039 486.312 111.322 483.488 114.667Z" fill="white"/>
</svg>
