<svg width="348" height="250" viewBox="0 0 348 250" fill="none" xmlns="http://www.w3.org/2000/svg">
<path d="M118.668 6.85708H114.097V2.28569C114.097 1.02606 115.123 0 116.382 0C117.642 0 118.668 1.02606 118.668 2.28569V6.85708Z" fill="#1A2E35"/>
<path d="M233.111 6.85708H228.54V2.28569C228.54 1.02606 229.566 0 230.826 0C232.085 0 233.111 1.02606 233.111 2.28569V6.85708Z" fill="#1A2E35"/>
<g opacity="0.5">
<path d="M118.668 6.85708H114.097V2.28569C114.097 1.02606 115.123 0 116.382 0C117.642 0 118.668 1.02606 118.668 2.28569V6.85708Z" fill="#6D9256"/>
<path d="M233.111 6.85708H228.54V2.28569C228.54 1.02606 229.566 0 230.826 0C232.085 0 233.111 1.02606 233.111 2.28569V6.85708Z" fill="#6D9256"/>
</g>
<path d="M247.686 93.0042H99.5242C96.9215 93.0042 94.8193 90.8937 94.8193 88.2994V11.0613C94.8193 8.45862 96.9298 6.35645 99.5242 6.35645H247.694C250.297 6.35645 252.399 8.46696 252.399 11.0613V88.2994C252.399 90.8937 250.288 93.0042 247.686 93.0042Z" fill="#15D189"/>
<path opacity="0.8" d="M247.686 93.0042H99.5242C96.9215 93.0042 94.8193 90.8937 94.8193 88.2994V11.0613C94.8193 8.45862 96.9298 6.35645 99.5242 6.35645H247.694C250.297 6.35645 252.399 8.46696 252.399 11.0613V88.2994C252.399 90.8937 250.288 93.0042 247.686 93.0042Z" fill="#6D9256"/>
<path d="M247.244 95.2905H99.9752C95.871 95.2905 92.5342 91.9537 92.5342 87.8495V11.504C92.5342 7.39977 95.871 4.06299 99.9752 4.06299H247.244C251.348 4.06299 254.685 7.39977 254.685 11.504V87.8412C254.685 91.9537 251.34 95.2905 247.244 95.2905ZM99.9752 8.63437C98.3902 8.63437 97.1056 9.91903 97.1056 11.504V87.8412C97.1056 89.4261 98.3902 90.7108 99.9752 90.7108H247.244C248.829 90.7108 250.114 89.4261 250.114 87.8412V11.504C250.114 9.91903 248.829 8.63437 247.244 8.63437H99.9752Z" fill="#15D189"/>
<g opacity="0.4">
<path d="M247.244 95.2905H99.9752C95.871 95.2905 92.5342 91.9537 92.5342 87.8495V11.504C92.5342 7.39977 95.871 4.06299 99.9752 4.06299H247.244C251.348 4.06299 254.685 7.39977 254.685 11.504V87.8412C254.685 91.9537 251.34 95.2905 247.244 95.2905ZM99.9752 8.63437C98.3902 8.63437 97.1056 9.91903 97.1056 11.504V87.8412C97.1056 89.4261 98.3902 90.7108 99.9752 90.7108H247.244C248.829 90.7108 250.114 89.4261 250.114 87.8412V11.504C250.114 9.91903 248.829 8.63437 247.244 8.63437H99.9752Z" fill="#6D9256"/>
</g>
<path d="M143.794 23.6491C149.683 23.916 156.907 27.5364 158.392 33.8179C160.169 41.384 150.159 44.4622 144.528 44.6374C139.164 44.8042 130.038 42.8939 129.104 36.3789C128.036 28.9963 138.639 27.4196 143.802 27.3028C144.244 27.2945 144.244 26.6105 143.802 26.6188C138.43 26.7439 128.311 28.2622 128.286 35.528C128.269 43.0691 138.772 45.505 144.528 45.3298C150.225 45.1546 159.644 42.3434 159.276 35.0859C158.909 27.7199 150.192 23.257 143.794 22.965C143.352 22.94 143.352 23.624 143.794 23.6491Z" fill="white"/>
<path d="M125.75 63.0398C125.816 64.9834 126.017 66.9605 125.95 68.9042C125.933 69.4798 126.592 69.1377 125.608 69.1127C124.682 69.096 123.739 69.1794 122.813 69.2128C120.428 69.2962 118.042 69.3797 115.664 69.4631C114.755 69.4964 113.771 69.4297 112.87 69.5632C111.885 69.7133 112.544 69.8051 112.494 69.5131C112.111 67.461 112.344 65.0919 112.269 62.9981C112.261 62.6894 112.136 62.1972 112.227 61.8969C112.361 61.4548 111.685 62.1889 111.994 62.0471C112.469 61.8302 113.445 61.997 113.979 61.9803C117.992 61.8385 122.012 61.7051 126.025 61.5632C126.467 61.5466 126.467 60.8625 126.025 60.8792C121.303 61.046 116.59 61.2045 111.869 61.3714C111.685 61.3797 111.518 61.5215 111.527 61.7134C111.618 64.4496 111.719 67.1941 111.81 69.9302C111.819 70.1137 111.96 70.2806 112.152 70.2722C116.874 70.1054 121.587 69.9469 126.309 69.7801C126.492 69.7717 126.659 69.6299 126.651 69.438C126.576 67.3108 126.5 65.1753 126.434 63.0481C126.417 62.5977 125.733 62.5977 125.75 63.0398Z" fill="white"/>
<path d="M160.336 63.6072C160.428 66.2849 160.987 69.313 160.628 71.9658C160.486 73.0002 161.362 72.1493 159.994 72.4079C158.734 72.6498 157.283 72.4997 156.015 72.5414C152.62 72.6582 149.225 72.775 145.829 72.8917C144.528 72.9335 143.152 73.117 141.85 73.0252C140.407 72.9335 141.45 73.4757 141.166 72.8083C140.19 70.4976 140.933 66.0597 140.849 63.5321C140.816 62.5894 140.983 61.8053 140.616 62.0305C141.158 61.6969 142.776 61.9555 143.444 61.9304C149.166 61.7302 154.889 61.5384 160.611 61.3381C161.053 61.3215 161.053 60.6374 160.611 60.6541C153.888 60.8877 147.172 61.1213 140.449 61.3465C140.265 61.3548 140.098 61.4966 140.107 61.6885C140.24 65.5925 140.374 69.4966 140.507 73.3923C140.516 73.5758 140.657 73.7426 140.849 73.7343C147.573 73.5007 154.288 73.2671 161.012 73.0419C161.195 73.0336 161.362 72.8917 161.354 72.6999C161.245 69.6634 161.145 66.6269 161.037 63.5905C161.003 63.165 160.319 63.165 160.336 63.6072Z" fill="white"/>
<path d="M236.457 24.8505C236.515 26.6023 236.774 28.4542 236.64 30.1977C236.515 31.8744 237.383 30.6315 236.165 31.082C233.545 32.0496 229.116 31.3239 226.304 31.424C222 31.5741 217.704 31.7243 213.399 31.8661C211.931 31.9162 210.455 32.0246 208.987 32.0163C208.736 32.0163 208.094 32.1748 207.877 32.058C207.21 31.6742 208.353 32.8588 207.885 31.9495C207.251 30.7066 207.744 27.8787 207.694 26.4605C207.685 26.1102 207.385 24.4251 207.61 24.1331C207.435 24.3583 207.276 24.5836 207.819 24.3333C210.046 23.3073 214.717 24.0914 217.12 24.008C223.66 23.7828 230.192 23.5575 236.732 23.3323C237.174 23.3156 237.174 22.6316 236.732 22.6482C226.913 22.9903 217.087 23.3239 207.268 23.666C207.085 23.6743 206.918 23.8161 206.926 24.008C207.026 26.8109 207.118 29.6138 207.218 32.4167C207.226 32.6002 207.368 32.767 207.56 32.7587C217.379 32.4167 227.205 32.083 237.024 31.741C237.207 31.7326 237.374 31.5908 237.366 31.399C237.291 29.2217 237.216 27.0361 237.141 24.8589C237.124 24.4084 236.44 24.4084 236.457 24.8505Z" fill="white"/>
<path d="M241.912 35.9868C228.84 35.9868 215.776 35.9868 202.705 35.9952C202.263 35.9952 202.263 36.6792 202.705 36.6792C215.776 36.6792 228.84 36.6792 241.912 36.6709C242.354 36.6709 242.354 35.9868 241.912 35.9868Z" fill="white"/>
<path d="M238.459 43.5781C231.927 43.5781 225.387 43.5781 218.855 43.5865C218.413 43.5865 218.413 44.2705 218.855 44.2705C225.387 44.2705 231.927 44.2705 238.459 44.2622C238.901 44.2622 238.901 43.5781 238.459 43.5781Z" fill="white"/>
<path d="M233.111 46.6064C228.357 46.6064 223.61 46.6064 218.855 46.6148C218.413 46.6148 218.413 47.2988 218.855 47.2988C223.61 47.2988 228.357 47.2988 233.111 47.2905C233.554 47.2905 233.554 46.6064 233.111 46.6064Z" fill="white"/>
<path d="M155.973 34.2769C149.442 34.2769 142.901 34.2769 136.37 34.2852C135.928 34.2852 135.928 34.9692 136.37 34.9692C142.901 34.9692 149.442 34.9692 155.973 34.9609C156.415 34.9609 156.415 34.2769 155.973 34.2769Z" fill="white"/>
<path d="M150.626 37.3047C145.871 37.3047 141.125 37.3047 136.37 37.313C135.928 37.313 135.928 37.9971 136.37 37.9971C141.125 37.9971 145.871 37.9971 150.626 37.9887C151.068 37.9887 151.068 37.3047 150.626 37.3047Z" fill="white"/>
<path d="M238.341 54.7148C231.81 54.7148 225.27 54.7148 218.738 54.7232C218.296 54.7232 218.296 55.4072 218.738 55.4072C225.27 55.4072 231.81 55.4072 238.341 55.3989C238.784 55.3989 238.784 54.7148 238.341 54.7148Z" fill="white"/>
<path d="M228.54 69.5713C225.27 69.5713 222.008 69.5713 218.738 69.5796C218.296 69.5796 218.296 70.2637 218.738 70.2637C222.008 70.2637 225.27 70.2637 228.54 70.2553C228.982 70.2553 228.982 69.5713 228.54 69.5713Z" fill="white"/>
<path d="M123.565 65.8511C120.295 65.8511 117.033 65.8511 113.763 65.8594C113.321 65.8594 113.321 66.5435 113.763 66.5435C117.033 66.5435 120.295 66.5435 123.565 66.5351C124.007 66.5351 124.007 65.8511 123.565 65.8511Z" fill="white"/>
<path d="M156.198 66.0262C152.319 66.3349 148.449 66.6352 144.57 66.9438C144.136 66.9772 144.128 67.6612 144.57 67.6279C148.449 67.3192 152.319 67.0189 156.198 66.7103C156.64 66.6769 156.64 65.9845 156.198 66.0262Z" fill="white"/>
<path d="M183.853 50.4268C180.282 50.4268 176.712 50.4268 173.133 50.4351C172.691 50.4351 172.691 51.1191 173.133 51.1191C176.704 51.1191 180.274 51.1191 183.853 51.1108C184.287 51.1108 184.295 50.4268 183.853 50.4268Z" fill="white"/>
<path d="M238.341 66.8608C231.81 66.8608 225.27 66.8608 218.738 66.8692C218.296 66.8692 218.296 67.5532 218.738 67.5532C225.27 67.5532 231.81 67.5532 238.341 67.5449C238.784 67.5449 238.784 66.8608 238.341 66.8608Z" fill="white"/>
<path d="M169.87 47.2906C169.779 49.9517 169.687 52.6044 169.595 55.2655C169.587 55.4573 169.754 55.5991 169.937 55.6075C175.826 55.8077 181.708 56.0162 187.597 56.2165C187.789 56.2248 187.931 56.058 187.939 55.8744C188.056 52.4542 188.173 49.0424 188.289 45.6222C188.298 45.4303 188.131 45.2885 187.947 45.2802C182.058 45.08 176.177 44.8714 170.287 44.6712C169.845 44.6545 169.845 45.3386 170.287 45.3552C175.301 45.5304 180.306 45.6973 185.32 45.8724C185.887 45.8891 187.23 45.6639 187.705 45.9559C188.189 46.2478 187.363 45.3219 187.597 45.8641C187.697 46.0893 187.597 46.7066 187.555 46.9736C187.146 49.6096 188.056 52.8213 187.263 55.3572C187.071 55.9745 187.947 55.4573 186.704 55.5074C185.653 55.5491 184.577 55.4323 183.526 55.3989C180.448 55.2905 177.37 55.1904 174.292 55.0819C173.132 55.0402 171.964 54.9818 170.805 54.9652C169.57 54.9401 170.362 55.3072 170.287 54.6231C170.054 52.2624 170.454 49.6847 170.538 47.3073C170.571 46.8568 169.887 46.8568 169.87 47.2906Z" fill="white"/>
<path d="M131.406 45.3964C126.785 48.1576 122.931 52.6956 121.196 57.7842C121.054 58.2013 121.713 58.3848 121.855 57.9677C123.523 53.0543 127.285 48.6581 131.748 45.9887C132.132 45.7635 131.79 45.1712 131.406 45.3964Z" fill="white"/>
<path d="M119.678 54.3141C119.986 56.0909 120.287 57.8677 120.595 59.6446C120.645 59.9198 120.988 59.9449 121.171 59.7947C122.639 58.5685 124.116 57.3505 125.584 56.1243C125.926 55.8406 125.434 55.3568 125.1 55.6404C123.632 56.8667 122.155 58.0846 120.687 59.3109C120.879 59.3609 121.071 59.411 121.263 59.461C120.954 57.6842 120.654 55.9074 120.345 54.1305C120.262 53.6968 119.603 53.8803 119.678 54.3141Z" fill="white"/>
<path d="M156.089 42.9607C160.077 44.5457 163.705 47.6489 165.707 51.4361C165.916 51.8282 166.508 51.4778 166.3 51.0941C164.206 47.1484 160.427 43.9618 156.273 42.31C155.864 42.1432 155.68 42.8022 156.089 42.9607Z" fill="white"/>
<path d="M166.417 48.0742C166.4 49.5674 166.392 51.0606 166.375 52.5538C166.55 52.4537 166.717 52.3536 166.892 52.2619C165.524 51.4527 164.164 50.6519 162.796 49.8427C162.412 49.6175 162.07 50.2097 162.454 50.435C163.822 51.2441 165.182 52.045 166.55 52.8541C166.775 52.9876 167.067 52.8124 167.067 52.5622C167.084 51.069 167.092 49.5758 167.109 48.0826C167.109 47.6321 166.425 47.6321 166.417 48.0742Z" fill="white"/>
<path d="M148.099 48.7003C148.699 51.5199 149.15 54.3812 149.542 57.2341C149.6 57.6679 150.259 57.4844 150.201 57.0506C149.8 54.1976 149.358 51.3363 148.758 48.5168C148.666 48.083 148.007 48.2665 148.099 48.7003Z" fill="white"/>
<path d="M150.867 54.965C150.492 56.0245 150.117 57.0839 149.741 58.135C149.933 58.0849 150.125 58.0349 150.317 57.9848C149.541 57.0756 148.765 56.1746 147.998 55.2653C147.714 54.9317 147.23 55.4155 147.514 55.7492C148.29 56.6585 149.065 57.5594 149.833 58.4687C150.016 58.6772 150.325 58.5437 150.409 58.3185C150.784 57.2591 151.159 56.1996 151.535 55.1486C151.677 54.7315 151.009 54.5563 150.867 54.965Z" fill="white"/>
<path d="M212.023 46.6065C210.005 46.6065 207.986 46.6065 205.967 46.6065C206.084 46.7233 206.192 46.8318 206.309 46.9486C206.309 44.9298 206.309 42.9111 206.309 40.8923C206.192 41.0091 206.084 41.1175 205.967 41.2343C207.986 41.2343 210.005 41.2343 212.023 41.2343C211.906 41.1175 211.798 41.0091 211.681 40.8923C211.681 42.9111 211.681 44.9298 211.681 46.9486C211.681 47.3907 212.365 47.3907 212.365 46.9486C212.365 44.9298 212.365 42.9111 212.365 40.8923C212.365 40.7088 212.207 40.5503 212.023 40.5503C210.005 40.5503 207.986 40.5503 205.967 40.5503C205.784 40.5503 205.625 40.7088 205.625 40.8923C205.625 42.9111 205.625 44.9298 205.625 46.9486C205.625 47.1321 205.784 47.2906 205.967 47.2906C207.986 47.2906 210.005 47.2906 212.023 47.2906C212.465 47.2906 212.465 46.6065 212.023 46.6065Z" fill="white"/>
<path d="M212.023 57.7428C210.005 57.7428 207.986 57.7428 205.967 57.7428C206.084 57.8596 206.192 57.968 206.309 58.0848C206.309 56.066 206.309 54.0473 206.309 52.0285C206.192 52.1453 206.084 52.2538 205.967 52.3706C207.986 52.3706 210.005 52.3706 212.023 52.3706C211.906 52.2538 211.798 52.1453 211.681 52.0285C211.681 54.0473 211.681 56.066 211.681 58.0848C211.681 58.5269 212.365 58.5269 212.365 58.0848C212.365 56.066 212.365 54.0473 212.365 52.0285C212.365 51.845 212.207 51.6865 212.023 51.6865C210.005 51.6865 207.986 51.6865 205.967 51.6865C205.784 51.6865 205.625 51.845 205.625 52.0285C205.625 54.0473 205.625 56.066 205.625 58.0848C205.625 58.2683 205.784 58.4268 205.967 58.4268C207.986 58.4268 210.005 58.4268 212.023 58.4268C212.465 58.4268 212.465 57.7428 212.023 57.7428Z" fill="white"/>
<path d="M212.023 68.8795C210.005 68.8795 207.986 68.8795 205.967 68.8795C206.084 68.9963 206.192 69.1047 206.309 69.2215C206.309 67.2028 206.309 65.184 206.309 63.1653C206.192 63.2821 206.084 63.3905 205.967 63.5073C207.986 63.5073 210.005 63.5073 212.023 63.5073C211.906 63.3905 211.798 63.2821 211.681 63.1653C211.681 65.184 211.681 67.2028 211.681 69.2215C211.681 69.6636 212.365 69.6636 212.365 69.2215C212.365 67.2028 212.365 65.184 212.365 63.1653C212.365 62.9817 212.207 62.8232 212.023 62.8232C210.005 62.8232 207.986 62.8232 205.967 62.8232C205.784 62.8232 205.625 62.9817 205.625 63.1653C205.625 65.184 205.625 67.2028 205.625 69.2215C205.625 69.405 205.784 69.5635 205.967 69.5635C207.986 69.5635 210.005 69.5635 212.023 69.5635C212.465 69.5635 212.465 68.8795 212.023 68.8795Z" fill="white"/>
<path d="M204.349 42.177C205.859 42.8527 207.252 43.8537 208.253 45.1801C208.386 45.3636 208.611 45.4137 208.795 45.2468C210.764 43.4533 213.225 41.6765 215.894 41.226C216.328 41.1509 216.144 40.4919 215.71 40.567C212.908 41.0425 211.097 42.9027 208.803 44.3375C208.053 44.8047 208.745 44.5461 208.495 44.3709C208.019 44.0289 207.644 43.47 207.168 43.0946C206.418 42.5023 205.575 41.9851 204.699 41.593C204.299 41.4095 203.948 42.0018 204.349 42.177Z" fill="white"/>
<path d="M204.349 53.8391C205.859 54.5148 207.252 55.5158 208.253 56.8422C208.386 57.0257 208.611 57.0758 208.795 56.9089C210.764 55.1154 213.225 53.3386 215.894 52.8881C216.328 52.813 216.144 52.154 215.71 52.2291C212.908 52.7046 211.097 54.5648 208.803 55.9997C208.053 56.4668 208.745 56.2082 208.495 56.033C208.019 55.691 207.644 55.1321 207.168 54.7567C206.418 54.1644 205.575 53.6472 204.699 53.2552C204.299 53.0633 203.948 53.6556 204.349 53.8391Z" fill="white"/>
<path d="M204.349 64.4582C205.859 65.1339 207.252 66.135 208.253 67.4613C208.386 67.6449 208.611 67.6949 208.795 67.5281C210.764 65.7345 213.225 63.9577 215.894 63.5072C216.328 63.4322 216.144 62.7732 215.71 62.8482C212.908 63.3237 211.097 65.184 208.803 66.6188C208.053 67.0859 208.745 66.8273 208.495 66.6522C208.019 66.3101 207.644 65.7512 207.168 65.3758C206.418 64.7836 205.575 64.2664 204.699 63.8743C204.299 63.6824 203.948 64.2747 204.349 64.4582Z" fill="white"/>
<g opacity="0.3">
<path d="M143.794 23.6491C149.683 23.916 156.907 27.5364 158.392 33.8179C160.169 41.384 150.159 44.4622 144.528 44.6374C139.164 44.8042 130.038 42.8939 129.104 36.3789C128.036 28.9963 138.639 27.4196 143.802 27.3028C144.244 27.2945 144.244 26.6105 143.802 26.6188C138.43 26.7439 128.311 28.2622 128.286 35.528C128.269 43.0691 138.772 45.505 144.528 45.3298C150.225 45.1546 159.644 42.3434 159.276 35.0859C158.909 27.7199 150.192 23.257 143.794 22.965C143.352 22.94 143.352 23.624 143.794 23.6491Z" fill="white"/>
</g>
<g opacity="0.3">
<path d="M125.75 63.0398C125.816 64.9834 126.017 66.9605 125.95 68.9042C125.933 69.4798 126.592 69.1377 125.608 69.1127C124.682 69.096 123.739 69.1794 122.813 69.2128C120.428 69.2962 118.042 69.3797 115.664 69.4631C114.755 69.4964 113.771 69.4297 112.87 69.5632C111.885 69.7133 112.544 69.8051 112.494 69.5131C112.111 67.461 112.344 65.0919 112.269 62.9981C112.261 62.6894 112.136 62.1972 112.227 61.8969C112.361 61.4548 111.685 62.1889 111.994 62.0471C112.469 61.8302 113.445 61.997 113.979 61.9803C117.992 61.8385 122.012 61.7051 126.025 61.5632C126.467 61.5466 126.467 60.8625 126.025 60.8792C121.303 61.046 116.59 61.2045 111.869 61.3714C111.685 61.3797 111.518 61.5215 111.527 61.7134C111.618 64.4496 111.719 67.1941 111.81 69.9302C111.819 70.1137 111.96 70.2806 112.152 70.2722C116.874 70.1054 121.587 69.9469 126.309 69.7801C126.492 69.7717 126.659 69.6299 126.651 69.438C126.576 67.3108 126.5 65.1753 126.434 63.0481C126.417 62.5977 125.733 62.5977 125.75 63.0398Z" fill="white"/>
</g>
<g opacity="0.3">
<path d="M160.336 63.6072C160.428 66.2849 160.987 69.313 160.628 71.9658C160.486 73.0002 161.362 72.1493 159.994 72.4079C158.734 72.6498 157.283 72.4997 156.015 72.5414C152.62 72.6582 149.225 72.775 145.829 72.8917C144.528 72.9335 143.152 73.117 141.85 73.0252C140.407 72.9335 141.45 73.4757 141.166 72.8083C140.19 70.4976 140.933 66.0597 140.849 63.5321C140.816 62.5894 140.983 61.8053 140.616 62.0305C141.158 61.6969 142.776 61.9555 143.444 61.9304C149.166 61.7302 154.889 61.5384 160.611 61.3381C161.053 61.3215 161.053 60.6374 160.611 60.6541C153.888 60.8877 147.172 61.1213 140.449 61.3465C140.265 61.3548 140.098 61.4966 140.107 61.6885C140.24 65.5925 140.374 69.4966 140.507 73.3923C140.516 73.5758 140.657 73.7426 140.849 73.7343C147.573 73.5007 154.288 73.2671 161.012 73.0419C161.195 73.0336 161.362 72.8917 161.354 72.6999C161.245 69.6634 161.145 66.6269 161.037 63.5905C161.003 63.165 160.319 63.165 160.336 63.6072Z" fill="white"/>
</g>
<g opacity="0.3">
<path d="M236.457 24.8505C236.515 26.6023 236.774 28.4542 236.64 30.1977C236.515 31.8744 237.383 30.6315 236.165 31.082C233.545 32.0496 229.116 31.3239 226.304 31.424C222 31.5741 217.704 31.7243 213.399 31.8661C211.931 31.9162 210.455 32.0246 208.987 32.0163C208.736 32.0163 208.094 32.1748 207.877 32.058C207.21 31.6742 208.353 32.8588 207.885 31.9495C207.251 30.7066 207.744 27.8787 207.694 26.4605C207.685 26.1102 207.385 24.4251 207.61 24.1331C207.435 24.3583 207.276 24.5836 207.819 24.3333C210.046 23.3073 214.717 24.0914 217.12 24.008C223.66 23.7828 230.192 23.5575 236.732 23.3323C237.174 23.3156 237.174 22.6316 236.732 22.6482C226.913 22.9903 217.087 23.3239 207.268 23.666C207.085 23.6743 206.918 23.8161 206.926 24.008C207.026 26.8109 207.118 29.6138 207.218 32.4167C207.226 32.6002 207.368 32.767 207.56 32.7587C217.379 32.4167 227.205 32.083 237.024 31.741C237.207 31.7326 237.374 31.5908 237.366 31.399C237.291 29.2217 237.216 27.0361 237.141 24.8589C237.124 24.4084 236.44 24.4084 236.457 24.8505Z" fill="white"/>
</g>
<g opacity="0.3">
<path d="M241.912 35.9868C228.84 35.9868 215.776 35.9868 202.705 35.9952C202.263 35.9952 202.263 36.6792 202.705 36.6792C215.776 36.6792 228.84 36.6792 241.912 36.6709C242.354 36.6709 242.354 35.9868 241.912 35.9868Z" fill="white"/>
</g>
<g opacity="0.3">
<path d="M238.459 43.5781C231.927 43.5781 225.387 43.5781 218.855 43.5865C218.413 43.5865 218.413 44.2705 218.855 44.2705C225.387 44.2705 231.927 44.2705 238.459 44.2622C238.901 44.2622 238.901 43.5781 238.459 43.5781Z" fill="white"/>
</g>
<g opacity="0.3">
<path d="M233.111 46.6064C228.357 46.6064 223.61 46.6064 218.855 46.6148C218.413 46.6148 218.413 47.2988 218.855 47.2988C223.61 47.2988 228.357 47.2988 233.111 47.2905C233.554 47.2905 233.554 46.6064 233.111 46.6064Z" fill="white"/>
</g>
<g opacity="0.3">
<path d="M155.973 34.2769C149.442 34.2769 142.901 34.2769 136.37 34.2852C135.928 34.2852 135.928 34.9692 136.37 34.9692C142.901 34.9692 149.442 34.9692 155.973 34.9609C156.415 34.9609 156.415 34.2769 155.973 34.2769Z" fill="white"/>
</g>
<g opacity="0.3">
<path d="M150.626 37.3047C145.871 37.3047 141.125 37.3047 136.37 37.313C135.928 37.313 135.928 37.9971 136.37 37.9971C141.125 37.9971 145.871 37.9971 150.626 37.9887C151.068 37.9887 151.068 37.3047 150.626 37.3047Z" fill="white"/>
</g>
<g opacity="0.3">
<path d="M238.341 54.7148C231.81 54.7148 225.27 54.7148 218.738 54.7232C218.296 54.7232 218.296 55.4072 218.738 55.4072C225.27 55.4072 231.81 55.4072 238.341 55.3989C238.784 55.3989 238.784 54.7148 238.341 54.7148Z" fill="white"/>
</g>
<g opacity="0.3">
<path d="M228.54 69.5713C225.27 69.5713 222.008 69.5713 218.738 69.5796C218.296 69.5796 218.296 70.2637 218.738 70.2637C222.008 70.2637 225.27 70.2637 228.54 70.2553C228.982 70.2553 228.982 69.5713 228.54 69.5713Z" fill="white"/>
</g>
<g opacity="0.3">
<path d="M123.565 65.8511C120.295 65.8511 117.033 65.8511 113.763 65.8594C113.321 65.8594 113.321 66.5435 113.763 66.5435C117.033 66.5435 120.295 66.5435 123.565 66.5351C124.007 66.5351 124.007 65.8511 123.565 65.8511Z" fill="white"/>
</g>
<g opacity="0.3">
<path d="M156.198 66.0262C152.319 66.3349 148.449 66.6352 144.57 66.9438C144.136 66.9772 144.128 67.6612 144.57 67.6279C148.449 67.3192 152.319 67.0189 156.198 66.7103C156.64 66.6769 156.64 65.9845 156.198 66.0262Z" fill="white"/>
</g>
<g opacity="0.3">
<path d="M183.853 50.4268C180.282 50.4268 176.712 50.4268 173.133 50.4351C172.691 50.4351 172.691 51.1191 173.133 51.1191C176.704 51.1191 180.274 51.1191 183.853 51.1108C184.287 51.1108 184.295 50.4268 183.853 50.4268Z" fill="white"/>
</g>
<g opacity="0.3">
<path d="M238.341 66.8608C231.81 66.8608 225.27 66.8608 218.738 66.8692C218.296 66.8692 218.296 67.5532 218.738 67.5532C225.27 67.5532 231.81 67.5532 238.341 67.5449C238.784 67.5449 238.784 66.8608 238.341 66.8608Z" fill="white"/>
</g>
<g opacity="0.3">
<path d="M169.87 47.2906C169.779 49.9517 169.687 52.6044 169.595 55.2655C169.587 55.4573 169.754 55.5991 169.937 55.6075C175.826 55.8077 181.708 56.0162 187.597 56.2165C187.789 56.2248 187.931 56.058 187.939 55.8744C188.056 52.4542 188.173 49.0424 188.289 45.6222C188.298 45.4303 188.131 45.2885 187.947 45.2802C182.058 45.08 176.177 44.8714 170.287 44.6712C169.845 44.6545 169.845 45.3386 170.287 45.3552C175.301 45.5304 180.306 45.6973 185.32 45.8724C185.887 45.8891 187.23 45.6639 187.705 45.9559C188.189 46.2478 187.363 45.3219 187.597 45.8641C187.697 46.0893 187.597 46.7066 187.555 46.9736C187.146 49.6096 188.056 52.8213 187.263 55.3572C187.071 55.9745 187.947 55.4573 186.704 55.5074C185.653 55.5491 184.577 55.4323 183.526 55.3989C180.448 55.2905 177.37 55.1904 174.292 55.0819C173.132 55.0402 171.964 54.9818 170.805 54.9652C169.57 54.9401 170.362 55.3072 170.287 54.6231C170.054 52.2624 170.454 49.6847 170.538 47.3073C170.571 46.8568 169.887 46.8568 169.87 47.2906Z" fill="white"/>
</g>
<g opacity="0.3">
<path d="M131.406 45.3964C126.785 48.1576 122.931 52.6956 121.196 57.7842C121.054 58.2013 121.713 58.3848 121.855 57.9677C123.523 53.0543 127.285 48.6581 131.748 45.9887C132.132 45.7635 131.79 45.1712 131.406 45.3964Z" fill="white"/>
</g>
<g opacity="0.3">
<path d="M119.678 54.3141C119.986 56.0909 120.287 57.8677 120.595 59.6446C120.645 59.9198 120.988 59.9449 121.171 59.7947C122.639 58.5685 124.116 57.3505 125.584 56.1243C125.926 55.8406 125.434 55.3568 125.1 55.6404C123.632 56.8667 122.155 58.0846 120.687 59.3109C120.879 59.3609 121.071 59.411 121.263 59.461C120.954 57.6842 120.654 55.9074 120.345 54.1305C120.262 53.6968 119.603 53.8803 119.678 54.3141Z" fill="white"/>
</g>
<g opacity="0.3">
<path d="M156.089 42.9607C160.077 44.5457 163.705 47.6489 165.707 51.4361C165.916 51.8282 166.508 51.4778 166.3 51.0941C164.206 47.1484 160.427 43.9618 156.273 42.31C155.864 42.1432 155.68 42.8022 156.089 42.9607Z" fill="white"/>
</g>
<g opacity="0.3">
<path d="M166.417 48.0742C166.4 49.5674 166.392 51.0606 166.375 52.5538C166.55 52.4537 166.717 52.3536 166.892 52.2619C165.524 51.4527 164.164 50.6519 162.796 49.8427C162.412 49.6175 162.07 50.2097 162.454 50.435C163.822 51.2441 165.182 52.045 166.55 52.8541C166.775 52.9876 167.067 52.8124 167.067 52.5622C167.084 51.069 167.092 49.5758 167.109 48.0826C167.109 47.6321 166.425 47.6321 166.417 48.0742Z" fill="white"/>
</g>
<g opacity="0.3">
<path d="M148.099 48.7003C148.699 51.5199 149.15 54.3812 149.542 57.2341C149.6 57.6679 150.259 57.4844 150.201 57.0506C149.8 54.1976 149.358 51.3363 148.758 48.5168C148.666 48.083 148.007 48.2665 148.099 48.7003Z" fill="white"/>
</g>
<g opacity="0.3">
<path d="M150.867 54.965C150.492 56.0245 150.117 57.0839 149.741 58.135C149.933 58.0849 150.125 58.0349 150.317 57.9848C149.541 57.0756 148.765 56.1746 147.998 55.2653C147.714 54.9317 147.23 55.4155 147.514 55.7492C148.29 56.6585 149.065 57.5594 149.833 58.4687C150.016 58.6772 150.325 58.5437 150.409 58.3185C150.784 57.2591 151.159 56.1996 151.535 55.1486C151.677 54.7315 151.009 54.5563 150.867 54.965Z" fill="white"/>
</g>
<g opacity="0.3">
<path d="M212.023 46.6065C210.005 46.6065 207.986 46.6065 205.967 46.6065C206.084 46.7233 206.192 46.8318 206.309 46.9486C206.309 44.9298 206.309 42.9111 206.309 40.8923C206.192 41.0091 206.084 41.1175 205.967 41.2343C207.986 41.2343 210.005 41.2343 212.023 41.2343C211.906 41.1175 211.798 41.0091 211.681 40.8923C211.681 42.9111 211.681 44.9298 211.681 46.9486C211.681 47.3907 212.365 47.3907 212.365 46.9486C212.365 44.9298 212.365 42.9111 212.365 40.8923C212.365 40.7088 212.207 40.5503 212.023 40.5503C210.005 40.5503 207.986 40.5503 205.967 40.5503C205.784 40.5503 205.625 40.7088 205.625 40.8923C205.625 42.9111 205.625 44.9298 205.625 46.9486C205.625 47.1321 205.784 47.2906 205.967 47.2906C207.986 47.2906 210.005 47.2906 212.023 47.2906C212.465 47.2906 212.465 46.6065 212.023 46.6065Z" fill="white"/>
</g>
<g opacity="0.3">
<path d="M212.023 57.7428C210.005 57.7428 207.986 57.7428 205.967 57.7428C206.084 57.8596 206.192 57.968 206.309 58.0848C206.309 56.066 206.309 54.0473 206.309 52.0285C206.192 52.1453 206.084 52.2538 205.967 52.3706C207.986 52.3706 210.005 52.3706 212.023 52.3706C211.906 52.2538 211.798 52.1453 211.681 52.0285C211.681 54.0473 211.681 56.066 211.681 58.0848C211.681 58.5269 212.365 58.5269 212.365 58.0848C212.365 56.066 212.365 54.0473 212.365 52.0285C212.365 51.845 212.207 51.6865 212.023 51.6865C210.005 51.6865 207.986 51.6865 205.967 51.6865C205.784 51.6865 205.625 51.845 205.625 52.0285C205.625 54.0473 205.625 56.066 205.625 58.0848C205.625 58.2683 205.784 58.4268 205.967 58.4268C207.986 58.4268 210.005 58.4268 212.023 58.4268C212.465 58.4268 212.465 57.7428 212.023 57.7428Z" fill="white"/>
</g>
<g opacity="0.3">
<path d="M212.023 68.8795C210.005 68.8795 207.986 68.8795 205.967 68.8795C206.084 68.9963 206.192 69.1047 206.309 69.2215C206.309 67.2028 206.309 65.184 206.309 63.1653C206.192 63.2821 206.084 63.3905 205.967 63.5073C207.986 63.5073 210.005 63.5073 212.023 63.5073C211.906 63.3905 211.798 63.2821 211.681 63.1653C211.681 65.184 211.681 67.2028 211.681 69.2215C211.681 69.6636 212.365 69.6636 212.365 69.2215C212.365 67.2028 212.365 65.184 212.365 63.1653C212.365 62.9817 212.207 62.8232 212.023 62.8232C210.005 62.8232 207.986 62.8232 205.967 62.8232C205.784 62.8232 205.625 62.9817 205.625 63.1653C205.625 65.184 205.625 67.2028 205.625 69.2215C205.625 69.405 205.784 69.5635 205.967 69.5635C207.986 69.5635 210.005 69.5635 212.023 69.5635C212.465 69.5635 212.465 68.8795 212.023 68.8795Z" fill="white"/>
</g>
<g opacity="0.3">
<path d="M204.349 42.177C205.859 42.8527 207.252 43.8537 208.253 45.1801C208.386 45.3636 208.611 45.4137 208.795 45.2468C210.764 43.4533 213.225 41.6765 215.894 41.226C216.328 41.1509 216.144 40.4919 215.71 40.567C212.908 41.0425 211.097 42.9027 208.803 44.3375C208.053 44.8047 208.745 44.5461 208.495 44.3709C208.019 44.0289 207.644 43.47 207.168 43.0946C206.418 42.5023 205.575 41.9851 204.699 41.593C204.299 41.4095 203.948 42.0018 204.349 42.177Z" fill="white"/>
</g>
<g opacity="0.3">
<path d="M204.349 53.8391C205.859 54.5148 207.252 55.5158 208.253 56.8422C208.386 57.0257 208.611 57.0758 208.795 56.9089C210.764 55.1154 213.225 53.3386 215.894 52.8881C216.328 52.813 216.144 52.154 215.71 52.2291C212.908 52.7046 211.097 54.5648 208.803 55.9997C208.053 56.4668 208.745 56.2082 208.495 56.033C208.019 55.691 207.644 55.1321 207.168 54.7567C206.418 54.1644 205.575 53.6472 204.699 53.2552C204.299 53.0633 203.948 53.6556 204.349 53.8391Z" fill="white"/>
</g>
<g opacity="0.3">
<path d="M204.349 64.4582C205.859 65.1339 207.252 66.135 208.253 67.4613C208.386 67.6449 208.611 67.6949 208.795 67.5281C210.764 65.7345 213.225 63.9577 215.894 63.5072C216.328 63.4322 216.144 62.7732 215.71 62.8482C212.908 63.3237 211.097 65.184 208.803 66.6188C208.053 67.0859 208.745 66.8273 208.495 66.6522C208.019 66.3101 207.644 65.7512 207.168 65.3758C206.418 64.7836 205.575 64.2664 204.699 63.8743C204.299 63.6824 203.948 64.2747 204.349 64.4582Z" fill="white"/>
</g>
<path d="M222.158 227.927C222.158 243.977 249.161 247.898 282.479 247.898C315.797 247.898 329.169 243.977 329.169 227.927C329.169 211.878 319.767 192.366 286.45 192.366C253.132 192.366 222.158 211.878 222.158 227.927Z" fill="#15D189"/>
<path opacity="0.5" d="M222.158 227.927C222.158 243.977 249.161 247.898 282.479 247.898C315.797 247.898 329.169 243.977 329.169 227.927C329.169 211.878 319.767 192.366 286.45 192.366C253.132 192.366 222.158 211.878 222.158 227.927Z" fill="#6D9256"/>
<path d="M217.795 205.438C216.569 227.511 222.675 239.423 236.581 240.199C250.496 240.974 262.767 223.707 263.993 201.634C265.219 179.561 251.205 162.66 237.29 161.884C223.384 161.109 219.021 183.365 217.795 205.438Z" fill="#15D189"/>
<path opacity="0.5" d="M217.795 205.438C216.569 227.511 222.675 239.423 236.581 240.199C250.496 240.974 262.767 223.707 263.993 201.634C265.219 179.561 251.205 162.66 237.29 161.884C223.384 161.109 219.021 183.365 217.795 205.438Z" fill="#6D9256"/>
<path d="M285.757 194.26C285.757 194.26 298.704 192.616 299.846 197.188C300.989 201.759 278.491 199.24 273.978 203.811C269.465 208.383 288.651 210.727 284.472 213.463C281.194 215.607 269.991 205.872 255.676 209.525C241.361 213.179 239.326 202.385 240.911 192.366C242.504 182.347 243.663 171.57 247.993 172.387C252.331 173.205 266.412 192.933 285.757 194.26Z" fill="#00613E"/>
<path d="M245.49 210.626C245.49 210.626 232.093 208.274 231.351 213.879C230.616 219.485 229.599 211.185 245.49 210.626Z" fill="#00613E"/>
<path d="M223.893 234.309C220.131 229.896 218.087 223.056 217.712 213.888C219.439 231.34 229.566 242.651 270.024 244.47C310.566 246.297 319.484 234.192 323.821 235.636C325.64 236.245 325.648 237.913 325.048 239.648C318.866 246.038 305.386 247.898 282.462 247.898C254.116 247.898 230.35 245.054 223.893 234.309Z" fill="#00613E"/>
<path d="M293.49 159.624C293.49 159.624 291.596 159.924 290.487 161.059C289.369 162.193 286.082 162.077 286.082 162.077L285.757 165.797L293.256 165.363L293.49 159.624Z" fill="#C95B51"/>
<path d="M263.284 137.409C264.26 137.351 268.006 139.311 270.266 149.188C272.527 159.073 272.026 162.385 289.545 161.259L288.977 166.181C288.977 166.181 273.795 167.808 269.257 164.17C264.744 160.55 259.664 137.618 263.284 137.409Z" fill="#1A2E35"/>
<path d="M268.322 149.564L269.173 151.074C269.173 151.074 268.23 160.383 270.024 164.68C269.74 164.521 269.482 164.354 269.248 164.171C268.03 163.195 266.779 160.809 265.661 157.856L268.322 149.564Z" fill="#00613E"/>
<path d="M243.305 119.257C243.305 119.257 243.18 122.135 241.837 122.727C240.494 123.32 242.821 126.623 242.17 128.642C241.52 130.661 240.027 132.479 241.628 135.182C241.628 135.182 241.286 132.93 242.421 131.586C242.421 131.586 241.945 135.374 243.171 135.449C244.398 135.532 244.64 134.423 246.65 134.898C248.66 135.365 246.884 131.812 246.884 131.812C246.884 131.812 247.693 132.346 248.235 134.239C248.777 136.133 254.099 133.947 256.26 134.723C258.421 135.499 259.03 131.503 259.03 131.503C259.03 131.503 259.997 133.88 259.213 134.69C259.213 134.69 260.915 134.206 261.107 131.937C261.107 131.937 261.607 132.621 261.349 134.064C261.349 134.064 262.992 133.947 262.583 130.761C262.174 127.582 259.689 126.665 259.046 124.145C258.404 121.618 250.454 116.738 250.454 116.738L243.305 119.257Z" fill="#1A2E35"/>
<path d="M247.583 128.968L254.357 133.381C254.332 138.136 257.769 137.885 257.769 137.885C257.769 137.885 257.827 139.545 253.681 140.154C249.535 140.763 248.109 140.605 248.109 140.605C250.177 138.136 248.609 132.204 247.583 128.968Z" fill="#C95B51"/>
<path d="M254.825 135.958C254.541 135.324 254.35 134.49 254.358 133.38L248.31 129.443L247.935 130.119C247.935 130.119 250.229 136.225 254.825 135.958Z" fill="#00613E"/>
<path d="M245.624 121.71C246.316 127.241 246.483 129.593 249.461 132.263C253.94 136.283 260.581 134.231 261.557 128.609C262.441 123.545 261.165 115.362 255.6 113.493C251.63 112.133 247.317 114.252 245.957 118.223C245.582 119.349 245.465 120.542 245.624 121.71Z" fill="#C95B51"/>
<path d="M257.845 124.972C258.312 125.981 258.912 126.915 259.63 127.758C259.188 128.125 258.604 128.275 258.045 128.167L257.845 124.972Z" fill="#B6221F"/>
<path d="M252.972 122.085C252.931 122.077 252.897 122.06 252.864 122.044C252.772 121.969 252.755 121.827 252.83 121.735C253.339 121.068 254.14 120.684 254.983 120.717C255.1 120.734 255.191 120.842 255.183 120.959C255.175 121.076 255.066 121.168 254.949 121.159C254.257 121.143 253.598 121.468 253.181 122.019C253.122 122.069 253.047 122.102 252.972 122.085Z" fill="#263237"/>
<path d="M261.173 121.209C261.131 121.201 261.098 121.184 261.064 121.168C260.522 120.742 259.805 120.592 259.146 120.784C259.029 120.826 258.904 120.767 258.862 120.659C258.82 120.542 258.887 120.417 258.996 120.375C259.805 120.141 260.672 120.3 261.34 120.826C261.44 120.892 261.465 121.034 261.398 121.134C261.34 121.193 261.256 121.226 261.173 121.209Z" fill="#263237"/>
<path d="M254.608 124.421C254.633 124.872 254.9 125.222 255.201 125.205C255.501 125.189 255.71 124.813 255.676 124.355C255.643 123.896 255.384 123.554 255.092 123.57C254.8 123.587 254.583 123.971 254.608 124.421Z" fill="#263237"/>
<path d="M259.713 124.104C259.738 124.554 260.005 124.905 260.297 124.888C260.589 124.871 260.806 124.488 260.781 124.037C260.756 123.578 260.489 123.236 260.197 123.253C259.905 123.27 259.68 123.645 259.713 124.104Z" fill="#263237"/>
<path d="M260.073 123.287L261.141 122.911C261.133 122.903 260.632 123.787 260.073 123.287Z" fill="#263237"/>
<path d="M254.967 123.603L256.035 123.228C256.026 123.228 255.526 124.104 254.967 123.603Z" fill="#263237"/>
<path d="M255.167 128.951C255.051 128.817 254.942 128.667 254.842 128.509C254.809 128.459 254.825 128.392 254.867 128.359C254.917 128.334 254.984 128.35 255.017 128.4C255.493 129.201 256.327 129.718 257.253 129.81C257.311 129.81 257.361 129.86 257.361 129.919C257.361 129.977 257.311 130.027 257.253 130.027C256.444 129.96 255.684 129.577 255.167 128.951Z" fill="#1A2E35"/>
<path d="M255.709 113.877C255.709 113.877 258.679 117.172 255.442 118.49C252.205 119.808 249.294 121.752 248.819 124.48C248.343 127.208 245.707 127.291 245.707 127.291C245.707 127.291 241.428 121.869 244.189 116.171C246.95 110.465 254.575 111.884 255.709 113.877Z" fill="#1A2E35"/>
<path d="M247.125 114.736C247.125 114.736 250.695 109.205 256.685 111.883C262.674 114.561 262.933 119.099 261.431 118.648C259.922 118.198 257.536 117.747 255.817 114.652C254.107 111.558 247.125 114.736 247.125 114.736Z" fill="#1A2E35"/>
<path d="M248.001 125.139C248.001 125.139 250.954 124.972 249.544 128.851C249.544 128.859 249.327 126.398 248.001 125.139Z" fill="#1A2E35"/>
<path d="M244.581 126.181C244.956 127.19 245.715 128.016 246.691 128.467C247.993 129.051 248.86 127.941 248.677 126.607C248.518 125.405 247.642 123.645 246.249 123.62C245.232 123.637 244.422 124.471 244.431 125.48C244.439 125.722 244.489 125.964 244.581 126.181Z" fill="#C95B51"/>
<path d="M286.891 172.371L271.108 170.185C270.774 170.135 270.583 169.776 270.741 169.476L280.543 150.39C280.81 149.864 281.385 149.564 281.969 149.647L297.752 151.833C298.086 151.883 298.278 152.241 298.119 152.542L288.318 171.628C288.051 172.154 287.475 172.454 286.891 172.371Z" fill="#1A2E35"/>
<path opacity="0.5" d="M286.891 172.371L271.108 170.185C270.774 170.135 270.583 169.776 270.741 169.476L280.543 150.39C280.81 149.864 281.385 149.564 281.969 149.647L297.752 151.833C298.086 151.883 298.278 152.241 298.119 152.542L288.318 171.628C288.051 172.154 287.475 172.454 286.891 172.371Z" fill="#6D9256"/>
<path d="M287.509 172.454L271.726 170.268C271.393 170.218 271.201 169.86 271.359 169.559L281.161 150.473C281.428 149.947 282.004 149.647 282.587 149.731L298.37 151.916C298.704 151.966 298.896 152.325 298.737 152.625L288.936 171.712C288.669 172.237 288.093 172.537 287.509 172.454Z" fill="#1A2E35"/>
<path opacity="0.7" d="M287.509 172.454L271.726 170.268C271.393 170.218 271.201 169.86 271.359 169.559L281.161 150.473C281.428 149.947 282.004 149.647 282.587 149.731L298.37 151.916C298.704 151.966 298.896 152.325 298.737 152.625L288.936 171.712C288.669 172.237 288.093 172.537 287.509 172.454Z" fill="#6D9256"/>
<path opacity="0.7" d="M296.209 155.219L294.391 154.969C294.349 154.961 294.332 154.919 294.349 154.886L295.475 152.683C295.509 152.625 295.575 152.592 295.642 152.6L297.461 152.85C297.502 152.859 297.519 152.9 297.502 152.934L296.376 155.136C296.343 155.194 296.276 155.236 296.209 155.219Z" fill="#1A2E35"/>
<path opacity="0.3" d="M296.209 155.219L294.391 154.969C294.349 154.961 294.332 154.919 294.349 154.886L295.475 152.683C295.509 152.625 295.575 152.592 295.642 152.6L297.461 152.85C297.502 152.859 297.519 152.9 297.502 152.934L296.376 155.136C296.343 155.194 296.276 155.236 296.209 155.219Z" fill="#6D9256"/>
<path d="M286.383 161.284C286.116 162.027 285.498 162.577 285.006 162.511C284.514 162.444 284.331 161.785 284.606 161.034C284.873 160.292 285.49 159.741 285.982 159.808C286.474 159.874 286.65 160.533 286.383 161.284Z" fill="white"/>
<path d="M302.357 232.241L305.361 244.537L309.665 243.01L308.389 230.522L302.357 232.241Z" fill="#C95B51"/>
<path d="M310.008 242.309L304.794 242.409C304.569 242.418 304.377 242.576 304.327 242.793L303.334 247.682C303.242 248.115 303.518 248.541 303.951 248.633C304.01 248.641 304.06 248.649 304.118 248.649C306.279 248.574 308.189 248.416 310.883 248.374C314.053 248.316 313.261 248.708 316.99 248.691C319.234 248.683 319.601 246.122 318.65 246.013C314.279 245.546 313.027 244.253 311.317 242.718C310.942 242.434 310.475 242.284 310.008 242.309Z" fill="#1A2E35"/>
<path d="M309.131 237.763L308.389 230.522L302.357 232.241L304.093 239.348L309.131 237.763Z" fill="#00613E"/>
<path d="M260.623 172.688L267.505 170.035C267.505 170.035 271.126 174.031 273.37 178.786C275.614 183.541 264.802 183.541 264.802 183.541L261.399 177.151L260.623 172.688Z" fill="#15D189"/>
<path d="M260.623 172.688L267.505 170.035C267.505 170.035 271.126 174.031 273.37 178.786C275.614 183.541 264.802 183.541 264.802 183.541L261.399 177.151L260.623 172.688Z" fill="#00613E"/>
<path d="M264.619 171.153C266.571 181.922 270.058 179.995 270.058 179.995L268.531 182.248L264.394 182.773L261.399 177.151L260.623 172.688L264.619 171.153Z" fill="#00613E"/>
<path d="M325.307 209.901L334.933 221.388L338.32 218.835L329.87 206.063L325.307 209.901Z" fill="#C95B51"/>
<path d="M336.609 215.64L332.472 218.852C332.288 218.985 332.222 219.227 332.313 219.436L334.274 224.024C334.449 224.433 334.916 224.625 335.325 224.449C335.375 224.424 335.425 224.399 335.475 224.366C337.21 223.073 338.695 221.863 340.881 220.295C343.458 218.443 343.024 219.227 346.086 217.092C347.93 215.807 346.77 213.488 345.927 213.947C342.065 216.041 340.205 215.515 337.928 215.232C337.452 215.198 336.985 215.348 336.609 215.64Z" fill="#1A2E35"/>
<path d="M330.554 216.166L334.633 213.263L329.87 206.063L325.307 209.901L330.554 216.166Z" fill="#00613E"/>
<path d="M246.65 177.342C246.65 177.342 244.156 191.766 249.128 201.092C254.108 210.418 265.152 212.112 293.54 182.03C293.54 182.03 303.525 186.677 327.559 213.78L332.906 209.642C332.906 209.642 311.993 175.666 301.874 167.599C291.663 159.457 269.332 182.206 266.487 180.938C263.951 179.811 262.758 171.962 262.758 171.962L246.65 177.342Z" fill="#15D189"/>
<path d="M246.65 177.342C246.65 177.342 244.156 191.766 249.128 201.092C254.108 210.418 265.152 212.112 293.54 182.03C293.54 182.03 303.525 186.677 327.559 213.78L332.906 209.642C332.906 209.642 311.993 175.666 301.874 167.599C291.663 159.457 269.332 182.206 266.487 180.938C263.951 179.811 262.758 171.962 262.758 171.962L246.65 177.342Z" fill="#00613E"/>
<path d="M325.849 213.746L328.059 215.707L334.374 210.468L333.29 207.657L325.849 213.746Z" fill="#15D189"/>
<path d="M272.151 201.317C277.891 197.371 284.915 191.173 293.548 182.031C293.548 182.031 301.757 178.994 304.643 184.858C307.521 190.723 309.365 233.125 309.365 233.125L302.524 235.094C302.524 235.094 290.303 196.829 290.37 194.302L272.151 201.317Z" fill="#15D189"/>
<path d="M272.151 201.317C277.891 197.371 284.915 191.173 293.548 182.031C293.548 182.031 301.757 178.994 304.643 184.858C307.521 190.723 309.365 233.125 309.365 233.125L302.524 235.094C302.524 235.094 290.303 196.829 290.37 194.302L272.151 201.317Z" fill="#00613E"/>
<path d="M304.635 184.859C304.109 183.782 303.392 183.007 302.591 182.456C305.035 183.741 308.464 186.861 308.864 194.252C307.888 193.334 306.979 192.491 306.103 191.699C305.652 188.396 305.168 185.935 304.635 184.859Z" fill="#00613E"/>
<path d="M293.548 182.031C293.548 182.031 294.8 181.572 296.502 181.355C295.517 183.257 291.93 189.672 285.29 196.263L272.151 201.318C277.891 197.372 284.915 191.174 293.548 182.031Z" fill="#00613E"/>
<path d="M301.314 234.317L302.182 237.104L310.115 234.743L310.215 231.731L301.314 234.317Z" fill="#15D189"/>
<path d="M269.599 171.953C269.599 171.953 267.555 175.273 245.933 178.56C245.933 178.56 246.884 171.878 244.606 162.318C242.329 152.759 233.878 143.766 242.12 141.455C250.354 139.136 264.602 134.356 265.82 139.528C267.038 144.7 269.273 146.961 269.182 151.082C269.081 155.203 266.087 158.197 269.599 171.953Z" fill="#1A2E35"/>
<path d="M296.15 161.318C296.275 160.892 296.209 160.434 296.008 160.033C295.683 159.407 295.107 158.59 294.29 158.673C292.98 158.807 292.638 159.741 292.304 160.959C291.971 162.177 290.936 164.338 292.121 165.088C293.255 165.806 294.991 165.414 296.15 161.318Z" fill="#C95B51"/>
<path d="M246.909 140.112C246.909 140.112 258.413 140.771 257.737 137.501C257.737 137.501 255.501 136.475 255.935 135.257C256.369 134.04 250.446 135.299 248.135 134.965C247.184 134.832 247.793 136.058 247.727 137.385C247.652 138.703 246.909 140.112 246.909 140.112Z" fill="#1A2E35"/>
<path d="M245.09 164.571L253.499 164.463L256.36 162.51L259.597 161.076L260.022 162.219C260.022 162.219 249.978 173.906 246.091 172.88C245.999 170.636 245.724 167.799 245.09 164.571Z" fill="#00613E"/>
<path d="M252.214 162.169C252.214 162.169 248.985 163.153 248.435 160.8C247.642 157.422 245.282 148.012 242.887 144.4C240.276 140.454 245.423 159.316 245.423 159.316L246.566 163.286L248.368 165.731L252.264 162.969L252.214 162.169Z" fill="#00613E"/>
<path d="M258.103 138.978C258.103 138.978 258.504 141.18 249.861 140.988C249.853 140.988 259.938 143.391 258.103 138.978Z" fill="#00613E"/>
<path d="M266.161 157.364L266.044 156.421L265.394 156.813L266.161 157.364Z" fill="#1A2E35"/>
<path opacity="0.7" d="M266.161 157.364L266.044 156.421L265.394 156.813L266.161 157.364Z" fill="#6D9256"/>
<path d="M258.287 145.794L258.396 145.193L259.088 144.776L259.672 144.959L265.953 155.437L266.095 156.455L265.403 156.872L264.569 156.271L258.287 145.794Z" fill="#1A2E35"/>
<path opacity="0.6" d="M258.287 145.794L258.396 145.193L259.088 144.776L259.672 144.959L265.953 155.437L266.095 156.455L265.403 156.872L264.569 156.271L258.287 145.794Z" fill="#6D9256"/>
<path opacity="0.5" d="M259.115 145.608L258.421 146.024L264.536 156.227L265.23 155.811L259.115 145.608Z" fill="#6D9256"/>
<path d="M240.126 142.015C237.182 142.841 236.998 146.82 239.676 156.58C242.354 166.34 244.306 172.571 249.486 170.227C254.658 167.883 260.639 161.593 260.639 161.593L258.045 157.364C258.045 157.364 249.611 164.621 247.843 163.237C246.083 161.852 244.631 140.755 240.126 142.015Z" fill="#1A2E35"/>
<path d="M256.943 159.04L260.514 156.037C260.514 156.037 259.988 150.048 261.932 149.973C263.525 149.914 264.793 151.816 265.077 154.419C265.36 157.021 262.424 158.64 262.424 158.64L258.979 162.469L256.943 159.04Z" fill="#C95B51"/>
<path d="M183.894 101.405C183.894 101.405 191.911 96.4666 196.082 103.549C199.043 108.579 197.408 113.643 199.752 117.73C203.406 124.103 200.97 127.157 195.49 128.291C190.009 129.434 181.208 129.284 182.426 122.886C183.677 116.354 177.554 101.313 183.894 101.405Z" fill="#1A2E35"/>
<path d="M192.653 115.678C192.653 115.678 193.321 125.063 195.073 125.221C195.073 125.221 190.943 127.29 186.889 125.221L186.605 120.909L192.653 115.678Z" fill="#FCB373"/>
<path d="M153.947 248.349H150.719L151.736 198.247H156.041L153.947 248.349Z" fill="#15D189"/>
<path opacity="0.7" d="M153.947 248.349H150.719L151.736 198.247H156.041L153.947 248.349Z" fill="#6D9256"/>
<path d="M180.407 248.348H177.179L178.205 198.247H182.501L180.407 248.348Z" fill="#15D189"/>
<path d="M206.852 248.348H210.08L209.062 198.247H204.758L206.852 248.348Z" fill="#15D189"/>
<g opacity="0.4">
<path d="M206.852 248.348H210.08L209.062 198.247H204.758L206.852 248.348Z" fill="#6D9256"/>
</g>
<path d="M207.076 198.247H154.13V202.926H207.076V198.247Z" fill="#15D189"/>
<path opacity="0.5" d="M207.076 198.247H154.13V202.926H207.076V198.247Z" fill="#6D9256"/>
<path d="M180.39 248.348H183.618L182.592 198.247H178.296L180.39 248.348Z" fill="#15D189"/>
<path opacity="0.7" d="M180.39 248.348H183.618L182.592 198.247H178.296L180.39 248.348Z" fill="#6D9256"/>
<path d="M210.288 138.911H201.521C196.916 138.911 192.028 141.288 190.735 145.709C187.081 158.206 184.312 197.388 184.312 197.388H207.786C210.639 197.388 213.033 195.244 213.35 192.408L218.272 147.82C218.789 143.065 215.068 138.911 210.288 138.911Z" fill="#1A2E35"/>
<path opacity="0.6" d="M210.288 138.911H201.521C196.916 138.911 192.028 141.288 190.735 145.709C187.081 158.206 184.312 197.388 184.312 197.388H207.786C210.639 197.388 213.033 195.244 213.35 192.408L218.272 147.82C218.789 143.065 215.068 138.911 210.288 138.911Z" fill="#6D9256"/>
<path d="M204.941 138.911H196.173C191.569 138.911 186.68 141.288 185.387 145.709C181.733 158.206 178.964 197.388 178.964 197.388H201.629C204.949 197.388 207.727 194.893 208.094 191.598L212.924 147.82C213.441 143.065 209.721 138.911 204.941 138.911Z" fill="#1A2E35"/>
<path opacity="0.5" d="M204.941 138.911H196.173C191.569 138.911 186.68 141.288 185.387 145.709C181.733 158.206 178.964 197.388 178.964 197.388H201.629C204.949 197.388 207.727 194.893 208.094 191.598L212.924 147.82C213.441 143.065 209.721 138.911 204.941 138.911Z" fill="#6D9256"/>
<path d="M187.189 198.247H152.871C149.709 198.247 147.14 195.678 147.14 192.516C147.14 189.354 149.701 186.785 152.871 186.785H187.189V198.247Z" fill="#1A2E35"/>
<path opacity="0.5" d="M187.189 198.247H152.871C149.709 198.247 147.14 195.678 147.14 192.516C147.14 189.354 149.701 186.785 152.871 186.785H187.189V198.247Z" fill="#6D9256"/>
<path d="M208.169 198.246H186.004C182.976 198.246 180.523 195.794 180.523 192.766V192.274C180.523 189.245 182.976 186.793 186.004 186.793H208.169C211.33 186.793 213.9 189.354 213.9 192.524C213.9 195.677 211.33 198.246 208.169 198.246Z" fill="#1A2E35"/>
<path opacity="0.6" d="M208.169 198.246H186.004C182.976 198.246 180.523 195.794 180.523 192.766V192.274C180.523 189.245 182.976 186.793 186.004 186.793H208.169C211.33 186.793 213.9 189.354 213.9 192.524C213.9 195.677 211.33 198.246 208.169 198.246Z" fill="#6D9256"/>
<path d="M175.994 137.776C175.994 137.776 176.762 146.109 172.825 149.638C169.238 152.85 163.457 154.435 163.457 154.435L158.36 152.95C157.867 152.808 157.359 152.958 157.042 153.334L154.764 156.095C154.305 156.645 154.431 157.488 155.023 157.955C155.306 158.172 155.657 158.272 155.999 158.23L158.635 157.905C158.635 157.905 161.054 158.355 161.855 158.297C162.481 158.247 164.257 157.63 164.257 157.63C164.257 157.63 173.35 156.846 177.229 152.967C181.108 149.088 182.084 141.038 182.084 141.038L175.994 137.776Z" fill="#FCB373"/>
<path d="M149.208 226.585L149.8 244.82H153.888L155.79 226.251L149.208 226.585Z" fill="#FCB373"/>
<path d="M149.743 242.943L154.397 242.968C154.598 242.968 154.773 243.11 154.823 243.31L155.782 247.689C155.874 248.073 155.624 248.465 155.24 248.549C155.19 248.557 155.14 248.565 155.09 248.565C153.154 248.523 151.428 248.415 149.017 248.415C146.172 248.407 146.89 248.749 143.544 248.79C141.526 248.815 141.167 246.521 142.018 246.405C145.93 245.921 147.065 244.728 148.583 243.335C148.9 243.068 149.317 242.926 149.743 242.943Z" fill="#1A2E35"/>
<path opacity="0.1" d="M154.297 240.815L154.756 236.353H149.525L149.676 240.815H154.297Z" fill="#1A2E35"/>
<path d="M196.991 158.047C196.991 158.047 209.712 186.943 197.491 186.943C185.27 186.943 162.238 186.943 162.238 186.943C162.238 186.943 160.712 194.626 155.223 236.87H149.325C149.325 236.87 148.341 187.394 151.602 180.019C154.155 174.238 170.53 170.101 178.28 168.583C180.365 168.174 181.959 166.489 182.242 164.387L183.961 157.288L196.991 158.047Z" fill="#1A2E35"/>
<path d="M196.991 158.047C196.991 158.047 209.712 186.943 197.491 186.943C185.27 186.943 162.238 186.943 162.238 186.943C162.238 186.943 160.712 194.626 155.223 236.87H149.325C149.325 236.87 148.341 187.394 151.602 180.019C154.155 174.238 170.53 170.101 178.28 168.583C180.365 168.174 181.959 166.489 182.242 164.387L183.961 157.288L196.991 158.047Z" fill="#00613E"/>
<path d="M148.199 235.852L148.666 239.064H155.674L156.324 235.852H148.199Z" fill="#1A2E35"/>
<path opacity="0.2" d="M148.199 235.852L148.666 239.064H155.674L156.324 235.852H148.199Z" fill="#6D9256"/>
<path d="M161.471 226.584L162.155 244.578H166.059L168.862 226.259L161.471 226.584Z" fill="#FCB373"/>
<path opacity="0.1" d="M166.635 240.815L167.319 236.353H161.838L162.005 240.815H166.635Z" fill="#1A2E35"/>
<path d="M162.247 242.943L166.902 242.968C167.102 242.968 167.278 243.11 167.328 243.31L168.287 247.689C168.379 248.073 168.129 248.465 167.745 248.549C167.695 248.557 167.645 248.565 167.595 248.565C165.659 248.523 163.933 248.415 161.522 248.415C158.677 248.407 159.395 248.749 156.049 248.79C154.031 248.815 153.672 246.521 154.523 246.405C158.435 245.921 159.57 244.728 161.088 243.335C161.405 243.068 161.822 242.926 162.247 242.943Z" fill="#1A2E35"/>
<path d="M203.414 158.548C203.414 158.548 204.331 158.548 205.7 165.371C207.443 174.039 209.971 186.944 201.654 186.944C189.433 186.944 174.676 186.944 174.676 186.944C174.676 186.944 173.358 190.08 167.619 236.87H161.721C161.721 236.87 158.442 186.802 161.704 179.419C164.215 173.738 176.703 171.136 183.568 170.243C185.529 169.984 187.147 168.408 187.197 166.439C187.247 164.379 186.955 158.197 186.955 158.197L203.414 158.548Z" fill="#1A2E35"/>
<path d="M160.545 235.852L161.221 239.064H168.019L168.67 235.852H160.545Z" fill="#1A2E35"/>
<path opacity="0.2" d="M160.545 235.852L161.221 239.064H168.019L168.67 235.852H160.545Z" fill="#6D9256"/>
<path d="M180.332 125.28C177.046 124.788 175.185 132.871 175.019 140.52L182.818 142.347C182.818 142.347 186.48 126.206 180.332 125.28Z" fill="#15D189"/>
<path d="M180.332 125.28C177.046 124.788 175.185 132.871 175.019 140.52L182.818 142.347C182.818 142.347 186.48 126.206 180.332 125.28Z" fill="#00613E"/>
<path d="M182.409 162.168C182.409 162.168 182.233 156.746 181.149 149.905C179.914 142.039 177.796 133.213 178.513 127.616C178.705 126.106 179.931 125.063 181.491 125.063H202.83C204.189 125.063 205.357 126.348 205.199 127.657C204.465 133.647 202.613 148.562 205.441 162.643C205.441 162.643 189.149 163.945 182.409 162.168Z" fill="#15D189"/>
<path d="M200.921 135.741C200.921 135.741 202.339 145.442 198.06 148.179C193.781 150.915 184.429 153.751 184.429 153.751L178.648 152.525C178.34 152.458 178.031 152.583 177.872 152.842L175.553 156.587C175.387 156.863 175.42 157.221 175.629 157.48C175.804 157.688 176.062 157.797 176.321 157.772L179.824 157.405C179.824 157.405 181.643 157.83 182.252 157.814C183.028 157.788 185.255 157.104 185.255 157.104C185.255 157.104 198.627 155.803 202.706 151.724C206.786 147.645 207.311 139.169 207.311 139.169L200.921 135.741Z" fill="#FCB373"/>
<path d="M203.591 125.246C199.445 124.754 200.546 134.022 200.037 140.52L207.787 141.396C207.787 141.388 209.755 125.98 203.591 125.246Z" fill="#15D189"/>
<path d="M203.591 125.246C199.445 124.754 200.546 134.022 200.037 140.52L207.787 141.396C207.787 141.388 209.755 125.98 203.591 125.246Z" fill="#00613E"/>
<path d="M186.197 125.664C186.197 125.664 185.396 132.587 194.538 126.414C195.114 126.022 195.323 125.272 195.031 124.638C194.714 123.954 194.388 122.986 194.363 121.901C194.355 121.292 193.654 120.934 193.154 121.276C191.861 122.152 189.767 123.103 186.939 122.877C186.372 122.836 185.946 123.345 186.105 123.895C186.255 124.412 186.338 125.038 186.197 125.664Z" fill="#15D189"/>
<path d="M186.197 125.664C186.197 125.664 185.396 132.587 194.538 126.414C195.114 126.022 195.323 125.272 195.031 124.638C194.714 123.954 194.388 122.986 194.363 121.901C194.355 121.292 193.654 120.934 193.154 121.276C191.861 122.152 189.767 123.103 186.939 122.877C186.372 122.836 185.946 123.345 186.105 123.895C186.255 124.412 186.338 125.038 186.197 125.664Z" fill="#00613E"/>
<path d="M192.771 117.03C192.687 116.212 192.654 115.678 192.654 115.678L186.598 120.909L186.748 123.186C188.491 123.053 191.044 121.926 192.771 117.03Z" fill="#00613E"/>
<path d="M193.137 108.145C193.621 113.492 193.946 115.744 191.694 118.872C188.299 123.577 181.633 123.01 179.556 117.921C177.688 113.342 177.204 105.375 182.059 102.472C185.521 100.378 190.017 101.488 192.111 104.941C192.695 105.909 193.045 107.01 193.137 108.145Z" fill="#FCB373"/>
<path d="M181.884 113.2C181.675 114.251 181.333 115.26 180.85 116.219C181.35 116.461 181.926 116.461 182.426 116.236L181.884 113.2Z" fill="#EC873E"/>
<path d="M185.205 109.83C185.238 109.813 185.271 109.788 185.296 109.763C185.372 109.671 185.355 109.538 185.255 109.463C184.629 108.954 183.787 108.779 183.011 109.004C182.902 109.045 182.844 109.162 182.886 109.279C182.927 109.388 183.044 109.446 183.153 109.413C183.803 109.237 184.487 109.388 185.004 109.813C185.063 109.846 185.138 109.855 185.205 109.83Z" fill="#263237"/>
<path d="M177.788 110.956C177.755 110.956 177.713 110.939 177.68 110.923C177.58 110.856 177.554 110.722 177.621 110.631C178.063 109.947 178.806 109.521 179.615 109.496C179.732 109.504 179.824 109.596 179.824 109.713C179.824 109.83 179.723 109.922 179.615 109.922C178.948 109.955 178.339 110.314 177.98 110.881C177.93 110.923 177.863 110.956 177.788 110.956Z" fill="#263237"/>
<path d="M184.787 111.94C184.862 112.366 184.695 112.758 184.411 112.808C184.128 112.858 183.844 112.558 183.769 112.124C183.694 111.69 183.861 111.306 184.136 111.256C184.42 111.206 184.703 111.515 184.787 111.94Z" fill="#263237"/>
<path d="M179.932 112.816C180.007 113.242 179.84 113.634 179.565 113.684C179.29 113.734 178.998 113.433 178.914 113C178.831 112.566 179.006 112.182 179.282 112.132C179.565 112.074 179.857 112.382 179.932 112.816Z" fill="#263237"/>
<path d="M179.415 112.132L178.33 112.023C178.33 112.023 179.006 112.724 179.415 112.132Z" fill="#263237"/>
<path d="M184.26 111.256L183.176 111.148C183.184 111.148 183.86 111.857 184.26 111.256Z" fill="#263237"/>
<path d="M195.03 112.141C194.888 113.167 194.346 114.101 193.512 114.727C192.411 115.544 191.368 114.677 191.259 113.384C191.168 112.216 191.626 110.381 192.936 110.072C193.895 109.872 194.83 110.497 195.03 111.457C195.08 111.674 195.08 111.907 195.03 112.141Z" fill="#FCB373"/>
<path d="M183.903 118.405C183.753 118.455 183.594 118.488 183.436 118.513C183.386 118.522 183.336 118.488 183.327 118.438C183.319 118.388 183.361 118.338 183.411 118.33C184.228 118.221 184.946 117.729 185.346 117.012C185.371 116.962 185.421 116.945 185.471 116.962C185.521 116.987 185.538 117.037 185.521 117.087C185.179 117.729 184.595 118.205 183.903 118.405Z" fill="#1A2E35"/>
<path d="M185.854 104.391C185.854 104.391 184.394 106.677 185.521 108.279C186.647 109.88 178.955 106.527 176.978 110.03C176.978 110.03 174.467 99.2192 185.854 100.662V104.391Z" fill="#1A2E35"/>
<path d="M185.521 103.707C185.521 103.707 184.67 108.037 187.49 109.38C190.309 110.714 190.234 114.293 192.77 113.692C196.424 112.825 193.813 101.73 187.882 100.529C183.494 99.6362 185.521 103.707 185.521 103.707Z" fill="#1A2E35"/>
<path d="M105.672 249.108H102.519L101.143 165.713H107.057L105.672 249.108Z" fill="#15D189"/>
<path opacity="0.7" d="M105.672 249.108H102.519L101.143 165.713H107.057L105.672 249.108Z" fill="#6D9256"/>
<path d="M140.456 249.107H137.303L135.918 165.713H141.832L140.456 249.107Z" fill="#15D189"/>
<path opacity="0.4" d="M140.456 249.107H137.303L135.918 165.713H141.832L140.456 249.107Z" fill="#6D9256"/>
<path d="M163.556 164.312H104.095V170.835H163.556V164.312Z" fill="#15D189"/>
<path opacity="0.3" d="M163.556 164.312H104.095V170.835H163.556V164.312Z" fill="#6D9256"/>
<path d="M198.425 164.312H163.556V170.835H198.425V164.312Z" fill="#15D189"/>
<path opacity="0.5" d="M198.425 164.312H163.556V170.835H198.425V164.312Z" fill="#6D9256"/>
<path d="M199.911 249.108H196.766L195.381 165.713H201.295L199.911 249.108Z" fill="#15D189"/>
<path opacity="0.4" d="M199.911 249.108H196.766L195.381 165.713H201.295L199.911 249.108Z" fill="#6D9256"/>
<path d="M202.689 165.713H157.192C155.974 165.713 154.981 164.72 154.981 163.503V162.335C154.981 161.117 155.974 160.124 157.192 160.124H202.689C203.907 160.124 204.9 161.117 204.9 162.335V163.503C204.9 164.72 203.915 165.713 202.689 165.713Z" fill="#1A2E35"/>
<path opacity="0.6" d="M202.689 165.713H157.192C155.974 165.713 154.981 164.72 154.981 163.503V162.335C154.981 161.117 155.974 160.124 157.192 160.124H202.689C203.907 160.124 204.9 161.117 204.9 162.335V163.503C204.9 164.72 203.915 165.713 202.689 165.713Z" fill="#6D9256"/>
<path d="M160.545 165.713H98.4557C97.2378 165.713 96.2451 164.72 96.2451 163.503V162.335C96.2451 161.117 97.2378 160.124 98.4557 160.124H160.545C161.763 160.124 162.755 161.117 162.755 162.335V163.503C162.755 164.72 161.763 165.713 160.545 165.713Z" fill="#1A2E35"/>
<path opacity="0.5" d="M160.545 165.713H98.4557C97.2378 165.713 96.2451 164.72 96.2451 163.503V162.335C96.2451 161.117 97.2378 160.124 98.4557 160.124H160.545C161.763 160.124 162.755 161.117 162.755 162.335V163.503C162.755 164.72 161.763 165.713 160.545 165.713Z" fill="#6D9256"/>
<path d="M165.133 249.108H161.98L160.604 165.713H166.51L165.133 249.108Z" fill="#15D189"/>
<path opacity="0.7" d="M165.133 249.108H161.98L160.604 165.713H166.51L165.133 249.108Z" fill="#6D9256"/>
<path d="M158.584 160.124C158.067 160.124 157.658 159.707 157.658 159.198C157.658 158.689 158.075 158.272 158.584 158.272H183.894C184.402 158.272 184.82 158.689 184.82 159.198C184.82 159.707 184.402 160.124 183.894 160.124H158.584Z" fill="#15D189"/>
<path d="M158.584 160.124C158.067 160.124 157.658 159.707 157.658 159.198C157.658 158.689 158.075 158.272 158.584 158.272H183.894C184.402 158.272 184.82 158.689 184.82 159.198C184.82 159.707 184.402 160.124 183.894 160.124H158.584Z" fill="#00613E"/>
<path d="M160.736 158.514L157.366 134.54C157.241 133.655 156.424 132.946 155.548 132.946H152.319V160.116H159.368C160.244 160.108 160.861 159.399 160.736 158.514Z" fill="#15D189"/>
<path d="M157.967 160.107H129.345C128.461 160.107 127.652 159.39 127.527 158.514L124.157 134.539C124.032 133.655 124.649 132.946 125.533 132.946H154.154C155.039 132.946 155.848 133.663 155.973 134.539L159.343 158.514C159.468 159.398 158.851 160.107 157.967 160.107Z" fill="#1A2E35"/>
<path opacity="0.7" d="M157.967 160.107H129.345C128.461 160.107 127.652 159.39 127.527 158.514L124.157 134.539C124.032 133.655 124.649 132.946 125.533 132.946H154.154C155.039 132.946 155.848 133.663 155.973 134.539L159.343 158.514C159.468 159.398 158.851 160.107 157.967 160.107Z" fill="#6D9256"/>
<path opacity="0.7" d="M143.152 145.876C143.269 146.686 142.701 147.336 141.9 147.336C141.1 147.336 140.349 146.686 140.232 145.876C140.115 145.067 140.683 144.417 141.483 144.417C142.293 144.417 143.035 145.067 143.152 145.876Z" fill="white"/>
<path d="M57.2626 153.167C53.8257 173.229 77.7754 162.71 87.3186 162.944C87.9276 162.96 88.5199 163.086 89.1038 163.302L92.0569 176.024L89.1956 189.204L82.5137 199.757H40.9457L10.8897 179.419L3.25684 155.569L5.40072 116.93L6.3517 110.731C6.3517 110.731 7.30268 118.364 28.2994 116.454C49.2877 114.544 65.7464 107.778 70.5179 114.544C76.2489 122.66 59.5316 139.903 57.2626 153.167Z" fill="#15D189"/>
<path d="M88.47 185.992V193.5L76.4826 198.33L52.8666 197.079L46.6602 189.212L49.2879 185.091H64.4952L88.47 185.992Z" fill="#00613E"/>
<path d="M50.2646 210.551H43.0488V243.41H50.2646V210.551Z" fill="#1A2E35"/>
<path opacity="0.5" d="M50.2646 210.551H43.0488V243.41H50.2646V210.551Z" fill="#6D9256"/>
<path d="M52.1415 240.423H41.1885L18.8154 244.653V248.39H23.4202L41.1885 245.028H52.1415L69.9015 248.39H74.5063V244.653L52.1415 240.423Z" fill="#1A2E35"/>
<path opacity="0.3" d="M52.1415 240.423H41.1885L18.8154 244.653V248.39H23.4202L41.1885 245.028H52.1415L69.9015 248.39H74.5063V244.653L52.1415 240.423Z" fill="#6D9256"/>
<path d="M69.9017 250C71.4366 250 72.9715 250 74.5064 250C75.9496 250 75.9496 247.756 74.5064 247.756C72.9715 247.756 71.4366 247.756 69.9017 247.756C68.4585 247.765 68.4585 250 69.9017 250Z" fill="#15D189"/>
<path d="M18.8148 250C20.3497 250 21.8846 250 23.4195 250C24.8627 250 24.8627 247.756 23.4195 247.756C21.8846 247.756 20.3497 247.756 18.8148 247.756C17.3716 247.764 17.3716 250 18.8148 250Z" fill="#15D189"/>
<path d="M50.2646 210.551H43.0488V217.984H50.2646V210.551Z" fill="#00613E"/>
<path d="M85.6839 190.647H42.4893V181.329H85.6839C88.2532 181.329 90.3387 183.415 90.3387 185.984C90.3387 188.57 88.2532 190.647 85.6839 190.647Z" fill="#15D189"/>
<path d="M85.6839 190.647H42.4893V181.329H85.6839C88.2532 181.329 90.3387 183.415 90.3387 185.984C90.3387 188.57 88.2532 190.647 85.6839 190.647Z" fill="#00613E"/>
<path d="M49.4887 123.319C49.4887 123.319 55.0194 138.827 59.5407 139.177C64.0621 139.528 69.6011 131.202 69.6011 131.202L71.8534 125.338L76.3998 124.963V132.32L71.7366 134.664C71.7366 134.664 64.6043 146.385 59.0652 146.093C53.5262 145.801 47.9287 137.225 46.8026 132.863C46.1853 130.468 46.594 125.463 49.4887 123.319Z" fill="#FFC3BD"/>
<path d="M77.3754 136.091L79.0104 122.544L72.7456 122.127L72.5537 135.766L77.3754 136.091Z" fill="#1A2E35"/>
<path opacity="0.5" d="M77.3754 136.091L79.0104 122.544L72.7456 122.127L72.5537 135.766L77.3754 136.091Z" fill="#6D9256"/>
<path d="M79.1352 120.592L72.8682 120.171L72.7372 122.118L79.0042 122.54L79.1352 120.592Z" fill="#15D189"/>
<path d="M79.1427 120.6L72.8779 120.175L72.9447 119.165C72.953 118.99 73.1115 118.848 73.295 118.865L78.9175 119.24C79.0927 119.249 79.2345 119.407 79.2178 119.583L79.1427 120.6Z" fill="#1A2E35"/>
<path d="M48.0455 136.976C48.0455 136.976 42.1143 127.182 45.9016 122.544C49.6888 117.906 55.4781 133.205 55.4781 133.205L48.0455 136.976Z" fill="#15D189"/>
<path opacity="0.3" d="M48.0455 136.976C48.0455 136.976 42.1143 127.182 45.9016 122.544C49.6888 117.906 55.4781 133.205 55.4781 133.205L48.0455 136.976Z" fill="#6D9256"/>
<path d="M46.8945 136.283L48.0123 137.935L56.3209 133.639L55.5535 131.904L46.8945 136.283Z" fill="#15D189"/>
<path opacity="0.1" d="M46.8945 136.283L48.0123 137.935L56.3209 133.639L55.5535 131.904L46.8945 136.283Z" fill="#6D9256"/>
<path d="M18.3304 174.414C18.3304 174.414 10.8977 148.403 19.6067 122.535C19.6067 122.535 30.9184 117.271 47.0434 121.134C48.8953 121.576 50.0131 123.444 49.5376 125.288C47.9276 131.561 45.4334 146.518 51.4563 165.421C51.4563 165.429 37.3167 174.047 18.3304 174.414Z" fill="#15D189"/>
<path opacity="0.5" d="M18.3304 174.414C18.3304 174.414 10.8977 148.403 19.6067 122.535C19.6067 122.535 30.9184 117.271 47.0434 121.134C48.8953 121.576 50.0131 123.444 49.5376 125.288C47.9276 131.561 45.4334 146.518 51.4563 165.421C51.4563 165.429 37.3167 174.047 18.3304 174.414Z" fill="#6D9256"/>
<path d="M32.4619 119.841L37.9259 124.571L41.0958 121.759C39.8946 120.867 40.2283 118.856 40.8956 116.679L33.1543 110.564C33.5464 113.442 33.8383 117.38 32.4619 119.841Z" fill="#FFC3BD"/>
<path d="M72.2038 180.887L82.2725 184.983L81.1296 189.245L70.3936 187.026L72.2038 180.887Z" fill="#FFC3BD"/>
<path d="M37.8431 166.364C37.8431 166.364 86.0095 149.68 89.9802 165.012C93.951 180.345 57.4466 190.914 38.3269 190.272C19.1988 189.629 37.8431 166.364 37.8431 166.364Z" fill="#1A2E35"/>
<path d="M37.8431 166.364C37.8431 166.364 86.0095 149.68 89.9802 165.012C93.951 180.345 57.4466 190.914 38.3269 190.272C19.1988 189.629 37.8431 166.364 37.8431 166.364Z" fill="#00613E"/>
<path d="M73.6475 167.923L50.2733 182.822L54.0022 188.945C54.0022 188.945 51.7415 189.696 48.6133 182.222L63.0782 172.662C63.0782 172.662 58.5485 172.211 58.6653 171.494C58.8572 170.343 68.7925 168.124 73.3305 167.164C73.7976 167.064 74.0395 167.673 73.6475 167.923Z" fill="#00613E"/>
<path d="M49.4301 182.163L53.4843 189.037C47.987 189.988 42.7065 190.43 38.327 190.28C36.2916 190.213 34.6816 189.888 33.4386 189.354L32.0205 186.626L35.082 180.161L49.4301 182.163Z" fill="#00613E"/>
<path d="M49.8393 183.214L45.293 187.034L47.3785 190.271L54.3106 189.195L49.8393 183.214Z" fill="#FFC3BD"/>
<path d="M55.5199 189.304L50.765 181.813L48.6211 183.348L52.7337 189.813L55.5199 189.304Z" fill="#1A2E35"/>
<path opacity="0.3" d="M55.5199 189.304L50.765 181.813L48.6211 183.348L52.7337 189.813L55.5199 189.304Z" fill="#6D9256"/>
<path d="M20.9095 182.322C18.3152 177.926 13.3183 164.712 25.3391 162.41C37.3598 160.107 76.8423 182.322 76.8423 182.322L75.007 188.103L37.6184 181.938C37.6184 181.938 48.0125 191.348 36.6424 190.172C27.6331 189.246 23.4288 186.593 20.9095 182.322Z" fill="#1A2E35"/>
<path d="M75.8748 180.887L73.5391 188.436L75.8748 188.762L77.9853 182.246L75.8748 180.887Z" fill="#1A2E35"/>
<path opacity="0.3" d="M75.8748 180.887L73.5391 188.436L75.8748 188.762L77.9853 182.246L75.8748 180.887Z" fill="#6D9256"/>
<path d="M48.7134 190.105L47.07 185.116C47.0116 184.924 46.8281 184.808 46.6279 184.824L42.2734 185.258C41.8896 185.291 41.606 185.633 41.6394 186.026C41.6477 186.076 41.6561 186.126 41.6727 186.176C42.2984 187.961 42.9157 189.529 43.6498 191.773C44.5174 194.418 43.9835 193.85 44.9595 196.97C45.5518 198.847 47.7874 198.497 47.6372 197.663C46.9032 193.875 47.8708 193.141 48.7134 191.314C48.8635 190.922 48.8635 190.497 48.7134 190.105Z" fill="#1A2E35"/>
<path d="M81.3716 184.716L79.6782 189.846C79.6115 190.038 79.6949 190.255 79.8701 190.355L83.7324 192.658C84.0744 192.866 84.5165 192.758 84.7251 192.416C84.7501 192.374 84.7751 192.324 84.7918 192.274C85.3674 190.414 85.8095 188.737 86.577 186.443C87.4696 183.732 87.5697 184.524 88.6708 181.346C89.3298 179.427 87.261 178.36 86.8856 179.135C85.1839 182.714 83.9326 182.731 82.1141 183.723C81.7553 183.949 81.4884 184.299 81.3716 184.716Z" fill="#1A2E35"/>
<path d="M74.7733 167.682H53.1009C52.0832 167.682 51.249 166.857 51.249 165.831H76.6169C76.6252 166.848 75.7994 167.682 74.7733 167.682Z" fill="#1A2E35"/>
<path opacity="0.2" d="M74.7733 167.682H53.1009C52.0832 167.682 51.249 166.857 51.249 165.831H76.6169C76.6252 166.848 75.7994 167.682 74.7733 167.682Z" fill="#6D9256"/>
<path d="M58.8236 167.682H43.0824C42.0647 167.682 41.2305 166.857 41.2305 165.831H60.6756C60.6756 166.848 59.8414 167.682 58.8236 167.682Z" fill="#1A2E35"/>
<path opacity="0.5" d="M58.8236 167.682H43.0824C42.0647 167.682 41.2305 166.857 41.2305 165.831H60.6756C60.6756 166.848 59.8414 167.682 58.8236 167.682Z" fill="#6D9256"/>
<path d="M74.9322 167.115H60.6675C60.3671 167.115 60.1586 166.814 60.2504 166.531L66.5986 148.404C66.7738 147.903 67.2409 147.569 67.7748 147.569H82.0395C82.3398 147.569 82.5484 147.87 82.4566 148.153L76.1084 166.28C75.9332 166.781 75.4577 167.115 74.9322 167.115Z" fill="#1A2E35"/>
<path opacity="0.5" d="M74.9322 167.115H60.6675C60.3671 167.115 60.1586 166.814 60.2504 166.531L66.5986 148.404C66.7738 147.903 67.2409 147.569 67.7748 147.569H82.0395C82.3398 147.569 82.5484 147.87 82.4566 148.153L76.1084 166.28C75.9332 166.781 75.4577 167.115 74.9322 167.115Z" fill="#6D9256"/>
<path d="M75.4908 167.115H61.226C60.9257 167.115 60.7172 166.814 60.8089 166.531L67.1572 148.404C67.3324 147.903 67.7995 147.569 68.3334 147.569H82.5981C82.8984 147.569 83.107 147.87 83.0152 148.153L76.667 166.28C76.4918 166.781 76.0163 167.115 75.4908 167.115Z" fill="#1A2E35"/>
<path opacity="0.7" d="M75.4908 167.115H61.226C60.9257 167.115 60.7172 166.814 60.8089 166.531L67.1572 148.404C67.3324 147.903 67.7995 147.569 68.3334 147.569H82.5981C82.8984 147.569 83.107 147.87 83.0152 148.153L76.667 166.28C76.4918 166.781 76.0163 167.115 75.4908 167.115Z" fill="#6D9256"/>
<path d="M73.113 157.338C72.9628 158.031 72.4873 158.598 72.0369 158.598C71.5948 158.598 71.3528 158.039 71.4946 157.338C71.6448 156.646 72.1203 156.079 72.5708 156.079C73.0212 156.087 73.2631 156.646 73.113 157.338Z" fill="white"/>
<path d="M25.4465 130.343C25.4465 130.343 28.9334 147.486 31.2775 150.331C33.63 153.175 43.8572 160.825 43.8572 160.825L49.9385 159.548L54.3013 163.186L51.4484 165.438L48.0699 164.17C48.0699 164.17 45.6424 164.654 42.4974 164.654C39.3525 164.654 26.5894 157.146 24.0534 152.925C21.5258 148.704 17.9805 132.846 17.9805 132.846L25.4465 130.343Z" fill="#FFC3BD"/>
<path d="M30.4521 119.967L32.6211 118.707L37.9265 124.571C37.9265 124.571 35.0069 123.379 34.1893 123.862C33.4469 124.296 33.9641 126.173 33.1049 126.19C31.2029 126.231 30.4521 119.967 30.4521 119.967Z" fill="#15D189"/>
<path d="M37.9258 124.571L40.6953 119.107L42.956 120.325C42.956 120.325 45.0581 125.631 43.4565 126.19C42.4805 126.532 42.1051 124.046 41.1291 123.687C40.3449 123.412 37.9258 124.571 37.9258 124.571Z" fill="#15D189"/>
<g opacity="0.2">
<path d="M30.4521 119.967L32.6211 118.707L37.9265 124.571C37.9265 124.571 35.0069 123.379 34.1893 123.862C33.4469 124.296 33.9641 126.173 33.1049 126.19C31.2029 126.231 30.4521 119.967 30.4521 119.967Z" fill="#6D9256"/>
<path d="M37.9258 124.571L40.6953 119.107L42.956 120.325C42.956 120.325 45.0581 125.631 43.4565 126.19C42.4805 126.532 42.1051 124.046 41.1291 123.687C40.3449 123.412 37.9258 124.571 37.9258 124.571Z" fill="#6D9256"/>
</g>
<path d="M18.3303 138.869C18.3303 138.869 14.3011 126.665 19.6066 122.544C24.9204 118.415 27.4063 136.608 27.4063 136.608L18.3303 138.869Z" fill="#15D189"/>
<path opacity="0.3" d="M18.3303 138.869C18.3303 138.869 14.3011 126.665 19.6066 122.544C24.9204 118.415 27.4063 136.608 27.4063 136.608L18.3303 138.869Z" fill="#6D9256"/>
<path d="M17.2383 137.826L18.0558 139.92L28.2246 137.3L27.8159 135.207L17.2383 137.826Z" fill="#15D189"/>
<path opacity="0.1" d="M17.2383 137.826L18.0558 139.92L28.2246 137.3L27.8159 135.207L17.2383 137.826Z" fill="#6D9256"/>
<path d="M33.2794 111.59C33.2377 111.24 33.196 110.898 33.1543 110.573L40.8956 116.687C40.612 117.622 40.3951 118.514 40.32 119.315C35.6485 119.357 33.8717 114.185 33.2794 111.59Z" fill="#00613E"/>
<path d="M34.6144 101.647C33.0044 107.111 32.1953 109.405 33.9054 113.084C36.4664 118.681 43.5236 119.465 46.7353 114.602C49.6049 110.214 51.8072 102.031 47.3192 98.0016C44.1493 95.1153 39.2359 95.3405 36.3496 98.5104C35.5321 99.4114 34.9398 100.479 34.6144 101.647Z" fill="#FFC3BD"/>
<path d="M40.7628 107.136C40.6127 107.57 40.7128 108.004 40.9964 108.112C41.28 108.22 41.6388 107.945 41.7973 107.511C41.9474 107.078 41.8556 106.644 41.572 106.535C41.2801 106.427 40.9297 106.694 40.7628 107.136Z" fill="#1A2E35"/>
<path d="M45.6846 108.921C45.5261 109.355 45.6262 109.797 45.9098 109.897C46.1934 109.997 46.5521 109.73 46.7106 109.297C46.8691 108.863 46.7607 108.429 46.4854 108.321C46.2101 108.212 45.8431 108.479 45.6846 108.921Z" fill="#1A2E35"/>
<path d="M44.0319 109.039C44.3072 110.14 44.7243 111.191 45.2832 112.175C44.766 112.45 44.157 112.492 43.6064 112.275L44.0319 109.039Z" fill="#FF8935"/>
<path d="M40.5694 104.717C40.6529 104.8 40.778 104.817 40.8864 104.767C42.0293 104.216 43.4557 104.992 43.4724 105.001C43.6059 105.076 43.7727 105.026 43.8478 104.892C43.9229 104.759 43.8729 104.592 43.7394 104.517C43.6643 104.508 42.046 103.591 40.6529 104.258C40.5194 104.325 40.461 104.483 40.5277 104.625C40.5361 104.667 40.5528 104.692 40.5694 104.717Z" fill="#1A2E35"/>
<path d="M48.5786 107.971C48.662 108.029 48.7621 108.037 48.8539 107.996C48.9874 107.937 49.0541 107.779 48.9957 107.637C48.6704 106.819 47.9613 106.21 47.1021 106.01C46.9519 105.985 46.8101 106.085 46.7851 106.235C46.7601 106.386 46.8602 106.527 47.0103 106.552C47.686 106.728 48.2366 107.211 48.4952 107.862C48.5035 107.904 48.5369 107.946 48.5786 107.971Z" fill="#1A2E35"/>
<path d="M33.5465 104.834C33.5465 104.834 35.5986 104.784 35.3066 102.448C35.3066 102.448 38.6935 102.356 38.8353 99.8703C38.8353 99.8703 41.7967 102.498 42.8478 100.446C42.8478 100.446 46.4765 103.691 46.952 101.547C46.952 101.547 50.7226 106.227 50.5307 103.357C50.5307 103.357 54.7767 102.923 50.9561 99.253C50.9561 99.253 54.4431 96.1999 48.8123 94.9569C48.8123 94.9569 49.3044 91.3365 45.342 92.9298C45.342 92.9298 44.4244 88.9924 40.9875 91.2865C40.9875 91.2865 39.1273 88.5169 37.1002 92.2374C37.1002 92.2374 34.1054 90.519 33.1461 94.3897C33.1461 94.3897 27.7238 95.0487 29.9595 98.6107C29.9595 98.6107 31.6362 110.573 33.1461 110.573C34.1805 110.573 33.5465 104.834 33.5465 104.834Z" fill="#1A2E35"/>
<path d="M31.6778 105.393C31.7112 106.494 32.1783 107.536 32.9791 108.296C34.0469 109.288 35.2565 108.496 35.5067 107.136C35.7403 105.918 35.4734 103.924 34.1303 103.449C33.1543 103.124 32.0949 103.649 31.7612 104.625C31.6861 104.875 31.6611 105.134 31.6778 105.393Z" fill="#FFC3BD"/>
<path d="M41.9724 113.751C42.1642 113.81 42.3645 113.851 42.5647 113.868C42.6314 113.876 42.6898 113.835 42.6981 113.768C42.6981 113.768 42.6981 113.768 42.6981 113.76C42.6981 113.693 42.6564 113.634 42.5897 113.626C41.572 113.518 40.6627 112.934 40.1455 112.05C40.1205 111.991 40.0454 111.966 39.987 111.991C39.9286 112.016 39.9036 112.091 39.9286 112.15C40.3624 112.95 41.1048 113.518 41.9724 113.751Z" fill="#1A2E35"/>
<path d="M2.77348 111.207C2.77348 111.207 -16.7133 211.235 47.6198 213.062C106.297 214.73 93.1835 166.789 89.3629 163.444C85.5423 160.107 99.857 194.218 76.241 194.693C47.7699 195.269 42.6063 168.216 33.0631 167.974C23.5199 167.732 9.08833 180.378 7.66186 157.48C6.23538 134.581 13.7515 95.6992 2.77348 111.207Z" fill="#15D189"/>
<path opacity="0.5" d="M2.77348 111.207C2.77348 111.207 -16.7133 211.235 47.6198 213.062C106.297 214.73 93.1835 166.789 89.3629 163.444C85.5423 160.107 99.857 194.218 76.241 194.693C47.7699 195.269 42.6063 168.216 33.0631 167.974C23.5199 167.732 9.08833 180.378 7.66186 157.48C6.23538 134.581 13.7515 95.6992 2.77348 111.207Z" fill="#6D9256"/>
</svg>
