<svg width="231" height="30" viewBox="0 0 231 30" fill="none" xmlns="http://www.w3.org/2000/svg">
<path d="M6.19361 8.23682H0V29.9939H6.19361V8.23682Z" fill="#3B7DED"/>
<path d="M16.844 21.743C16.973 22.8288 17.2519 23.5996 17.6838 24.0585C18.4456 24.8743 19.8523 25.2792 21.9039 25.2792C23.1096 25.2792 24.0694 25.1023 24.7772 24.7424C25.4881 24.3854 25.842 23.8486 25.842 23.1347C25.842 22.4479 25.5571 21.929 24.9842 21.5691C24.4113 21.2121 22.2818 20.5973 18.5956 19.7275C15.9412 19.0706 14.0696 18.2488 12.9869 17.262C11.9011 16.2902 11.3582 14.8896 11.3582 13.063C11.3582 10.9065 12.207 9.05287 13.9017 7.50221C15.5993 5.95156 17.9868 5.17773 21.0641 5.17773C23.9854 5.17773 26.3639 5.7596 28.2055 6.92334C30.0441 8.08708 31.0998 10.0996 31.3728 12.955H25.2661C25.1791 12.1692 24.9572 11.5483 24.6003 11.0894C23.9254 10.2616 22.7797 9.84769 21.163 9.84769C19.8313 9.84769 18.8806 10.0546 18.3167 10.4686C17.7498 10.8825 17.4679 11.3683 17.4679 11.9262C17.4679 12.6251 17.7678 13.135 18.3707 13.4469C18.9735 13.7768 21.0971 14.3407 24.7472 15.1385C27.1797 15.7114 29.0033 16.5752 30.218 17.7329C31.4177 18.9057 32.0176 20.3693 32.0176 22.1269C32.0176 24.4424 31.1538 26.332 29.4292 27.7957C27.7046 29.2623 25.0382 29.9942 21.43 29.9942C17.7498 29.9942 15.0354 29.2204 13.2808 27.6697C11.5262 26.1191 10.6504 24.1455 10.6504 21.743H16.844Z" fill="#3B7DED"/>
<path d="M34.1172 10.8671V6.51803H37.3745V0.000488281H43.4181V6.51503H47.2123V10.8641H43.4181V23.2093C43.4181 24.1661 43.5381 24.763 43.781 24.9999C44.024 25.2368 44.7678 25.3538 46.0095 25.3538C46.1955 25.3538 46.3904 25.3508 46.6004 25.3418C46.8073 25.3358 47.0113 25.3238 47.2123 25.3088V29.8738L44.3179 29.9818C41.4325 30.0808 39.459 29.5829 38.4032 28.4821C37.7164 27.7833 37.3745 26.7035 37.3745 25.2458V10.8671H34.1172Z" fill="#3B7DED"/>
<path d="M48.7334 10.8671V6.51803H51.9907V0.000488281H58.0343V6.51503H61.8285V10.8641H58.0343V23.2093C58.0343 24.1661 58.1543 24.763 58.3972 24.9999C58.6402 25.2368 59.384 25.3538 60.6257 25.3538C60.8117 25.3538 61.0067 25.3508 61.2166 25.3418C61.4236 25.3358 61.6275 25.3238 61.8285 25.3088V29.8738L58.9341 29.9818C56.0488 30.0808 54.0752 29.5829 53.0194 28.4821C52.3326 27.7833 51.9907 26.7035 51.9907 25.2458V10.8671H48.7334Z" fill="#3B7DED"/>
<path d="M4.61594 1.13975L5.05684 0.698844C4.52296 0.260942 3.83911 0 3.09528 0C2.35145 0 1.6706 0.260942 1.13672 0.698844L1.57762 1.13975C1.99753 0.812818 2.52541 0.620861 3.09528 0.620861C3.66815 0.617862 4.19603 0.812818 4.61594 1.13975Z" fill="#3B7DED"/>
<path d="M5.05371 4.61587L5.49461 5.05677C5.93251 4.52289 6.19346 3.84204 6.19346 3.09821C6.19346 2.35438 5.93251 1.67353 5.49461 1.13965L5.05371 1.58055C5.38064 2.00046 5.57259 2.52834 5.57259 3.09821C5.57259 3.66808 5.38064 4.19597 5.05371 4.61587Z" fill="#3B7DED"/>
<path d="M1.13975 1.57762L0.698844 1.13672C0.260942 1.6706 0 2.35445 0 3.09528C0 3.83911 0.260942 4.51996 0.698844 5.05384L1.13975 4.61294C0.812818 4.19304 0.620861 3.66515 0.620861 3.09528C0.617862 2.52541 0.812818 1.99753 1.13975 1.57762Z" fill="#3B7DED"/>
<path d="M1.57762 5.05371L1.13672 5.49461C1.6706 5.93251 2.35145 6.19346 3.09528 6.19346C3.83911 6.19346 4.51996 5.93251 5.05384 5.49461L4.61294 5.05371C4.19304 5.38064 3.66515 5.57259 3.09528 5.57259C2.52541 5.57259 1.99753 5.38064 1.57762 5.05371Z" fill="#3B7DED"/>
<path d="M3.09487 4.95194C4.12023 4.95194 4.95145 4.12072 4.95145 3.09535C4.95145 2.06999 4.12023 1.23877 3.09487 1.23877C2.0695 1.23877 1.23828 2.06999 1.23828 3.09535C1.23828 4.12072 2.0695 4.95194 3.09487 4.95194Z" fill="#3B7DED"/>
<path d="M85.2292 27.6576C85.0282 27.3727 84.9083 26.8298 84.8663 26.029C84.8363 24.9732 84.8243 24.0704 84.8243 23.3296V12.613C84.8243 9.79964 83.8285 7.88307 81.8339 6.86929C79.8394 5.85552 77.5569 5.34863 74.9895 5.34863C71.0424 5.34863 68.259 6.3774 66.6393 8.43494C65.6196 9.74865 65.0467 11.4283 64.9177 13.4708H70.8114C70.9554 12.571 71.2463 11.8572 71.6812 11.3293C72.2901 10.6155 73.3249 10.2585 74.7885 10.2585C76.0902 10.2585 77.08 10.4415 77.7549 10.8044C78.4297 11.1673 78.7656 11.8302 78.7656 12.787C78.7656 13.5728 78.3277 14.1517 77.4489 14.5236C76.96 14.7365 76.1472 14.9165 75.0105 15.0605L72.9169 15.3184C70.5415 15.6183 68.7419 16.1192 67.5182 16.8181C65.2867 18.1048 64.1709 20.1833 64.1709 23.0537C64.1709 25.2672 64.8637 26.9798 66.2494 28.1855C67.6351 29.3913 69.3927 29.9971 71.5193 29.9971C73.1869 29.9971 74.6805 29.6192 76.0033 28.8604C77.11 28.2185 78.0878 27.4387 78.9336 26.5239C78.9756 27.0518 79.0326 27.5227 79.1046 27.9396C79.1765 28.3535 79.3055 28.7974 79.4915 29.2683H86.135V28.3685C85.7271 28.1795 85.4271 27.9456 85.2292 27.6576ZM74.5036 17.9038C75.5204 17.9038 76.4531 18.2607 77.182 18.8606L76.5791 19.4635C76.0063 19.0166 75.2864 18.7526 74.5036 18.7526C73.7208 18.7526 73.0009 19.0196 72.4281 19.4635L71.8252 18.8606C72.554 18.2637 73.4868 17.9038 74.5036 17.9038ZM77.041 22.1389C77.041 23.5426 75.9043 24.6793 74.5006 24.6793C73.0969 24.6793 71.9602 23.5426 71.9602 22.1389C71.9602 20.7352 73.0969 19.5984 74.5006 19.5984C75.9043 19.5984 77.041 20.7352 77.041 22.1389ZM71.2253 24.8173C70.6285 24.0884 70.2685 23.1556 70.2685 22.1389C70.2685 21.1221 70.6255 20.1893 71.2253 19.4605L71.8282 20.0633C71.3813 20.6362 71.1173 21.3561 71.1173 22.1389C71.1173 22.9217 71.3813 23.6415 71.8282 24.2144L71.2253 24.8173ZM74.5036 26.3709C73.4868 26.3709 72.554 26.014 71.8252 25.4141L72.4281 24.8113C73.0009 25.2582 73.7208 25.5221 74.5036 25.5221C75.2864 25.5221 76.0063 25.2552 76.5791 24.8113L77.182 25.4141C76.4501 26.011 75.5174 26.3709 74.5036 26.3709ZM77.7789 24.8173L77.176 24.2144C77.6229 23.6415 77.8868 22.9217 77.8868 22.1389C77.8868 21.3561 77.6229 20.6362 77.176 20.0633L77.7789 19.4605C78.3757 20.1893 78.7326 21.1221 78.7326 22.1389C78.7356 23.1527 78.3757 24.0854 77.7789 24.8173Z" fill="#3B7DED"/>
<path d="M109.637 27.6576C109.436 27.3727 109.316 26.8298 109.274 26.029C109.244 24.9732 109.232 24.0704 109.232 23.3296V12.613C109.232 9.79964 108.237 7.88307 106.242 6.86929C104.248 5.85552 101.965 5.34863 99.3977 5.34863C95.4506 5.34863 92.6672 6.3774 91.0476 8.43494C90.0278 9.74865 89.4549 11.4283 89.3259 13.4708H95.2196C95.3636 12.571 95.6545 11.8572 96.0894 11.3293C96.6983 10.6155 97.7331 10.2585 99.1967 10.2585C100.498 10.2585 101.488 10.4415 102.163 10.8044C102.838 11.1673 103.174 11.8302 103.174 12.787C103.174 13.5728 102.736 14.1517 101.857 14.5236C101.368 14.7365 100.555 14.9165 99.4187 15.0605L97.3251 15.3184C94.9497 15.6183 93.1501 16.1192 91.9264 16.8181C89.6949 18.1048 88.5791 20.1833 88.5791 23.0537C88.5791 25.2672 89.272 26.9798 90.6576 28.1855C92.0433 29.3913 93.8009 29.9971 95.9275 29.9971C97.5951 29.9971 99.0888 29.6192 100.411 28.8604C101.518 28.2185 102.496 27.4387 103.342 26.5239C103.384 27.0518 103.441 27.5227 103.513 27.9396C103.585 28.3535 103.714 28.7974 103.9 29.2683H110.543V28.3685C110.138 28.1795 109.838 27.9456 109.637 27.6576ZM98.9118 17.9038C99.9286 17.9038 100.861 18.2607 101.59 18.8606L100.987 19.4635C100.414 19.0166 99.6946 18.7526 98.9118 18.7526C98.129 18.7526 97.4091 19.0196 96.8363 19.4635L96.2334 18.8606C96.9622 18.2637 97.895 17.9038 98.9118 17.9038ZM101.449 22.1389C101.449 23.5426 100.312 24.6793 98.9088 24.6793C97.5051 24.6793 96.3684 23.5426 96.3684 22.1389C96.3684 20.7352 97.5051 19.5984 98.9088 19.5984C100.312 19.5984 101.449 20.7352 101.449 22.1389ZM95.6335 24.8173C95.0367 24.0884 94.6797 23.1556 94.6797 22.1389C94.6797 21.1221 95.0367 20.1893 95.6335 19.4605L96.2364 20.0633C95.7895 20.6362 95.5255 21.3561 95.5255 22.1389C95.5255 22.9217 95.7895 23.6415 96.2364 24.2144L95.6335 24.8173ZM98.9118 26.3709C97.895 26.3709 96.9622 26.014 96.2334 25.4141L96.8363 24.8113C97.4091 25.2582 98.129 25.5221 98.9118 25.5221C99.6946 25.5221 100.414 25.2552 100.987 24.8113L101.59 25.4141C100.861 26.011 99.9286 26.3709 98.9118 26.3709ZM102.187 24.8173L101.584 24.2144C102.031 23.6415 102.295 22.9217 102.295 22.1389C102.295 21.3561 102.031 20.6362 101.584 20.0633L102.187 19.4605C102.784 20.1893 103.141 21.1221 103.141 22.1389C103.144 23.1527 102.784 24.0854 102.187 24.8173Z" fill="#3B7DED"/>
<path d="M130.633 29.5953H116.536V10.4985H130.447V12.787H119.116V18.6387H129.568V20.9272H119.116V27.3098H130.633V29.5953Z" fill="#424143"/>
<path d="M145.261 29.5953H143.054V27.6817H143C142.538 28.5335 141.962 29.1304 141.272 29.4783C140.582 29.8262 139.835 29.9972 139.038 29.9972C137.922 29.9972 136.962 29.7632 136.164 29.2923C135.366 28.8214 134.73 28.2066 134.263 27.4447C133.792 26.6829 133.453 25.8491 133.24 24.9433C133.027 24.0405 132.922 23.1347 132.922 22.2319C132.922 20.2104 133.441 18.5487 134.479 17.244C135.516 15.9393 136.929 15.2885 138.72 15.2885C139.304 15.2885 139.826 15.3634 140.288 15.5134C140.75 15.6634 141.14 15.8643 141.458 16.1133C141.776 16.3622 142.034 16.5962 142.229 16.8181C142.424 17.0401 142.628 17.31 142.841 17.6279L142.868 17.6549H142.922V10.4985H145.261V29.5953ZM136.299 26.497C136.938 27.4807 137.868 27.9726 139.091 27.9726C139.499 27.9726 139.925 27.8976 140.369 27.7477C140.813 27.5977 141.224 27.3458 141.605 26.9888C141.986 26.6349 142.298 26.146 142.535 25.5252C142.775 24.9043 142.895 24.1605 142.895 23.2907C142.895 22.5978 142.85 21.926 142.763 21.2691C142.673 20.6123 142.502 19.9884 142.244 19.3945C141.986 18.8007 141.605 18.3178 141.101 17.9459C140.597 17.574 139.943 17.388 139.145 17.388C138.294 17.388 137.607 17.562 137.085 17.9069C136.56 18.2518 136.176 18.6957 135.927 19.2356C135.678 19.7755 135.519 20.3213 135.447 20.8702C135.375 21.4191 135.339 21.998 135.339 22.6008C135.339 24.2145 135.66 25.5132 136.299 26.497Z" fill="#424143"/>
<path d="M157.576 29.5955V27.5739L157.522 27.5199C157.006 28.3717 156.412 28.9956 155.74 29.3945C155.066 29.7934 154.19 29.9944 153.107 29.9944C152.558 29.9944 152.021 29.9224 151.496 29.7814C150.974 29.6404 150.489 29.4005 150.048 29.0646C149.604 28.7287 149.25 28.2788 148.983 27.7209C148.716 27.163 148.584 26.4852 148.584 25.6873V15.6846H150.923V24.9135C150.923 25.9963 151.163 26.7761 151.64 27.253C152.12 27.7329 152.774 27.9698 153.608 27.9698C154.316 27.9698 154.919 27.8319 155.416 27.5589C155.914 27.283 156.307 26.9171 156.601 26.4552C156.895 25.9933 157.105 25.4984 157.24 24.9645C157.372 24.4336 157.441 23.8907 157.441 23.3419V15.6846H159.78V29.5955H157.576Z" fill="#424143"/>
<path d="M171.99 20.3663C171.849 19.4095 171.501 18.6747 170.952 18.1588C170.403 17.6459 169.651 17.388 168.691 17.388C167.998 17.388 167.404 17.5379 166.909 17.8409C166.411 18.1438 166.012 18.5427 165.713 19.0376C165.413 19.5355 165.194 20.0934 165.062 20.7142C164.93 21.3351 164.864 21.9739 164.864 22.6278C164.864 23.3026 164.918 23.9445 165.023 24.5564C165.128 25.1682 165.32 25.7351 165.596 26.26C165.872 26.7849 166.261 27.1988 166.765 27.5107C167.269 27.8196 167.905 27.9756 168.667 27.9756C169.483 27.9756 170.191 27.6877 170.793 27.1118C171.396 26.5359 171.795 25.7231 171.99 24.6793H174.252C174.18 25.3002 174.036 25.9121 173.814 26.5149C173.592 27.1178 173.259 27.6847 172.815 28.2185C172.371 28.7494 171.801 29.1813 171.099 29.5083C170.398 29.8352 169.561 30.0001 168.586 30.0001C166.672 30.0001 165.155 29.3523 164.039 28.0596C162.923 26.7669 162.362 25.0902 162.362 23.0327C162.362 21.9349 162.494 20.9182 162.761 19.9884C163.028 19.0586 163.439 18.2368 163.997 17.5289C164.555 16.8211 165.257 16.2692 166.099 15.8793C166.942 15.4894 167.92 15.2944 169.039 15.2944C169.909 15.2944 170.664 15.4354 171.312 15.7203C171.96 16.0053 172.491 16.3892 172.908 16.8781C173.325 17.367 173.64 17.9128 173.853 18.5127C174.066 19.1156 174.198 19.7364 174.252 20.3753H171.99V20.3663Z" fill="#424143"/>
<path d="M176.51 19.9131C176.564 18.2995 177.086 17.1237 178.079 16.3889C179.072 15.6541 180.463 15.2852 182.254 15.2852C182.662 15.2852 183.136 15.3301 183.676 15.4171C184.216 15.5071 184.773 15.6781 185.352 15.936C185.928 16.194 186.417 16.5869 186.816 17.1207C187.215 17.6516 187.416 18.3355 187.416 19.1693V27.1745C187.416 27.7234 187.674 27.9993 188.187 27.9993C188.346 27.9993 188.604 27.9633 188.957 27.8943V29.598C188.885 29.616 188.789 29.6429 188.664 29.6789C188.274 29.8019 187.947 29.8649 187.68 29.8649C186.741 29.8649 186.105 29.6729 185.778 29.292C185.451 28.9111 185.259 28.3922 185.205 27.7354C184.602 28.3922 183.916 28.9321 183.145 29.358C182.374 29.7839 181.384 29.9969 180.178 29.9969C178.901 29.9969 177.857 29.6249 177.041 28.8811C176.225 28.1373 175.817 27.1715 175.817 25.9808C175.817 25.5909 175.862 25.1859 175.949 24.769C176.039 24.3521 176.228 23.9232 176.522 23.4793C176.816 23.0354 177.248 22.6425 177.827 22.2946C178.403 21.9497 179.144 21.7217 180.046 21.6167L183.904 21.1368C184.275 21.1009 184.572 20.9719 184.794 20.7499C185.016 20.528 185.127 20.1081 185.127 19.4872C185.127 17.9816 184.039 17.2257 181.855 17.2257C181.234 17.2257 180.721 17.3097 180.313 17.4777C179.905 17.6456 179.591 17.8646 179.369 18.1285C179.147 18.3955 178.988 18.6684 178.889 18.9533C178.793 19.2383 178.715 19.5562 178.664 19.9101H176.51V19.9131ZM185.076 22.4925C184.863 22.6515 184.503 22.7955 184 22.9184C183.496 23.0414 182.569 23.1944 181.219 23.3713C180.865 23.4253 180.523 23.4913 180.196 23.5693C179.869 23.6503 179.555 23.7703 179.252 23.9292C178.952 24.0882 178.706 24.3101 178.52 24.5951C178.334 24.88 178.241 25.2249 178.241 25.6328C178.241 26.4127 178.448 27.0125 178.865 27.4294C179.282 27.8463 179.914 28.0563 180.766 28.0563C181.297 28.0563 181.825 27.9723 182.35 27.8044C182.872 27.6364 183.337 27.4054 183.745 27.1115C184.153 26.8176 184.476 26.4727 184.716 26.0737C184.956 25.6748 185.076 25.2459 185.076 24.784V22.4925Z" fill="#424143"/>
<path d="M194.252 17.628V26.671C194.252 27.1509 194.389 27.4508 194.665 27.5768C194.938 27.6997 195.271 27.7627 195.661 27.7627H196.486V29.5983C196.291 29.6163 195.937 29.6523 195.421 29.7033C195.049 29.7573 194.818 29.7843 194.728 29.7843C193.664 29.7843 192.929 29.5233 192.521 28.9984C192.113 28.4766 191.909 27.7447 191.909 26.8029V17.628H190.022V15.6874H191.909V11.8003H194.249V15.6844H196.483V17.625H194.252V17.628Z" fill="#424143"/>
<path d="M198.826 13.1589V10.4985H201.166V13.1589H198.826ZM201.169 29.5953H198.829V15.6844H201.169V29.5953Z" fill="#424143"/>
<path d="M204.279 19.9401C204.546 19.0703 204.945 18.2815 205.476 17.5736C206.006 16.8658 206.684 16.3049 207.509 15.897C208.334 15.4891 209.279 15.2852 210.34 15.2852C211.405 15.2852 212.35 15.4891 213.172 15.897C213.997 16.3049 214.674 16.8598 215.205 17.5586C215.736 18.2605 216.135 19.0493 216.402 19.9251C216.669 20.8039 216.801 21.7037 216.801 22.6245C216.801 23.5453 216.669 24.4421 216.402 25.3119C216.135 26.1817 215.736 26.9705 215.205 27.6784C214.674 28.3862 213.997 28.9471 213.172 29.355C212.347 29.7629 211.402 29.9669 210.34 29.9669C209.276 29.9669 208.331 29.7629 207.509 29.355C206.684 28.9471 206.006 28.3892 205.476 27.6784C204.945 26.9705 204.546 26.1787 204.279 25.3119C204.012 24.4421 203.88 23.5483 203.88 22.6245C203.88 21.7037 204.012 20.8099 204.279 19.9401ZM206.486 24.3281C206.609 24.931 206.819 25.5069 207.11 26.0557C207.404 26.6046 207.815 27.0575 208.346 27.4114C208.877 27.7654 209.543 27.9423 210.34 27.9423C211.138 27.9423 211.804 27.7654 212.335 27.4114C212.866 27.0575 213.283 26.6046 213.586 26.0557C213.886 25.5069 214.096 24.931 214.21 24.3281C214.324 23.7253 214.384 23.1584 214.384 22.6245C214.384 22.0936 214.327 21.5238 214.21 20.9209C214.093 20.318 213.886 19.7422 213.586 19.1903C213.283 18.6414 212.869 18.1885 212.335 17.8346C211.804 17.4807 211.138 17.3037 210.34 17.3037C209.543 17.3037 208.877 17.4807 208.346 17.8346C207.815 18.1885 207.401 18.6414 207.11 19.1903C206.816 19.7392 206.609 20.318 206.486 20.9209C206.363 21.5238 206.3 22.0906 206.3 22.6245C206.3 23.1584 206.363 23.7253 206.486 24.3281Z" fill="#424143"/>
<path d="M230.795 29.595H228.456V21.0319C228.456 19.7722 228.234 18.8514 227.79 18.2665C227.346 17.6816 226.575 17.3877 225.477 17.3877C225.106 17.3877 224.71 17.4597 224.293 17.6006C223.876 17.7416 223.477 17.9876 223.096 18.3325C222.715 18.6774 222.403 19.1573 222.166 19.7692C221.926 20.381 221.806 21.1308 221.806 22.0157V29.595H219.467V15.6841H221.674V17.6516H221.728C221.905 17.4027 222.103 17.1537 222.328 16.9078C222.55 16.6588 222.832 16.4099 223.18 16.164C223.525 15.915 223.93 15.7081 224.392 15.5371C224.854 15.3691 225.366 15.2852 225.933 15.2852C226.536 15.2852 227.118 15.3571 227.676 15.4981C228.234 15.6391 228.753 15.894 229.233 16.2569C229.713 16.6199 230.093 17.1207 230.375 17.7596C230.66 18.3985 230.801 19.1873 230.801 20.1261V29.595H230.795Z" fill="#424143"/>
</svg>
