<svg width="45" height="13" viewBox="0 0 45 13" fill="none" xmlns="http://www.w3.org/2000/svg">
<path d="M2.47742 3.54297H0V12.3205H2.47742V3.54297Z" fill="#3B7DED"/>
<path d="M6.73719 8.99256C6.78877 9.43059 6.90035 9.74157 7.07311 9.9267C7.37784 10.2558 7.9405 10.4192 8.76111 10.4192C9.2434 10.4192 9.62731 10.3478 9.91044 10.2026C10.1948 10.0586 10.3363 9.842 10.3363 9.55402C10.3363 9.27692 10.2224 9.06758 9.99322 8.92238C9.76408 8.77839 8.91228 8.53033 7.43782 8.17942C6.37607 7.91443 5.62745 7.58288 5.19435 7.18478C4.76005 6.79273 4.5429 6.22765 4.5429 5.49074C4.5429 4.62073 4.88242 3.87293 5.56026 3.24734C6.2393 2.62176 7.19428 2.30957 8.42519 2.30957C9.59372 2.30957 10.5451 2.54432 11.2817 3.01381C12.0171 3.4833 12.4394 4.29523 12.5486 5.44718H10.106C10.0712 5.13015 9.98243 4.87967 9.83966 4.69454C9.56972 4.36057 9.11143 4.19359 8.46478 4.19359C7.93211 4.19359 7.55179 4.27708 7.32625 4.44406C7.0995 4.61105 6.98673 4.80707 6.98673 5.03214C6.98673 5.31407 7.1067 5.51978 7.34784 5.64562C7.58899 5.77872 8.43839 6.00621 9.89845 6.32808C10.8714 6.55919 11.6008 6.90768 12.0867 7.37475C12.5666 7.84787 12.8066 8.43837 12.8066 9.14745C12.8066 10.0816 12.461 10.8439 11.7712 11.4344C11.0814 12.0261 10.0148 12.3214 8.57156 12.3214C7.0995 12.3214 6.01375 12.0092 5.31192 11.3836C4.61008 10.758 4.25977 9.9618 4.25977 8.99256H6.73719Z" fill="#3B7DED"/>
<path d="M13.6475 4.60464V2.8501H14.9504V0.220703H17.3678V2.84889H18.8854V4.60343H17.3678V9.58391C17.3678 9.96991 17.4158 10.2107 17.513 10.3063C17.6101 10.4019 17.9077 10.4491 18.4043 10.4491C18.4787 10.4491 18.5567 10.4479 18.6407 10.4442C18.7235 10.4418 18.8051 10.437 18.8854 10.4309V12.2726L17.7277 12.3162C16.5736 12.3561 15.7842 12.1552 15.3619 11.7111C15.0871 11.4292 14.9504 10.9936 14.9504 10.4055V4.60464H13.6475Z" fill="#3B7DED"/>
<path d="M19.4922 4.60464V2.8501H20.7951V0.220703H23.2125V2.84889H24.7302V4.60343H23.2125V9.58391C23.2125 9.96991 23.2605 10.2107 23.3577 10.3063C23.4549 10.4019 23.7524 10.4491 24.2491 10.4491C24.3235 10.4491 24.4014 10.4479 24.4854 10.4442C24.5682 10.4418 24.6498 10.437 24.7302 10.4309V12.2726L23.5724 12.3162C22.4183 12.3561 21.6289 12.1552 21.2066 11.7111C20.9319 11.4292 20.7951 10.9936 20.7951 10.4055V4.60464H19.4922Z" fill="#3B7DED"/>
<path d="M1.84675 0.680514L2.02311 0.50264C1.80956 0.325976 1.53602 0.220703 1.23849 0.220703C0.940964 0.220703 0.668628 0.325976 0.455078 0.50264L0.631437 0.680514C0.799397 0.548621 1.01055 0.471179 1.23849 0.471179C1.46764 0.469969 1.67879 0.548621 1.84675 0.680514Z" fill="#3B7DED"/>
<path d="M2.02148 2.08309L2.19784 2.26096C2.373 2.04558 2.47738 1.7709 2.47738 1.47081C2.47738 1.17073 2.373 0.896049 2.19784 0.680664L2.02148 0.858538C2.15225 1.02794 2.22904 1.24091 2.22904 1.47081C2.22904 1.70072 2.15225 1.91368 2.02148 2.08309Z" fill="#3B7DED"/>
<path d="M0.455893 0.857562L0.279534 0.679688C0.104376 0.895073 0 1.17096 0 1.46984C0 1.76992 0.104376 2.0446 0.279534 2.25999L0.455893 2.08211C0.325124 1.91271 0.248342 1.69974 0.248342 1.46984C0.247142 1.23993 0.325124 1.02697 0.455893 0.857562Z" fill="#3B7DED"/>
<path d="M0.631437 2.25977L0.455078 2.43764C0.668628 2.6143 0.940964 2.71958 1.23849 2.71958C1.53603 2.71958 1.80836 2.6143 2.02191 2.43764L1.84555 2.25977C1.67759 2.39166 1.46644 2.4691 1.23849 2.4691C1.01055 2.4691 0.799398 2.39166 0.631437 2.25977Z" fill="#3B7DED"/>
<path d="M1.23774 2.21774C1.64788 2.21774 1.98037 1.8824 1.98037 1.46873C1.98037 1.05507 1.64788 0.719727 1.23774 0.719727C0.827602 0.719727 0.495117 1.05507 0.495117 1.46873C0.495117 1.8824 0.827602 2.21774 1.23774 2.21774Z" fill="#3B7DED"/>
<path d="M34.0902 11.3781C34.0098 11.2632 33.9619 11.0442 33.9451 10.7211C33.9331 10.2952 33.9283 9.93093 33.9283 9.63206V5.30862C33.9283 4.17361 33.53 3.4004 32.7321 2.99141C31.9343 2.58242 31.0213 2.37793 29.9944 2.37793C28.4155 2.37793 27.3022 2.79297 26.6544 3.62305C26.2465 4.15304 26.0173 4.83066 25.9657 5.65469H28.3232C28.3808 5.29168 28.4971 5.00369 28.6711 4.79073C28.9146 4.50274 29.3285 4.35875 29.914 4.35875C30.4347 4.35875 30.8306 4.43256 31.1005 4.57897C31.3705 4.72539 31.5048 4.9928 31.5048 5.3788C31.5048 5.69583 31.3297 5.92937 30.9781 6.07941C30.7826 6.16532 30.4575 6.23792 30.0028 6.296L29.1654 6.40007C28.2152 6.52107 27.4954 6.72315 27.0059 7.00508C26.1133 7.52418 25.667 8.36273 25.667 9.52073C25.667 10.4137 25.9441 11.1047 26.4984 11.5911C27.0527 12.0775 27.7557 12.322 28.6063 12.322C29.2733 12.322 29.8708 12.1695 30.3999 11.8633C30.8426 11.6044 31.2337 11.2898 31.572 10.9207C31.5888 11.1337 31.6116 11.3237 31.6404 11.4919C31.6692 11.6589 31.7208 11.8379 31.7952 12.0279H34.4525V11.6649C34.2894 11.5887 34.1694 11.4943 34.0902 11.3781ZM29.8 7.44311C30.2067 7.44311 30.5798 7.58711 30.8714 7.82911L30.6302 8.07233C30.4011 7.89203 30.1132 7.78555 29.8 7.78555C29.4869 7.78555 29.199 7.89324 28.9698 8.07233L28.7287 7.82911C29.0202 7.58832 29.3933 7.44311 29.8 7.44311ZM30.815 9.15167C30.815 9.71797 30.3603 10.1766 29.7988 10.1766C29.2374 10.1766 28.7827 9.71797 28.7827 9.15167C28.7827 8.58538 29.2374 8.12678 29.7988 8.12678C30.3603 8.12678 30.815 8.58538 30.815 9.15167ZM28.4887 10.2322C28.25 9.93819 28.106 9.56187 28.106 9.15167C28.106 8.74147 28.2488 8.36515 28.4887 8.07112L28.7299 8.31433C28.5511 8.54545 28.4455 8.83586 28.4455 9.15167C28.4455 9.46749 28.5511 9.7579 28.7299 9.98901L28.4887 10.2322ZM29.8 10.859C29.3933 10.859 29.0202 10.715 28.7287 10.473L28.9698 10.2298C29.199 10.4101 29.4869 10.5166 29.8 10.5166C30.1132 10.5166 30.4011 10.4089 30.6302 10.2298L30.8714 10.473C30.5786 10.7138 30.2055 10.859 29.8 10.859ZM31.1101 10.2322L30.869 9.98901C31.0477 9.7579 31.1533 9.46749 31.1533 9.15167C31.1533 8.83586 31.0477 8.54545 30.869 8.31433L31.1101 8.07112C31.3489 8.36515 31.4916 8.74147 31.4916 9.15167C31.4928 9.56066 31.3489 9.93698 31.1101 10.2322Z" fill="#3B7DED"/>
<path d="M43.8539 11.3781C43.7735 11.2632 43.7255 11.0442 43.7087 10.7211C43.6967 10.2952 43.6919 9.93093 43.6919 9.63206V5.30862C43.6919 4.17361 43.2936 3.4004 42.4958 2.99141C41.698 2.58242 40.785 2.37793 39.7581 2.37793C38.1792 2.37793 37.0659 2.79297 36.418 3.62305C36.0101 4.15304 35.781 4.83066 35.7294 5.65469H38.0868C38.1444 5.29168 38.2608 5.00369 38.4348 4.79073C38.6783 4.50274 39.0922 4.35875 39.6777 4.35875C40.1984 4.35875 40.5943 4.43256 40.8642 4.57897C41.1341 4.72539 41.2685 4.9928 41.2685 5.3788C41.2685 5.69583 41.0933 5.92937 40.7418 6.07941C40.5463 6.16532 40.2211 6.23792 39.7665 6.296L38.929 6.40007C37.9789 6.52107 37.259 6.72315 36.7696 7.00508C35.877 7.52418 35.4307 8.36273 35.4307 9.52073C35.4307 10.4137 35.7078 11.1047 36.2621 11.5911C36.8163 12.0775 37.5194 12.322 38.37 12.322C39.037 12.322 39.6345 12.1695 40.1636 11.8633C40.6063 11.6044 40.9974 11.2898 41.3357 10.9207C41.3525 11.1337 41.3753 11.3237 41.4041 11.4919C41.4329 11.6589 41.4844 11.8379 41.5588 12.0279H44.2162V11.6649C44.0542 11.5887 43.9343 11.4943 43.8539 11.3781ZM39.5637 7.44311C39.9704 7.44311 40.3435 7.58711 40.635 7.82911L40.3939 8.07233C40.1648 7.89203 39.8768 7.78555 39.5637 7.78555C39.2506 7.78555 38.9626 7.89324 38.7335 8.07233L38.4923 7.82911C38.7839 7.58832 39.157 7.44311 39.5637 7.44311ZM40.5787 9.15167C40.5787 9.71797 40.124 10.1766 39.5625 10.1766C39.001 10.1766 38.5463 9.71797 38.5463 9.15167C38.5463 8.58538 39.001 8.12678 39.5625 8.12678C40.124 8.12678 40.5787 8.58538 40.5787 9.15167ZM38.2524 10.2322C38.0137 9.93819 37.8709 9.56187 37.8709 9.15167C37.8709 8.74147 38.0137 8.36515 38.2524 8.07112L38.4935 8.31433C38.3148 8.54545 38.2092 8.83586 38.2092 9.15167C38.2092 9.46749 38.3148 9.7579 38.4935 9.98901L38.2524 10.2322ZM39.5637 10.859C39.157 10.859 38.7839 10.715 38.4923 10.473L38.7335 10.2298C38.9626 10.4101 39.2506 10.5166 39.5637 10.5166C39.8768 10.5166 40.1648 10.4089 40.3939 10.2298L40.635 10.473C40.3435 10.7138 39.9704 10.859 39.5637 10.859ZM40.8738 10.2322L40.6326 9.98901C40.8114 9.7579 40.917 9.46749 40.917 9.15167C40.917 8.83586 40.8114 8.54545 40.6326 8.31433L40.8738 8.07112C41.1125 8.36515 41.2553 8.74147 41.2553 9.15167C41.2565 9.56066 41.1125 9.93698 40.8738 10.2322Z" fill="#3B7DED"/>
</svg>
