<svg width="160" height="50" viewBox="0 0 160 50" fill="none" xmlns="http://www.w3.org/2000/svg">
<g id="Group 205">
<g id="Group">
<g id="Group_2">
<path id="Vector" d="M38.4533 9.20006L42.1268 5.64004C37.6742 2.11501 31.9937 0 25.7972 0C19.6007 0 13.9201 2.11501 9.47266 5.64504L13.1462 9.20506C16.6391 6.57004 21.0298 5.00003 25.7972 5.00003C30.5645 5.00003 34.9552 6.57004 38.4533 9.20006Z" fill="#414042"/>
<path id="Vector_2" d="M42.1009 37.2649L45.7744 40.8249C49.4118 36.5099 51.5943 31.0048 51.5943 24.9998C51.5943 18.9948 49.4118 13.4897 45.7692 9.17969L42.0957 12.7397C44.8147 16.1247 46.4348 20.3798 46.4348 24.9998C46.4348 29.6198 44.8147 33.8749 42.1009 37.2649Z" fill="#414042"/>
<path id="Vector_3" d="M9.49339 12.7348L5.81986 9.1748C2.18245 13.4898 0 18.9949 0 24.9999C0 31.005 2.18245 36.51 5.82502 40.82L9.49855 37.26C6.77952 33.875 5.15945 29.6199 5.15945 24.9999C5.15945 20.3799 6.77952 16.1249 9.49339 12.7348Z" fill="#414042"/>
<path id="Vector_4" d="M13.1413 40.7999L9.46777 44.3599C13.9204 47.885 19.6009 50 25.7974 50C31.9939 50 37.6745 47.885 42.1219 44.3549L38.4484 40.7949C34.9555 43.4299 30.5648 45 25.7974 45C21.0301 45 16.6394 43.4299 13.1413 40.7999Z" fill="#414042"/>
</g>
<g id="Group_3">
<path id="Vector_5" d="M25.7972 40.0012C34.3457 40.0012 41.2756 33.2854 41.2756 25.0011C41.2756 16.7168 34.3457 10.001 25.7972 10.001C17.2487 10.001 10.3188 16.7168 10.3188 25.0011C10.3188 33.2854 17.2487 40.0012 25.7972 40.0012Z" fill="#414042"/>
</g>
</g>
<g id="Group_4">
<g id="Group_5">
<path id="Vector_6" d="M57.5846 41.7541L57.2286 42.7141H56.7539L58.0335 39.4141H58.5546L59.7877 42.7141H59.2872L58.9518 41.7541H57.5846ZM58.7816 41.3591L58.2811 39.9091H58.2708L57.7239 41.3591H58.7816Z" fill="#414042"/>
<path id="Vector_7" d="M67.7126 40.4092C67.6816 40.2692 67.63 40.1592 67.5629 40.0692C67.4959 39.9792 67.4133 39.9092 67.3256 39.8592C67.2379 39.8092 67.145 39.7742 67.047 39.7542C66.9541 39.7342 66.8561 39.7242 66.7632 39.7242C66.4433 39.7242 66.175 39.8392 65.9635 40.0642C65.752 40.2942 65.6488 40.6142 65.6488 41.0292C65.6488 41.2292 65.6694 41.4142 65.7055 41.5792C65.7468 41.7442 65.8087 41.8892 65.8964 42.0092C65.9841 42.1292 66.1028 42.2292 66.2473 42.2942C66.3917 42.3642 66.5672 42.3992 66.7735 42.3992C66.8612 42.3992 66.9541 42.3892 67.047 42.3642C67.1399 42.3392 67.2327 42.2942 67.3256 42.2292C67.4185 42.1642 67.501 42.0692 67.5784 41.9492C67.6558 41.8292 67.7074 41.6792 67.7435 41.4942H68.1872C68.1408 41.7842 68.0582 42.0142 67.9293 42.1992C67.8003 42.3792 67.6558 42.5142 67.501 42.5942C67.3411 42.6792 67.1966 42.7342 67.0625 42.7592C66.9283 42.7842 66.8097 42.7942 66.7013 42.7942C66.5001 42.7942 66.3092 42.7592 66.1234 42.6942C65.9429 42.6292 65.7778 42.5242 65.6333 42.3842C65.4888 42.2442 65.3753 42.0642 65.2928 41.8392C65.2102 41.6142 65.1689 41.3492 65.1689 41.0442C65.1689 40.7892 65.2051 40.5592 65.2773 40.3442C65.3495 40.1342 65.4527 39.9492 65.592 39.7992C65.7313 39.6492 65.8964 39.5292 66.0925 39.4492C66.2886 39.3692 66.5104 39.3242 66.7529 39.3242C66.9644 39.3242 67.1553 39.3542 67.3204 39.4092C67.4855 39.4692 67.63 39.5492 67.7487 39.6492C67.8673 39.7492 67.9602 39.8642 68.0273 39.9942C68.0944 40.1242 68.1356 40.2592 68.1511 40.3992H67.7126V40.4092Z" fill="#414042"/>
<path id="Vector_8" d="M73.6974 41.6542C73.6406 41.8542 73.5478 42.0442 73.4188 42.2192C73.2898 42.3942 73.1144 42.5342 72.8977 42.6442C72.681 42.7492 72.423 42.8042 72.1237 42.8042C71.8245 42.8042 71.5665 42.7492 71.3498 42.6442C71.1331 42.5392 70.9629 42.3942 70.8287 42.2192C70.6997 42.0442 70.6069 41.8592 70.5501 41.6542C70.4934 41.4542 70.4624 41.2592 70.4624 41.0642C70.4624 40.8692 70.4934 40.6742 70.5501 40.4742C70.6069 40.2742 70.6997 40.0842 70.8287 39.9092C70.9577 39.7342 71.128 39.5942 71.3447 39.4842C71.5614 39.3792 71.8193 39.3242 72.1186 39.3242C72.4178 39.3242 72.6758 39.3792 72.8925 39.4842C73.1092 39.5892 73.2795 39.7342 73.4136 39.9092C73.5426 40.0842 73.6355 40.2692 73.6922 40.4742C73.749 40.6742 73.7799 40.8692 73.7799 41.0642C73.7851 41.2592 73.7541 41.4542 73.6974 41.6542ZM73.2279 40.5242C73.1763 40.3592 73.0937 40.2192 72.9957 40.0992C72.8925 39.9792 72.7687 39.8892 72.619 39.8192C72.4746 39.7542 72.3095 39.7192 72.1237 39.7192C71.938 39.7192 71.7729 39.7542 71.6284 39.8192C71.484 39.8842 71.355 39.9792 71.2518 40.0992C71.1486 40.2192 71.0712 40.3642 71.0196 40.5242C70.968 40.6842 70.9371 40.8642 70.9371 41.0642C70.9371 41.2592 70.9629 41.4342 71.0196 41.6042C71.0712 41.7692 71.1538 41.9142 71.2518 42.0292C71.355 42.1492 71.4788 42.2392 71.6284 42.3092C71.7729 42.3742 71.938 42.4092 72.1237 42.4092C72.3095 42.4092 72.4746 42.3742 72.619 42.3092C72.7687 42.2442 72.8925 42.1492 72.9957 42.0292C73.0989 41.9092 73.1763 41.7642 73.2279 41.6042C73.2795 41.4392 73.3104 41.2642 73.3104 41.0692C73.3104 40.8692 73.2846 40.6892 73.2279 40.5242Z" fill="#414042"/>
<path id="Vector_9" d="M79.0275 42.7141V40.7641C79.0275 40.7541 79.0275 40.6841 79.0327 40.5591C79.0378 40.2891 79.0378 40.0791 79.0378 39.9441H79.0275L78.0678 42.7141H77.6138L76.6542 39.9491H76.6438C76.6438 40.0841 76.6438 40.2841 76.649 40.5541C76.6542 40.6841 76.6542 40.7541 76.6542 40.7641V42.7141H76.2104V39.4141H76.8709L77.8408 42.2041H77.8512L78.816 39.4141H79.4712V42.7141H79.0275Z" fill="#414042"/>
<path id="Vector_10" d="M82.5774 42.7141H82.1182V39.4141H83.6505C83.9601 39.4141 84.2077 39.4991 84.3883 39.6741C84.5689 39.8491 84.6618 40.0691 84.6618 40.3441C84.6618 40.4691 84.6411 40.5841 84.605 40.6991C84.5689 40.8141 84.507 40.9191 84.4296 41.0091C84.347 41.1041 84.2439 41.1791 84.1149 41.2341C83.9859 41.2891 83.8311 41.3191 83.6557 41.3191H82.5825V42.7141H82.5774ZM82.5774 40.9441H83.4906C83.7124 40.9441 83.8827 40.8991 84.0014 40.8041C84.12 40.7141 84.1819 40.5591 84.1819 40.3491C84.1819 40.1541 84.12 40.0141 84.0014 39.9241C83.8827 39.8391 83.7176 39.7941 83.5061 39.7941H82.5722V40.9441H82.5774Z" fill="#414042"/>
<path id="Vector_11" d="M87.5869 42.3191H89.3102V42.7141H87.1226V39.4141H87.5817V42.3191H87.5869Z" fill="#414042"/>
<path id="Vector_12" d="M94.2221 42.7141H91.7095V39.4141H94.1912V39.8091H92.1738V40.8191H94.0364V41.2141H92.1738V42.3191H94.2273V42.7141H94.2221Z" fill="#414042"/>
<path id="Vector_13" d="M96.4253 39.4189H99.1908V39.8139H98.0402V42.719H97.581V39.8139H96.4304V39.4189H96.4253Z" fill="#414042"/>
<path id="Vector_14" d="M104.071 42.7141H101.559V39.4141H104.04V39.8091H102.023V40.8191H103.886V41.2141H102.023V42.3191H104.076V42.7141H104.071Z" fill="#414042"/>
<path id="Vector_15" d="M110.681 42.7141H110.196L109.308 39.4141H109.803L110.438 42.0991H110.448L111.212 39.4141H111.712L112.476 42.0991H112.486L113.121 39.4141H113.627L112.729 42.7141H112.244L111.465 39.9791H111.454L110.681 42.7141Z" fill="#414042"/>
<path id="Vector_16" d="M118.931 41.6542C118.874 41.8542 118.781 42.0442 118.652 42.2192C118.523 42.3942 118.348 42.5342 118.131 42.6442C117.914 42.7492 117.656 42.8042 117.357 42.8042C117.058 42.8042 116.8 42.7492 116.583 42.6442C116.367 42.5392 116.196 42.3942 116.062 42.2192C115.933 42.0442 115.84 41.8592 115.784 41.6542C115.727 41.4542 115.696 41.2592 115.696 41.0642C115.696 40.8692 115.727 40.6742 115.784 40.4742C115.84 40.2742 115.933 40.0842 116.062 39.9092C116.191 39.7342 116.361 39.5942 116.578 39.4842C116.795 39.3742 117.053 39.3242 117.352 39.3242C117.651 39.3242 117.909 39.3792 118.126 39.4842C118.343 39.5892 118.513 39.7342 118.647 39.9092C118.776 40.0842 118.869 40.2692 118.926 40.4742C118.982 40.6742 119.013 40.8692 119.013 41.0642C119.018 41.2592 118.988 41.4542 118.931 41.6542ZM118.461 40.5242C118.41 40.3592 118.327 40.2192 118.229 40.0992C118.126 39.9792 118.002 39.8892 117.852 39.8192C117.708 39.7542 117.543 39.7192 117.357 39.7192C117.171 39.7192 117.006 39.7542 116.862 39.8192C116.717 39.8842 116.588 39.9792 116.485 40.0992C116.382 40.2192 116.305 40.3642 116.253 40.5242C116.201 40.6842 116.17 40.8642 116.17 41.0642C116.17 41.2592 116.196 41.4342 116.253 41.6042C116.305 41.7692 116.387 41.9142 116.485 42.0292C116.588 42.1492 116.712 42.2392 116.862 42.3092C117.006 42.3742 117.171 42.4092 117.357 42.4092C117.543 42.4092 117.708 42.3742 117.852 42.3092C118.002 42.2442 118.126 42.1492 118.229 42.0292C118.332 41.9092 118.41 41.7642 118.461 41.6042C118.513 41.4392 118.544 41.2642 118.544 41.0692C118.544 40.8692 118.518 40.6892 118.461 40.5242Z" fill="#414042"/>
<path id="Vector_17" d="M121.975 42.7141H121.516V39.4141H123.089C123.239 39.4141 123.378 39.4291 123.512 39.4591C123.646 39.4891 123.765 39.5341 123.868 39.6041C123.972 39.6691 124.054 39.7641 124.116 39.8791C124.178 39.9941 124.209 40.1341 124.209 40.3041C124.209 40.4191 124.193 40.5191 124.168 40.6091C124.142 40.6941 124.106 40.7691 124.059 40.8291C124.013 40.8891 123.966 40.9391 123.91 40.9791C123.858 41.0191 123.796 41.0591 123.734 41.0941C123.796 41.1191 123.848 41.1441 123.889 41.1641C123.93 41.1891 123.972 41.2191 124.008 41.2641C124.044 41.3091 124.075 41.3691 124.101 41.4391C124.126 41.5091 124.137 41.6041 124.142 41.7141L124.173 42.3091C124.178 42.4041 124.188 42.4741 124.209 42.5191C124.229 42.5641 124.276 42.6041 124.343 42.6391V42.7141H123.781C123.765 42.6691 123.75 42.6041 123.739 42.5291C123.729 42.4491 123.719 42.3741 123.714 42.2941C123.708 42.2141 123.703 42.1391 123.703 42.0641C123.698 41.9891 123.698 41.9291 123.698 41.8891C123.698 41.8091 123.693 41.7391 123.677 41.6691C123.667 41.6041 123.636 41.5441 123.595 41.4841C123.554 41.4291 123.492 41.3841 123.409 41.3491C123.327 41.3141 123.223 41.2991 123.089 41.2991H121.975V42.7141ZM121.975 40.9191H123.043C123.136 40.9191 123.223 40.9141 123.306 40.8941C123.383 40.8791 123.456 40.8491 123.523 40.8091C123.59 40.7691 123.641 40.7091 123.677 40.6341C123.714 40.5591 123.734 40.4591 123.734 40.3441C123.734 40.2241 123.714 40.1291 123.677 40.0541C123.636 39.9791 123.59 39.9241 123.528 39.8841C123.466 39.8491 123.404 39.8241 123.337 39.8091C123.27 39.7991 123.203 39.7891 123.131 39.7891H121.985V40.9191H121.975Z" fill="#414042"/>
<path id="Vector_18" d="M127.237 42.3191H128.961V42.7141H126.773V39.4141H127.232V42.3191H127.237Z" fill="#414042"/>
<path id="Vector_19" d="M131.334 39.4189H132.711C132.928 39.4189 133.129 39.4589 133.305 39.5339C133.48 39.6089 133.635 39.719 133.759 39.864C133.883 40.004 133.975 40.174 134.042 40.374C134.11 40.574 134.141 40.789 134.141 41.024C134.141 41.224 134.115 41.424 134.068 41.619C134.017 41.819 133.939 41.999 133.826 42.164C133.712 42.329 133.563 42.464 133.372 42.564C133.181 42.664 132.954 42.714 132.691 42.714H131.329V39.4189H131.334ZM131.793 42.334H132.686C132.99 42.334 133.227 42.224 133.408 41.994C133.583 41.769 133.671 41.454 133.671 41.044C133.671 40.634 133.583 40.329 133.403 40.114C133.222 39.899 132.974 39.7939 132.655 39.7939H131.798V42.334H131.793Z" fill="#414042"/>
</g>
<g id="Group_6">
<path id="Vector_20" d="M62.5377 14.6445H56.7539V34.3297H62.5377V14.6445Z" fill="#414042"/>
<path id="Vector_21" d="M72.48 26.864C72.5986 27.844 72.8618 28.544 73.2642 28.959C73.9762 29.694 75.2867 30.064 77.206 30.064C78.3308 30.064 79.2285 29.904 79.8889 29.579C80.5545 29.254 80.8847 28.769 80.8847 28.124C80.8847 27.504 80.6164 27.034 80.085 26.709C79.5484 26.384 77.562 25.829 74.1207 25.044C71.6441 24.449 69.8951 23.704 68.8838 22.814C67.8726 21.934 67.3618 20.669 67.3618 19.014C67.3618 17.0639 68.1512 15.3839 69.7351 13.9839C71.3191 12.5839 73.548 11.8789 76.4218 11.8789C79.146 11.8789 81.3697 12.4039 83.0878 13.4589C84.8059 14.5139 85.7914 16.3339 86.0442 18.914H80.343C80.2604 18.2039 80.054 17.6389 79.7238 17.2289C79.0944 16.4789 78.0264 16.1039 76.5147 16.1039C75.2712 16.1039 74.3838 16.2939 73.8575 16.6639C73.3313 17.0389 73.063 17.4789 73.063 17.9839C73.063 18.619 73.3416 19.074 73.904 19.359C74.4664 19.654 76.4476 20.169 79.858 20.889C82.1281 21.404 83.8308 22.189 84.9658 23.234C86.0854 24.294 86.6478 25.619 86.6478 27.209C86.6478 29.304 85.8429 31.014 84.2332 32.339C82.6235 33.6641 80.1314 34.3241 76.7675 34.3241C73.3313 34.3241 70.798 33.6241 69.1624 32.219C67.5269 30.819 66.7065 29.029 66.7065 26.859H72.48V26.864Z" fill="#414042"/>
<path id="Vector_22" d="M88.603 17.0244V13.0894H91.6419V7.19434H97.2812V13.0894H100.821V17.0244H97.2812V28.1895C97.2812 29.0545 97.3947 29.5945 97.6218 29.8095C97.8488 30.0245 98.5401 30.1295 99.701 30.1295C99.8764 30.1295 100.057 30.1245 100.253 30.1195C100.444 30.1145 100.635 30.1045 100.821 30.0895V34.2195L98.1222 34.3145C95.429 34.4045 93.5871 33.9545 92.6016 32.9595C91.9618 32.3245 91.6419 31.3495 91.6419 30.0345V17.0244H88.603Z" fill="#414042"/>
<path id="Vector_23" d="M102.245 17.0244V13.0894H105.284V7.19434H110.928V13.0894H114.467V17.0244H110.928V28.1895C110.928 29.0545 111.041 29.5945 111.269 29.8095C111.496 30.0245 112.187 30.1295 113.348 30.1295C113.523 30.1295 113.704 30.1245 113.9 30.1195C114.091 30.1145 114.282 30.1045 114.467 30.0895V34.2195L111.769 34.3145C109.076 34.4045 107.234 33.9545 106.248 32.9595C105.609 32.3245 105.289 31.3495 105.289 30.0345V17.0244H102.245Z" fill="#414042"/>
<g id="Group_7">
<g id="Group_8">
<path id="Vector_24" d="M61.062 8.22434L61.4747 7.82434C60.9743 7.42934 60.3397 7.19434 59.6431 7.19434C58.9466 7.19434 58.312 7.42934 57.8115 7.82434L58.2243 8.22434C58.6164 7.92934 59.1065 7.75434 59.6431 7.75434C60.1797 7.75434 60.6699 7.92934 61.062 8.22434Z" fill="#414042"/>
<path id="Vector_25" d="M61.4697 11.3688L61.8825 11.7688C62.2901 11.2838 62.5326 10.6688 62.5326 9.99376C62.5326 9.31876 62.2901 8.70375 61.8825 8.21875L61.4697 8.61875C61.7741 8.99875 61.9547 9.47376 61.9547 9.99376C61.9599 10.5138 61.7741 10.9888 61.4697 11.3688Z" fill="#414042"/>
<path id="Vector_26" d="M57.8168 8.62364L57.404 8.22363C56.9964 8.70864 56.7539 9.32364 56.7539 9.99864C56.7539 10.6736 56.9964 11.2887 57.404 11.7737L57.8168 11.3737C57.5123 10.9937 57.3318 10.5186 57.3318 9.99864C57.3318 9.47864 57.5123 9.00364 57.8168 8.62364Z" fill="#414042"/>
<path id="Vector_27" d="M58.2243 11.7695L57.8115 12.1695C58.312 12.5645 58.9466 12.7995 59.6431 12.7995C60.3397 12.7995 60.9743 12.5645 61.4747 12.1695L61.062 11.7695C60.6699 12.0645 60.1797 12.2395 59.6431 12.2395C59.1065 12.2395 58.6164 12.0645 58.2243 11.7695Z" fill="#414042"/>
</g>
<g id="Group_9">
<path id="Vector_28" d="M59.6432 11.6784C60.6007 11.6784 61.3768 10.9262 61.3768 9.99837C61.3768 9.07053 60.6007 8.31836 59.6432 8.31836C58.6858 8.31836 57.9097 9.07053 57.9097 9.99837C57.9097 10.9262 58.6858 11.6784 59.6432 11.6784Z" fill="#414042"/>
</g>
</g>
<path id="Vector_29" d="M136.318 32.2143C136.132 31.9543 136.018 31.4643 135.977 30.7393C135.951 29.7843 135.936 28.9693 135.936 28.2943V18.6042C135.936 16.0592 135.007 14.3242 133.145 13.4092C131.282 12.4892 129.151 12.0342 126.757 12.0342C123.073 12.0342 120.473 12.9642 118.961 14.8242C118.012 16.0142 117.475 17.5342 117.352 19.3792H122.852C122.986 18.5642 123.259 17.9192 123.662 17.4392C124.229 16.7942 125.194 16.4692 126.561 16.4692C127.779 16.4692 128.702 16.6342 129.327 16.9642C129.956 17.2942 130.271 17.8942 130.271 18.7592C130.271 19.4692 129.863 19.9942 129.043 20.3292C128.584 20.5242 127.825 20.6842 126.768 20.8142L124.812 21.0492C122.594 21.3192 120.917 21.7742 119.771 22.4043C117.687 23.5693 116.65 25.4493 116.65 28.0443C116.65 30.0493 117.295 31.5943 118.59 32.6893C119.885 33.7793 121.526 34.3293 123.512 34.3293C125.07 34.3293 126.463 33.9843 127.696 33.3043C128.728 32.7243 129.641 32.0193 130.431 31.1893C130.472 31.6693 130.524 32.0943 130.591 32.4693C130.658 32.8443 130.776 33.2443 130.952 33.6693H137.154V32.8543C136.782 32.6893 136.503 32.4743 136.318 32.2143ZM126.303 23.3943C127.253 23.3943 128.125 23.7193 128.806 24.2593L128.243 24.8043C127.707 24.3993 127.036 24.1593 126.303 24.1593C125.571 24.1593 124.9 24.3993 124.363 24.8043L123.801 24.2593C124.482 23.7193 125.354 23.3943 126.303 23.3943ZM128.671 27.2243C128.671 28.4943 127.609 29.5193 126.303 29.5193C124.993 29.5193 123.935 28.4893 123.935 27.2243C123.935 25.9543 124.998 24.9293 126.303 24.9293C127.614 24.9243 128.671 25.9543 128.671 27.2243ZM123.244 29.6443C122.686 28.9843 122.351 28.1393 122.351 27.2193C122.351 26.2993 122.686 25.4543 123.244 24.7943L123.806 25.3393C123.388 25.8593 123.14 26.5093 123.14 27.2193C123.14 27.9293 123.388 28.5793 123.806 29.0993L123.244 29.6443ZM126.303 31.0493C125.354 31.0493 124.482 30.7243 123.801 30.1843L124.363 29.6393C124.9 30.0443 125.571 30.2843 126.303 30.2843C127.036 30.2843 127.707 30.0443 128.243 29.6393L128.806 30.1843C128.125 30.7243 127.253 31.0493 126.303 31.0493ZM129.363 29.6443L128.8 29.0993C129.218 28.5793 129.466 27.9293 129.466 27.2193C129.466 26.5093 129.218 25.8593 128.8 25.3393L129.363 24.7943C129.92 25.4543 130.255 26.2993 130.255 27.2193C130.255 28.1393 129.92 28.9843 129.363 29.6443Z" fill="#414042"/>
<path id="Vector_30" d="M159.102 32.2143C158.916 31.9543 158.803 31.4643 158.761 30.7393C158.736 29.7843 158.72 28.9693 158.72 28.2943V18.6042C158.72 16.0592 157.791 14.3242 155.929 13.4092C154.066 12.4892 151.935 12.0342 149.541 12.0342C145.858 12.0342 143.257 12.9642 141.746 14.8242C140.796 16.0142 140.26 17.5342 140.136 19.3792H145.636C145.77 18.5642 146.043 17.9192 146.446 17.4392C147.013 16.7942 147.978 16.4692 149.345 16.4692C150.563 16.4692 151.487 16.6342 152.111 16.9642C152.74 17.2942 153.055 17.8942 153.055 18.7592C153.055 19.4692 152.647 19.9942 151.827 20.3292C151.368 20.5242 150.609 20.6842 149.552 20.8142L147.596 21.0492C145.378 21.3192 143.701 21.7742 142.556 22.4043C140.471 23.5693 139.434 25.4493 139.434 28.0443C139.434 30.0493 140.079 31.5943 141.374 32.6893C142.669 33.7793 144.31 34.3293 146.296 34.3293C147.854 34.3293 149.247 33.9843 150.48 33.3043C151.512 32.7243 152.426 32.0193 153.215 31.1893C153.256 31.6693 153.308 32.0943 153.375 32.4693C153.442 32.8443 153.561 33.2443 153.736 33.6693H159.943V32.8543C159.571 32.6893 159.288 32.4743 159.102 32.2143ZM149.087 23.3943C150.037 23.3943 150.909 23.7193 151.59 24.2593L151.027 24.8043C150.491 24.3993 149.82 24.1593 149.087 24.1593C148.355 24.1593 147.684 24.3993 147.147 24.8043L146.585 24.2593C147.271 23.7193 148.143 23.3943 149.087 23.3943ZM151.461 27.2243C151.461 28.4943 150.398 29.5193 149.093 29.5193C147.782 29.5193 146.724 28.4893 146.724 27.2243C146.724 25.9543 147.787 24.9293 149.093 24.9293C150.398 24.9243 151.461 25.9543 151.461 27.2243ZM146.033 29.6443C145.476 28.9843 145.14 28.1393 145.14 27.2193C145.14 26.2993 145.476 25.4543 146.033 24.7943L146.595 25.3393C146.177 25.8593 145.93 26.5093 145.93 27.2193C145.93 27.9293 146.177 28.5793 146.595 29.0993L146.033 29.6443ZM149.087 31.0493C148.138 31.0493 147.266 30.7243 146.585 30.1843L147.147 29.6393C147.684 30.0443 148.355 30.2843 149.087 30.2843C149.82 30.2843 150.491 30.0443 151.027 29.6393L151.59 30.1843C150.909 30.7243 150.037 31.0493 149.087 31.0493ZM152.147 29.6443L151.585 29.0993C152.002 28.5793 152.25 27.9293 152.25 27.2193C152.25 26.5093 152.002 25.8593 151.585 25.3393L152.147 24.7943C152.704 25.4543 153.04 26.2993 153.04 27.2193C153.04 28.1393 152.704 28.9843 152.147 29.6443Z" fill="#414042"/>
</g>
</g>
</g>
</svg>
