<svg width="215" height="80" viewBox="0 0 215 80" fill="none" xmlns="http://www.w3.org/2000/svg">
<path d="M51.611 12.7416L56.5381 7.81456C50.5698 2.93046 42.9377 0 34.624 0C26.3103 0 18.6782 2.93046 12.71 7.81456L17.637 12.7416C22.3279 9.09463 28.221 6.92362 34.624 6.92362C41.027 6.92362 46.9202 9.09732 51.611 12.7416Z" fill="#424143"/>
<path d="M56.5078 51.613L61.4349 56.54C66.319 50.5718 69.2494 42.9397 69.2494 34.626C69.2494 26.3123 66.319 18.6802 61.4349 12.7119L56.5078 17.639C60.1548 22.3298 62.3258 28.223 62.3258 34.626C62.3258 41.0263 60.1548 46.9221 56.5078 51.613Z" fill="#424143"/>
<path d="M12.7416 17.639L7.81457 12.7119C2.93046 18.6802 0 26.3123 0 34.626C0 42.9397 2.93046 50.5718 7.81457 56.54L12.7416 51.613C9.09463 46.9221 6.92362 41.029 6.92362 34.626C6.92362 28.223 9.09463 22.3298 12.7416 17.639Z" fill="#424143"/>
<path d="M17.637 56.5078L12.71 61.4348C18.6782 66.319 26.3103 69.2494 34.624 69.2494C42.9377 69.2494 50.5698 66.319 56.5381 61.4348L51.611 56.5078C46.9202 60.1548 41.027 62.3258 34.624 62.3258C28.2237 62.3258 22.3279 60.1548 17.637 56.5078Z" fill="#424143"/>
<path d="M34.6239 55.403C46.0983 55.403 55.4001 46.1012 55.4001 34.6268C55.4001 23.1524 46.0983 13.8506 34.6239 13.8506C23.1495 13.8506 13.8477 23.1524 13.8477 34.6268C13.8477 46.1012 23.1495 55.403 34.6239 55.403Z" fill="#424143"/>
<path d="M23.1324 33.2649H26.7337V37.6552H26.0119L25.7489 36.5925C25.4671 36.9816 25.0833 37.2929 24.6003 37.5237C24.1173 37.7572 23.5966 37.8726 23.0385 37.8726C22.4132 37.8726 21.906 37.784 21.5169 37.6096C21.1278 37.4351 20.7977 37.2124 20.5213 36.9467C20.2234 36.6649 19.9846 36.3671 19.8074 36.0558C19.6276 35.7445 19.4988 35.4386 19.4183 35.1407C19.3378 34.8428 19.2868 34.5664 19.2654 34.3114C19.2412 34.0565 19.2305 33.7801 19.2305 33.4822C19.2305 32.9643 19.311 32.4544 19.4693 31.9499C19.6303 31.4481 19.8692 30.9892 20.1885 30.5786C20.5079 30.168 20.9158 29.8379 21.4122 29.5964C21.9087 29.3522 22.4749 29.2314 23.1163 29.2314C23.5054 29.2314 23.8945 29.2878 24.2836 29.3978C24.6728 29.5079 25.0297 29.6769 25.3571 29.9077C25.6845 30.1358 25.9582 30.423 26.1809 30.7664C26.401 31.1099 26.5378 31.5018 26.5915 31.9445H25.5181C25.4349 31.601 25.3034 31.3166 25.129 31.0858C24.9545 30.8577 24.7506 30.6806 24.5225 30.5544C24.2944 30.4283 24.0555 30.3424 23.8086 30.2915C23.5618 30.2432 23.3122 30.2163 23.0599 30.2163C22.6869 30.2163 22.338 30.2888 22.0133 30.4337C21.6886 30.5786 21.4042 30.7933 21.1546 31.0804C20.9077 31.3676 20.7145 31.7164 20.5776 32.1324C20.4408 32.5483 20.371 33.018 20.371 33.5439C20.371 33.9948 20.4139 34.4161 20.5025 34.8133C20.591 35.2105 20.736 35.5674 20.9372 35.8867C21.1385 36.2061 21.4203 36.461 21.7825 36.6462C22.1448 36.834 22.5849 36.9253 23.1029 36.9253C23.3846 36.9253 23.6691 36.8904 23.9536 36.8233C24.2407 36.7535 24.5144 36.614 24.7828 36.3993C25.1182 36.1336 25.3517 35.8223 25.4859 35.4681C25.6201 35.1138 25.6871 34.6952 25.6871 34.2175H23.127V33.2649H23.1324Z" fill="white"/>
<path d="M29.4683 37.6547H28.4619V31.6757H29.4119V32.6713H29.436C29.6481 32.2982 29.8923 32.0111 30.1687 31.8072C30.4424 31.6059 30.7591 31.5039 31.1186 31.5039C31.2179 31.5039 31.3065 31.5146 31.3816 31.5388V32.58H31.0033C30.5444 32.58 30.1767 32.733 29.8949 33.0443C29.6132 33.3529 29.4709 33.7313 29.4709 34.1821V37.6547H29.4683Z" fill="white"/>
<path d="M31.9589 33.5032C32.0743 33.1302 32.246 32.7893 32.4741 32.4861C32.7022 32.1802 32.9947 31.9413 33.3489 31.7669C33.7032 31.5925 34.1084 31.5039 34.5673 31.5039C35.0262 31.5039 35.4314 31.5925 35.7856 31.7669C36.1399 31.9413 36.4324 32.1802 36.6605 32.4807C36.8886 32.7813 37.0603 33.1221 37.1757 33.4978C37.2911 33.8762 37.3475 34.2626 37.3475 34.6571C37.3475 35.0543 37.2911 35.438 37.1757 35.811C37.0603 36.1841 36.8913 36.5249 36.6605 36.8281C36.4324 37.134 36.1399 37.3729 35.7856 37.5473C35.4314 37.7217 35.0262 37.8103 34.5673 37.8103C34.1111 37.8103 33.7032 37.7217 33.3489 37.5473C32.9947 37.3729 32.7022 37.1314 32.4741 36.8281C32.246 36.5222 32.0743 36.1841 31.9589 35.811C31.8435 35.438 31.7871 35.0516 31.7871 34.6571C31.7898 34.2626 31.8461 33.8789 31.9589 33.5032ZM32.9088 35.3897C32.9625 35.65 33.0511 35.8969 33.1772 36.1331C33.3033 36.3692 33.4804 36.5651 33.7085 36.7154C33.9366 36.8684 34.2238 36.9435 34.5673 36.9435C34.9108 36.9435 35.1952 36.8684 35.426 36.7154C35.6541 36.5624 35.8339 36.3692 35.9627 36.1331C36.0916 35.8969 36.1828 35.65 36.2311 35.3897C36.2794 35.1294 36.3062 34.8879 36.3062 34.6571C36.3062 34.429 36.2821 34.1848 36.2311 33.9245C36.1801 33.6642 36.0916 33.4173 35.9627 33.1811C35.8339 32.945 35.6541 32.7518 35.426 32.5988C35.1979 32.4458 34.9108 32.3707 34.5673 32.3707C34.2238 32.3707 33.9393 32.4485 33.7085 32.5988C33.4804 32.7518 33.3033 32.945 33.1772 33.1811C33.0511 33.4173 32.9625 33.6642 32.9088 33.9245C32.8552 34.1848 32.8283 34.4263 32.8283 34.6571C32.8283 34.8879 32.8552 35.1321 32.9088 35.3897Z" fill="white"/>
<path d="M42.387 37.6553V36.7858L42.3656 36.7616C42.1455 37.1266 41.8879 37.3976 41.6008 37.5667C41.3109 37.7385 40.9326 37.8243 40.4683 37.8243C40.2321 37.8243 40.0014 37.7948 39.7759 37.7331C39.5505 37.6714 39.3439 37.5694 39.1533 37.4245C38.9628 37.2796 38.8098 37.0864 38.6971 36.8475C38.5817 36.6087 38.5254 36.3162 38.5254 35.9727V31.6736H39.5317V35.6399C39.5317 36.1042 39.6337 36.4396 39.8403 36.6462C40.047 36.8529 40.3287 36.9549 40.6857 36.9549C40.9916 36.9549 41.2492 36.8958 41.4639 36.7777C41.6759 36.6597 41.8477 36.5013 41.9738 36.3027C42.0999 36.1042 42.1912 35.8922 42.2475 35.6614C42.3039 35.4333 42.3334 35.1998 42.3334 34.9636V31.6709H43.3397V37.6499H42.387V37.6553Z" fill="white"/>
<path d="M44.7644 31.6757H45.7144V32.521H45.7359L45.7466 32.5102C45.8298 32.3895 45.9157 32.2768 46.0042 32.1721C46.0928 32.0701 46.2055 31.9655 46.3477 31.8581C46.4899 31.7508 46.6563 31.6649 46.8495 31.6005C47.0428 31.5361 47.2655 31.5039 47.5177 31.5039C48.296 31.5039 48.9052 31.783 49.3479 32.3439C49.7907 32.9047 50.0108 33.6186 50.0108 34.488C50.0108 34.8772 49.9679 35.2663 49.8793 35.6554C49.7907 36.0445 49.6458 36.4014 49.4446 36.7288C49.2433 37.0562 48.9696 37.3219 48.6261 37.5232C48.2826 37.7244 47.8666 37.8264 47.3809 37.8264C47.0079 37.8264 46.6858 37.7513 46.4148 37.5983C46.1438 37.4453 45.9371 37.2548 45.7922 37.0267H45.7681V40.0216H44.7617V31.6757H44.7644ZM45.8808 35.8996C45.9827 36.1626 46.1196 36.3719 46.286 36.5276C46.4524 36.6832 46.6322 36.7932 46.8173 36.8603C47.0052 36.9247 47.185 36.9569 47.3594 36.9569C47.8854 36.9569 48.2852 36.7449 48.559 36.3209C48.8327 35.8969 48.9696 35.3387 48.9696 34.6464C48.9696 34.3861 48.9535 34.1392 48.9239 33.903C48.8944 33.6669 48.8246 33.4334 48.7173 33.1999C48.61 32.9665 48.4436 32.7759 48.2208 32.6283C47.9954 32.4807 47.7002 32.4056 47.3353 32.4056C46.9918 32.4056 46.7127 32.4861 46.4953 32.6444C46.2779 32.8054 46.1142 33.0148 46.0042 33.2724C45.8942 33.5327 45.819 33.801 45.7815 34.0775C45.7439 34.3565 45.7251 34.6437 45.7251 34.9416C45.7251 35.3173 45.7761 35.6366 45.8808 35.8996Z" fill="white"/>
<path d="M77.2895 57.8338L76.8118 59.1648H76.1758L77.8933 54.5947H78.5937L80.2494 59.1648H79.5759L79.125 57.8338H77.2895ZM78.8996 57.2863L78.226 55.2763H78.2126L77.48 57.2863H78.8996Z" fill="#424143"/>
<path d="M90.8823 55.9686C90.8393 55.7781 90.7722 55.6198 90.6783 55.4936C90.5844 55.3675 90.477 55.2709 90.3563 55.2011C90.2355 55.1314 90.1121 55.083 89.9833 55.0589C89.8571 55.0347 89.7283 55.0213 89.6022 55.0213C89.1701 55.0213 88.8132 55.1797 88.5288 55.4963C88.247 55.813 88.1048 56.2584 88.1048 56.8354C88.1048 57.1145 88.1316 57.3695 88.1853 57.6002C88.2389 57.8283 88.3248 58.0296 88.4429 58.1987C88.561 58.3677 88.7193 58.5019 88.9125 58.5958C89.1084 58.6924 89.3419 58.7381 89.6183 58.7381C89.7364 58.7381 89.8598 58.722 89.9833 58.6871C90.1067 58.6522 90.2328 58.5905 90.359 58.4992C90.4851 58.408 90.5978 58.2792 90.6998 58.1101C90.8017 57.9437 90.8769 57.7344 90.9225 57.4822H91.5209C91.4619 57.882 91.3465 58.2067 91.1748 58.4563C91.003 58.7059 90.8098 58.891 90.5978 59.0064C90.3858 59.1245 90.1899 59.1996 90.0101 59.2318C89.8303 59.2667 89.6666 59.2828 89.5244 59.2828C89.2533 59.2828 88.9957 59.2372 88.7515 59.1433C88.5073 59.0494 88.2899 58.9071 88.0967 58.7139C87.9035 58.5207 87.7505 58.2684 87.6378 57.9571C87.5251 57.6459 87.4688 57.2782 87.4688 56.8542C87.4688 56.5027 87.517 56.1806 87.6137 55.8881C87.7103 55.5956 87.8525 55.3434 88.0377 55.134C88.2228 54.9247 88.4482 54.761 88.7112 54.6483C88.9742 54.5356 89.2721 54.4766 89.5995 54.4766C89.884 54.4766 90.1389 54.5168 90.3643 54.5973C90.5897 54.6778 90.7803 54.7879 90.9359 54.9274C91.0943 55.0669 91.2177 55.228 91.3089 55.4078C91.4002 55.5876 91.4565 55.7754 91.478 55.9713H90.8823V55.9686Z" fill="#424143"/>
<path d="M98.9189 57.6966C98.8438 57.9757 98.7177 58.2333 98.5432 58.4748C98.3688 58.7164 98.138 58.9123 97.8455 59.0599C97.5557 59.2075 97.2068 59.2826 96.8043 59.2826C96.4017 59.2826 96.0555 59.2075 95.763 59.0599C95.4732 58.9123 95.2397 58.7164 95.0653 58.4748C94.8909 58.2333 94.7674 57.973 94.6896 57.6966C94.6145 57.4175 94.5742 57.1465 94.5742 56.8781C94.5742 56.6098 94.6145 56.3387 94.6923 56.0596C94.7701 55.7805 94.8962 55.5229 95.068 55.2814C95.2397 55.0399 95.4705 54.844 95.7604 54.6964C96.0502 54.5488 96.3991 54.4736 96.8016 54.4736C97.2041 54.4736 97.5503 54.5488 97.8428 54.6964C98.1326 54.844 98.3661 55.0399 98.5405 55.2814C98.715 55.5229 98.8384 55.7832 98.9162 56.0596C98.9914 56.3387 99.0316 56.6098 99.0316 56.8781C99.0343 57.1465 98.9967 57.4202 98.9189 57.6966ZM98.291 56.1321C98.2185 55.904 98.1139 55.7081 97.977 55.5444C97.8401 55.378 97.6711 55.2519 97.4752 55.1606C97.2793 55.0694 97.0565 55.0238 96.8096 55.0238C96.5628 55.0238 96.3427 55.0694 96.1441 55.1606C95.9482 55.2519 95.7791 55.3807 95.6423 55.5497C95.5054 55.7161 95.3981 55.9147 95.3283 56.1375C95.2558 56.3629 95.221 56.6098 95.221 56.8835C95.221 57.1518 95.2558 57.3987 95.3283 57.6268C95.4008 57.8549 95.5054 58.0535 95.6423 58.2199C95.7791 58.3863 95.9482 58.5124 96.1441 58.6037C96.34 58.6949 96.5628 58.7405 96.8096 58.7405C97.0565 58.7405 97.2766 58.6949 97.4752 58.6037C97.6737 58.5124 97.8401 58.3836 97.977 58.2145C98.1139 58.0482 98.2185 57.8496 98.291 57.6215C98.3634 57.3934 98.3983 57.1465 98.3983 56.8808C98.3983 56.6071 98.3607 56.3575 98.291 56.1321Z" fill="#424143"/>
<path d="M106.074 59.1646V56.4676C106.074 56.4542 106.076 56.3603 106.079 56.1805C106.084 55.8021 106.084 55.5176 106.084 55.3271H106.071L104.786 59.1646H104.174L102.888 55.3325H102.875C102.875 55.5203 102.877 55.7994 102.88 56.1724C102.886 56.3549 102.886 56.4515 102.886 56.4649V59.1619H102.287V54.5918H103.173L104.477 58.4535H104.49L105.789 54.5918H106.667V59.1619H106.074V59.1646Z" fill="#424143"/>
<path d="M110.84 59.1648H110.223V54.5947H112.278C112.694 54.5947 113.024 54.7155 113.269 54.9543C113.513 55.1932 113.633 55.5018 113.633 55.8802C113.633 56.0492 113.609 56.2156 113.558 56.3739C113.507 56.5323 113.427 56.6772 113.32 56.806C113.212 56.9348 113.07 57.0395 112.896 57.1173C112.721 57.1951 112.517 57.2354 112.278 57.2354H110.84V59.1648ZM110.84 56.7067H112.069C112.367 56.7067 112.595 56.6423 112.756 56.5162C112.917 56.39 112.997 56.178 112.997 55.8855C112.997 55.6145 112.917 55.4186 112.756 55.3005C112.595 55.1824 112.375 55.1234 112.093 55.1234H110.84V56.7067Z" fill="#424143"/>
<path d="M117.564 58.6174H119.88V59.1648H116.947V54.5947H117.564V58.6174Z" fill="#424143"/>
<path d="M126.469 59.1648H123.096V54.5947H126.423V55.1422H123.713V56.543H126.214V57.0904H123.713V58.6174H126.469V59.1648Z" fill="#424143"/>
<path d="M129.426 54.5947H133.137V55.1422H131.591V59.1648H130.974V55.1422H129.428V54.5947H129.426Z" fill="#424143"/>
<path d="M139.691 59.1648H136.317V54.5947H139.645V55.1422H136.935V56.543H139.436V57.0904H136.935V58.6174H139.691V59.1648Z" fill="#424143"/>
<path d="M148.563 59.1648H147.913L146.725 54.5947H147.393L148.246 58.3115H148.26L149.285 54.5947H149.958L150.983 58.3115H150.997L151.85 54.5947H152.532L151.33 59.1648H150.68L149.636 55.3783H149.623L148.563 59.1648Z" fill="#424143"/>
<path d="M159.635 57.6966C159.56 57.9757 159.433 58.2333 159.259 58.4748C159.085 58.7164 158.854 58.9123 158.561 59.0599C158.271 59.2075 157.923 59.2826 157.52 59.2826C157.118 59.2826 156.771 59.2075 156.479 59.0599C156.189 58.9123 155.956 58.7164 155.781 58.4748C155.607 58.2333 155.483 57.973 155.405 57.6966C155.33 57.4175 155.29 57.1465 155.29 56.8781C155.29 56.6098 155.33 56.3387 155.408 56.0596C155.486 55.7805 155.612 55.5229 155.784 55.2814C155.956 55.0399 156.186 54.844 156.476 54.6964C156.766 54.5488 157.115 54.4736 157.517 54.4736C157.92 54.4736 158.266 54.5488 158.559 54.6964C158.848 54.844 159.082 55.0399 159.256 55.2814C159.431 55.5229 159.554 55.7832 159.632 56.0596C159.707 56.3387 159.747 56.6098 159.747 56.8781C159.75 57.1465 159.713 57.4202 159.635 57.6966ZM159.004 56.1321C158.932 55.904 158.827 55.7081 158.69 55.5444C158.553 55.378 158.384 55.2519 158.188 55.1606C157.992 55.0694 157.77 55.0238 157.523 55.0238C157.276 55.0238 157.056 55.0694 156.857 55.1606C156.661 55.2519 156.492 55.3807 156.355 55.5497C156.219 55.7161 156.111 55.9147 156.041 56.1375C155.969 56.3629 155.934 56.6098 155.934 56.8835C155.934 57.1518 155.969 57.3987 156.041 57.6268C156.114 57.8549 156.219 58.0535 156.355 58.2199C156.492 58.3863 156.661 58.5124 156.857 58.6037C157.053 58.6949 157.276 58.7405 157.523 58.7405C157.77 58.7405 157.99 58.6949 158.188 58.6037C158.387 58.5124 158.553 58.3836 158.69 58.2145C158.827 58.0482 158.932 57.8496 159.004 57.6215C159.077 57.3934 159.111 57.1465 159.111 56.8808C159.114 56.6071 159.077 56.3575 159.004 56.1321Z" fill="#424143"/>
<path d="M163.722 59.1648H163.104V54.5947H165.216C165.415 54.5947 165.606 54.6135 165.783 54.6564C165.96 54.6967 166.121 54.7638 166.26 54.8577C166.4 54.9516 166.513 55.0778 166.596 55.2361C166.679 55.3944 166.719 55.5903 166.719 55.8238C166.719 55.9848 166.7 56.1244 166.666 56.2451C166.631 56.3632 166.58 56.4652 166.521 56.5484C166.459 56.6316 166.395 56.7013 166.322 56.7577C166.252 56.814 166.172 56.8704 166.083 56.9214C166.169 56.9563 166.239 56.9885 166.293 57.0207C166.349 57.0529 166.4 57.0985 166.451 57.1602C166.502 57.2219 166.542 57.3025 166.574 57.4018C166.607 57.501 166.625 57.6272 166.628 57.7801L166.666 58.6067C166.671 58.7382 166.684 58.8348 166.714 58.8965C166.741 58.9582 166.802 59.0146 166.896 59.0656V59.1675H166.14C166.118 59.1031 166.099 59.0173 166.086 58.9099C166.07 58.8026 166.062 58.6925 166.054 58.5852C166.046 58.4779 166.043 58.3705 166.038 58.2632C166.032 58.1558 166.032 58.0753 166.032 58.0217C166.032 57.9116 166.024 57.8097 166.008 57.7184C165.992 57.6272 165.954 57.5413 165.895 57.4635C165.839 57.3856 165.753 57.3239 165.643 57.2756C165.533 57.23 165.391 57.2058 165.216 57.2058H163.722V59.1648ZM163.722 56.6772H165.155C165.281 56.6772 165.399 56.6664 165.504 56.645C165.608 56.6235 165.708 56.5859 165.796 56.5296C165.885 56.4732 165.954 56.3927 166.005 56.2881C166.056 56.1807 166.081 56.0492 166.081 55.8882C166.081 55.7218 166.054 55.5876 166 55.483C165.946 55.3783 165.879 55.3005 165.796 55.2495C165.713 55.1985 165.627 55.1636 165.538 55.1475C165.45 55.1314 165.356 55.1234 165.259 55.1234H163.719V56.6772H163.722Z" fill="#424143"/>
<path d="M170.785 58.6174H173.101V59.1648H170.168V54.5947H170.785V58.6174Z" fill="#424143"/>
<path d="M176.284 54.5947H178.136C178.428 54.5947 178.694 54.6484 178.936 54.753C179.174 54.8604 179.378 55.0107 179.542 55.2093C179.708 55.4052 179.835 55.6413 179.923 55.915C180.012 56.1888 180.057 56.4893 180.057 56.8167C180.057 57.0931 180.025 57.3669 179.958 57.6406C179.891 57.9143 179.784 58.1666 179.633 58.3973C179.483 58.6281 179.279 58.8133 179.027 58.9528C178.772 59.0924 178.466 59.1622 178.112 59.1622H176.284V54.5947ZM176.901 58.6362H178.098C178.506 58.6362 178.828 58.4805 179.064 58.1692C179.303 57.858 179.421 57.4205 179.421 56.8543C179.421 56.2907 179.301 55.8614 179.059 55.5662C178.817 55.271 178.482 55.1234 178.053 55.1234H176.901V58.6362Z" fill="#424143"/>
<path d="M83.9367 20.2852H76.1758V47.5476H83.9367V20.2852Z" fill="#424143"/>
<path d="M97.2826 37.2106C97.4436 38.5711 97.7952 39.5372 98.3346 40.1115C99.2873 41.1313 101.05 41.6411 103.624 41.6411C105.135 41.6411 106.337 41.4184 107.225 40.9702C108.116 40.5221 108.562 39.8512 108.562 38.9576C108.562 38.0988 108.202 37.444 107.486 36.9986C106.769 36.5504 104.099 35.7802 99.4805 34.688C96.1555 33.8642 93.8101 32.8363 92.4495 31.5992C91.0889 30.3809 90.41 28.6285 90.41 26.3367C90.41 23.6344 91.4727 21.3104 93.5981 19.3675C95.7235 17.4246 98.7157 16.4531 102.572 16.4531C106.232 16.4531 109.214 17.1831 111.519 18.6429C113.824 20.1028 115.147 22.6227 115.488 26.2025H107.834C107.727 25.2177 107.448 24.4394 107 23.8652C106.155 22.8266 104.719 22.3087 102.69 22.3087C101.021 22.3087 99.832 22.569 99.1236 23.0869C98.4151 23.6075 98.0609 24.214 98.0609 24.9117C98.0609 25.7893 98.4366 26.4253 99.1907 26.8171C99.9447 27.2304 102.607 27.9361 107.182 28.9398C110.231 29.6563 112.517 30.7378 114.039 32.1896C115.542 33.6575 116.296 35.4931 116.296 37.6936C116.296 40.5945 115.214 42.9615 113.054 44.797C110.894 46.6326 107.553 47.5504 103.031 47.5504C98.4205 47.5504 95.0177 46.5789 92.8198 44.636C90.622 42.6931 89.5244 40.2189 89.5244 37.2106H97.2826Z" fill="#424143"/>
<path d="M118.925 23.5806V18.1302H123.007V9.9668H130.58V18.1302H135.332V23.5806H130.58V39.0487C130.58 40.2482 130.733 40.9943 131.036 41.2895C131.339 41.5847 132.27 41.7323 133.829 41.7323C134.063 41.7323 134.307 41.7269 134.567 41.7188C134.828 41.7108 135.083 41.6974 135.332 41.6786V47.3973L131.707 47.5315C128.089 47.6576 125.62 47.0296 124.295 45.653C123.436 44.7754 123.007 43.4229 123.007 41.5981V23.5806H118.925Z" fill="#424143"/>
<path d="M137.24 23.5806V18.1302H141.322V9.9668H148.895V18.1302H153.648V23.5806H148.895V39.0487C148.895 40.2482 149.048 40.9943 149.351 41.2895C149.654 41.5847 150.586 41.7323 152.145 41.7323C152.378 41.7323 152.622 41.7269 152.883 41.7188C153.143 41.7108 153.398 41.6974 153.648 41.6786V47.3973L150.022 47.5315C146.405 47.6576 143.936 47.0296 142.61 45.653C141.751 44.7754 141.322 43.4229 141.322 41.5981V23.5806H137.24Z" fill="#424143"/>
<path d="M81.9587 11.3945L82.5115 10.8416C81.8433 10.2942 80.9873 9.9668 80.0561 9.9668C79.1249 9.9668 78.2688 10.2942 77.6006 10.8416L78.1534 11.3945C78.6794 10.9866 79.3395 10.7424 80.0561 10.7424C80.7726 10.7424 81.4327 10.9866 81.9587 11.3945Z" fill="#424143"/>
<path d="M82.5088 15.7497L83.0616 16.3025C83.6091 15.6343 83.9365 14.7783 83.9365 13.8471C83.9365 12.9159 83.6091 12.0598 83.0616 11.3916L82.5088 11.9444C82.9167 12.4704 83.1609 13.1306 83.1609 13.8471C83.1609 14.5636 82.9167 15.2237 82.5088 15.7497Z" fill="#424143"/>
<path d="M77.6034 11.9415L77.0506 11.3887C76.5032 12.0569 76.1758 12.9129 76.1758 13.8441C76.1758 14.7753 76.5032 15.6314 77.0506 16.2996L77.6034 15.7468C77.1955 15.2208 76.9513 14.5607 76.9513 13.8441C76.9513 13.1276 77.1955 12.4675 77.6034 11.9415Z" fill="#424143"/>
<path d="M78.1534 16.2969L77.6006 16.8497C78.2688 17.3971 79.1249 17.7245 80.0561 17.7245C80.9873 17.7245 81.8433 17.3971 82.5115 16.8497L81.9587 16.2969C81.4327 16.7048 80.7726 16.949 80.0561 16.949C79.3395 16.949 78.6794 16.7075 78.1534 16.2969Z" fill="#424143"/>
<path d="M80.0559 16.1772C81.3424 16.1772 82.3853 15.1344 82.3853 13.8479C82.3853 12.5614 81.3424 11.5186 80.0559 11.5186C78.7694 11.5186 77.7266 12.5614 77.7266 13.8479C77.7266 15.1344 78.7694 16.1772 80.0559 16.1772Z" fill="#424143"/>
<path d="M182.969 44.622C182.719 44.2651 182.566 43.5835 182.513 42.5825C182.478 41.2568 182.459 40.1297 182.459 39.1985V25.7726C182.459 22.2464 181.208 19.8473 178.71 18.5753C176.212 17.3032 173.351 16.6699 170.133 16.6699C165.188 16.6699 161.702 17.958 159.67 20.537C158.393 22.1847 157.674 24.2886 157.512 26.846H164.898C165.08 25.7189 165.442 24.8226 165.987 24.1598C166.749 23.2635 168.048 22.818 169.878 22.818C171.51 22.818 172.75 23.0461 173.592 23.5023C174.435 23.9585 174.859 24.7877 174.859 25.9873C174.859 26.9722 174.309 27.6967 173.209 28.1637C172.594 28.432 171.577 28.6548 170.152 28.8346L167.528 29.1566C164.552 29.5323 162.297 30.1602 160.765 31.0351C157.969 32.6452 156.573 35.251 156.573 38.8497C156.573 41.6245 157.443 43.7686 159.179 45.2822C160.915 46.7957 163.118 47.5525 165.783 47.5525C167.871 47.5525 169.744 47.0775 171.403 46.1302C172.79 45.3251 174.014 44.3483 175.076 43.2024C175.13 43.8653 175.203 44.4556 175.291 44.9736C175.38 45.4942 175.541 46.047 175.774 46.6374H184.099V45.5103C183.597 45.2741 183.221 44.9789 182.969 44.622ZM169.53 32.401C170.804 32.401 171.972 32.8492 172.887 33.5979L172.133 34.352C171.413 33.7938 170.512 33.461 169.532 33.461C168.553 33.461 167.648 33.7938 166.932 34.352L166.178 33.5979C167.087 32.8492 168.258 32.401 169.53 32.401ZM172.712 37.7038C172.712 39.4615 171.287 40.8865 169.53 40.8865C167.772 40.8865 166.347 39.4615 166.347 37.7038C166.347 35.946 167.772 34.521 169.53 34.521C171.287 34.521 172.712 35.946 172.712 37.7038ZM165.424 41.0609C164.675 40.1458 164.227 38.9785 164.227 37.7038C164.227 36.4291 164.675 35.2617 165.424 34.3466L166.178 35.1007C165.62 35.8199 165.287 36.7216 165.287 37.7011C165.287 38.6806 165.62 39.585 166.178 40.3015L165.424 41.0609ZM169.53 43.0065C168.255 43.0065 167.087 42.5584 166.172 41.8096L166.926 41.0556C167.646 41.6137 168.547 41.9465 169.527 41.9465C170.506 41.9465 171.411 41.6137 172.127 41.0556L172.881 41.8096C171.972 42.5584 170.804 43.0065 169.53 43.0065ZM173.635 41.0609L172.881 40.3068C173.439 39.5876 173.772 38.686 173.772 37.7065C173.772 36.727 173.439 35.8226 172.881 35.1061L173.635 34.352C174.384 35.2671 174.832 36.4344 174.832 37.7091C174.832 38.9785 174.384 40.1458 173.635 41.0609Z" fill="#424143"/>
<path d="M213.556 44.622C213.306 44.2651 213.153 43.5835 213.1 42.5825C213.065 41.2568 213.046 40.1297 213.046 39.1985V25.7726C213.046 22.2464 211.795 19.8473 209.297 18.5753C206.799 17.3032 203.938 16.6699 200.72 16.6699C195.774 16.6699 192.288 17.958 190.257 20.537C188.98 22.1847 188.26 24.2886 188.099 26.846H195.485C195.667 25.7189 196.029 24.8226 196.574 24.1598C197.336 23.2635 198.635 22.818 200.465 22.818C202.097 22.818 203.337 23.0461 204.179 23.5023C205.022 23.9585 205.446 24.7877 205.446 25.9873C205.446 26.9722 204.896 27.6967 203.796 28.1637C203.181 28.432 202.164 28.6548 200.739 28.8346L198.115 29.1566C195.138 29.5323 192.884 30.1602 191.352 31.0351C188.556 32.6452 187.16 35.251 187.16 38.8497C187.16 41.6245 188.03 43.7686 189.766 45.2822C191.502 46.7957 193.705 47.5525 196.37 47.5525C198.458 47.5525 200.331 47.0775 201.99 46.1302C203.377 45.3251 204.601 44.3483 205.663 43.2024C205.717 43.8653 205.79 44.4556 205.878 44.9736C205.967 45.4942 206.128 46.047 206.361 46.6374H214.683V45.5103C214.181 45.2741 213.805 44.9789 213.556 44.622ZM200.114 32.401C201.388 32.401 202.556 32.8492 203.471 33.5979L202.717 34.352C201.998 33.7938 201.096 33.461 200.116 33.461C199.137 33.461 198.233 33.7938 197.516 34.352L196.762 33.5979C197.674 32.8492 198.842 32.401 200.114 32.401ZM203.296 37.7038C203.296 39.4615 201.872 40.8865 200.114 40.8865C198.356 40.8865 196.931 39.4615 196.931 37.7038C196.931 35.946 198.356 34.521 200.114 34.521C201.872 34.521 203.296 35.946 203.296 37.7038ZM196.008 41.0609C195.259 40.1458 194.811 38.9785 194.811 37.7038C194.811 36.4291 195.259 35.2617 196.008 34.3466L196.762 35.1007C196.204 35.8199 195.871 36.7216 195.871 37.7011C195.871 38.6806 196.204 39.585 196.762 40.3015L196.008 41.0609ZM200.114 43.0065C198.839 43.0065 197.672 42.5584 196.757 41.8096L197.511 41.0556C198.23 41.6137 199.132 41.9465 200.111 41.9465C201.091 41.9465 201.995 41.6137 202.711 41.0556L203.466 41.8096C202.556 42.5584 201.388 43.0065 200.114 43.0065ZM204.222 41.0609L203.468 40.3068C204.026 39.5876 204.359 38.686 204.359 37.7065C204.359 36.727 204.026 35.8226 203.468 35.1061L204.222 34.352C204.971 35.2671 205.419 36.4344 205.419 37.7091C205.419 38.9785 204.968 40.1458 204.222 41.0609Z" fill="#424143"/>
<path d="M214.683 66.0557H76.1758V66.748H214.683V66.0557Z" fill="#424143"/>
<path d="M112.388 73.4766C112.203 73.8201 112.06 74.0992 111.961 74.3138C111.859 74.5285 111.771 74.7566 111.693 75.0035C111.615 75.2504 111.556 75.5268 111.513 75.8327C111.473 76.1414 111.451 76.4956 111.451 76.8954C111.451 77.1718 111.473 77.4348 111.516 77.6844C111.559 77.934 111.623 78.1809 111.706 78.4224C111.789 78.6639 111.883 78.9001 111.993 79.1362C112.101 79.3697 112.235 79.6434 112.396 79.9574H111.988C111.787 79.6542 111.615 79.3831 111.478 79.1443C111.341 78.9054 111.22 78.6585 111.118 78.4063C111.016 78.154 110.939 77.8884 110.885 77.6146C110.831 77.3382 110.802 77.0457 110.802 76.7317C110.802 76.1494 110.898 75.5993 111.092 75.084C111.285 74.5688 111.577 74.0347 111.966 73.4792H112.388V73.4766Z" fill="#424143"/>
<path d="M113.931 77.0885L113.415 78.5296H112.726L114.585 73.5811H115.342L117.135 78.5296H116.405L115.916 77.0885H113.931ZM115.675 76.4954L114.945 74.3164H114.931L114.14 76.4954H115.675Z" fill="#424143"/>
<path d="M123.138 75.0674C123.092 74.8608 123.017 74.689 122.918 74.5548C122.816 74.418 122.7 74.3133 122.569 74.2382C122.438 74.163 122.303 74.1094 122.166 74.0825C122.03 74.0557 121.89 74.0423 121.753 74.0423C121.284 74.0423 120.897 74.214 120.591 74.5548C120.285 74.8957 120.132 75.3814 120.132 76.0067C120.132 76.3099 120.162 76.5863 120.218 76.8332C120.275 77.0828 120.368 77.2975 120.497 77.4799C120.626 77.6651 120.795 77.8073 121.007 77.912C121.219 78.0167 121.474 78.0676 121.772 78.0676C121.901 78.0676 122.032 78.0489 122.169 78.0113C122.303 77.9737 122.44 77.9066 122.577 77.8073C122.711 77.708 122.835 77.5685 122.945 77.386C123.055 77.2035 123.135 76.9781 123.186 76.7071H123.833C123.769 77.1391 123.642 77.4907 123.457 77.7617C123.272 78.0328 123.063 78.2313 122.835 78.3575C122.607 78.4836 122.392 78.5668 122.199 78.6017C122.003 78.6393 121.828 78.6553 121.673 78.6553C121.377 78.6553 121.098 78.6044 120.835 78.5051C120.572 78.4031 120.334 78.2501 120.124 78.0408C119.915 77.8315 119.749 77.5578 119.628 77.2196C119.507 76.8815 119.445 76.4843 119.445 76.0228C119.445 75.6417 119.499 75.2928 119.604 74.9762C119.708 74.6595 119.861 74.3858 120.063 74.1604C120.264 73.9323 120.505 73.7578 120.792 73.6344C121.08 73.5109 121.399 73.4492 121.753 73.4492C122.062 73.4492 122.336 73.4922 122.58 73.5807C122.824 73.6693 123.031 73.7873 123.2 73.9403C123.369 74.0933 123.503 74.265 123.602 74.4609C123.701 74.6568 123.763 74.8608 123.785 75.0701H123.138V75.0674Z" fill="#424143"/>
<path d="M124.461 76.0262C124.531 75.8008 124.633 75.5968 124.773 75.4144C124.91 75.2292 125.087 75.087 125.299 74.9796C125.513 74.8723 125.758 74.8213 126.034 74.8213C126.31 74.8213 126.555 74.875 126.769 74.9796C126.984 75.0843 127.158 75.2292 127.295 75.4117C127.432 75.5942 127.537 75.7981 127.607 76.0235C127.676 76.2516 127.708 76.4851 127.708 76.7239C127.708 76.9628 127.674 77.1936 127.607 77.419C127.537 77.6444 127.435 77.8484 127.295 78.0308C127.158 78.216 126.981 78.3582 126.769 78.4656C126.555 78.5729 126.31 78.6239 126.034 78.6239C125.758 78.6239 125.513 78.5702 125.299 78.4656C125.084 78.3609 124.91 78.216 124.773 78.0308C124.636 77.8484 124.531 77.6417 124.461 77.419C124.392 77.1936 124.359 76.9628 124.359 76.7239C124.359 76.4851 124.394 76.2516 124.461 76.0262ZM125.036 77.164C125.068 77.3197 125.122 77.47 125.197 77.6122C125.272 77.7544 125.379 77.8725 125.516 77.9638C125.653 78.055 125.827 78.1006 126.034 78.1006C126.241 78.1006 126.412 78.055 126.552 77.9638C126.689 77.8725 126.799 77.7544 126.877 77.6122C126.954 77.47 127.008 77.3197 127.038 77.164C127.067 77.0084 127.083 76.8608 127.083 76.7239C127.083 76.5871 127.067 76.4395 127.038 76.2838C127.008 76.1282 126.954 75.9779 126.877 75.8357C126.799 75.6935 126.691 75.5754 126.552 75.4841C126.415 75.3929 126.241 75.3473 126.034 75.3473C125.827 75.3473 125.656 75.3929 125.516 75.4841C125.379 75.5754 125.272 75.6935 125.197 75.8357C125.122 75.9779 125.068 76.1282 125.036 76.2838C125.003 76.4395 124.987 76.5871 124.987 76.7239C124.987 76.8608 125.003 77.0084 125.036 77.164Z" fill="#424143"/>
<path d="M128.398 74.923H128.97V75.4329H128.983C129.034 75.3631 129.085 75.296 129.139 75.2316C129.193 75.1672 129.262 75.1055 129.348 75.0411C129.437 74.9794 129.539 74.9257 129.662 74.8828C129.783 74.8398 129.92 74.8184 130.073 74.8184C130.223 74.8184 130.355 74.8372 130.465 74.8774C130.575 74.915 130.666 74.966 130.736 75.025C130.808 75.084 130.864 75.1458 130.907 75.2048C130.95 75.2638 130.991 75.3282 131.028 75.398V75.4061C131.211 75.1994 131.377 75.0492 131.527 74.9579C131.678 74.8667 131.876 74.821 132.131 74.821C132.246 74.821 132.364 74.8371 132.491 74.872C132.614 74.9069 132.735 74.9686 132.853 75.0572C132.971 75.1458 133.065 75.2719 133.14 75.4329C133.213 75.5939 133.25 75.7925 133.25 76.0313V78.5271H132.644V76.1977C132.644 75.932 132.593 75.7254 132.493 75.5805C132.394 75.4356 132.22 75.3631 131.975 75.3631C131.731 75.3631 131.53 75.4597 131.369 75.6556C131.208 75.8515 131.127 76.0743 131.127 76.3265V78.5244H130.521V76.0287C130.521 75.8435 130.478 75.6878 130.389 75.5563C130.301 75.4248 130.156 75.3604 129.955 75.3604C129.858 75.3604 129.756 75.3792 129.649 75.4141C129.541 75.4517 129.437 75.5134 129.337 75.6046C129.238 75.6932 129.158 75.8193 129.096 75.9777C129.034 76.136 129.002 76.3292 129.002 76.56V78.5244H128.396V74.923H128.398Z" fill="#424143"/>
<path d="M134.09 74.9228H134.661V75.4327H134.675L134.683 75.4246C134.734 75.3521 134.785 75.2824 134.839 75.2207C134.892 75.1589 134.959 75.0945 135.045 75.0301C135.131 74.9657 135.23 74.9147 135.348 74.8745C135.467 74.8342 135.601 74.8154 135.751 74.8154C136.221 74.8154 136.588 74.9845 136.854 75.3226C137.12 75.6608 137.254 76.0901 137.254 76.6161C137.254 76.8496 137.227 77.0857 137.176 77.3192C137.122 77.5527 137.036 77.77 136.913 77.9659C136.79 78.1645 136.626 78.3229 136.419 78.4436C136.213 78.5644 135.963 78.6261 135.668 78.6261C135.442 78.6261 135.249 78.5805 135.085 78.4892C134.922 78.398 134.798 78.2826 134.71 78.1431H134.696V79.9491H134.09V74.9228ZM134.763 77.4722C134.825 77.6305 134.908 77.7566 135.008 77.8506C135.11 77.9445 135.217 78.0116 135.327 78.0491C135.44 78.0894 135.55 78.1082 135.654 78.1082C135.971 78.1082 136.213 77.9821 136.379 77.7244C136.545 77.4695 136.629 77.134 136.629 76.7154C136.629 76.5598 136.618 76.4095 136.602 76.2673C136.583 76.125 136.543 75.9828 136.478 75.8432C136.414 75.7037 136.315 75.5883 136.178 75.4971C136.041 75.4085 135.864 75.3629 135.644 75.3629C135.437 75.3629 135.268 75.4112 135.136 75.5078C135.005 75.6044 134.908 75.7305 134.841 75.8862C134.774 76.0418 134.729 76.2029 134.707 76.3719C134.686 76.541 134.672 76.7127 134.672 76.8925C134.669 77.1206 134.699 77.3112 134.763 77.4722Z" fill="#424143"/>
<path d="M137.949 76.0208C137.962 75.6022 138.099 75.299 138.357 75.1084C138.614 74.9179 138.974 74.8213 139.438 74.8213C139.543 74.8213 139.666 74.832 139.806 74.8562C139.945 74.8803 140.09 74.9233 140.24 74.9904C140.391 75.0574 140.517 75.1594 140.619 75.2963C140.723 75.4331 140.774 75.6103 140.774 75.8276V77.902C140.774 78.0443 140.841 78.1167 140.973 78.1167C141.013 78.1167 141.08 78.106 141.174 78.0899V78.53C141.155 78.5354 141.131 78.5407 141.099 78.5515C140.997 78.5837 140.914 78.5998 140.844 78.5998C140.6 78.5998 140.436 78.5515 140.35 78.4522C140.265 78.3529 140.216 78.2187 140.203 78.0496C140.047 78.2187 139.867 78.3609 139.669 78.4709C139.467 78.581 139.213 78.6373 138.901 78.6373C138.571 78.6373 138.3 78.5407 138.088 78.3475C137.876 78.1543 137.771 77.9047 137.771 77.5961C137.771 77.4941 137.782 77.3895 137.806 77.2821C137.831 77.1748 137.879 77.0621 137.954 76.9467C138.029 76.8313 138.142 76.7293 138.292 76.6408C138.442 76.5522 138.633 76.4932 138.866 76.4663L139.865 76.3429C139.961 76.3348 140.039 76.2999 140.095 76.2436C140.152 76.1872 140.181 76.0772 140.181 75.9162C140.181 75.5244 139.9 75.3312 139.333 75.3312C139.172 75.3312 139.038 75.3526 138.933 75.3956C138.829 75.4385 138.746 75.4949 138.689 75.5646C138.63 75.6344 138.59 75.7042 138.566 75.7793C138.542 75.8545 138.52 75.935 138.507 76.0262H137.949V76.0208ZM140.168 76.6891C140.112 76.7293 140.02 76.7669 139.889 76.7991C139.757 76.8313 139.518 76.8715 139.17 76.9172C139.078 76.9306 138.99 76.9467 138.904 76.9681C138.818 76.9896 138.738 77.0191 138.66 77.0621C138.582 77.1023 138.518 77.1614 138.469 77.2338C138.421 77.3063 138.397 77.3975 138.397 77.5022C138.397 77.7034 138.45 77.8591 138.558 77.9664C138.665 78.0738 138.831 78.1275 139.052 78.1275C139.188 78.1275 139.325 78.106 139.462 78.0631C139.599 78.0201 139.72 77.9584 139.824 77.8832C139.932 77.8081 140.015 77.7169 140.077 77.6149C140.138 77.5129 140.171 77.4002 140.171 77.2794V76.6891H140.168Z" fill="#424143"/>
<path d="M144.739 78.5293H144.132V76.3099C144.132 75.9852 144.076 75.7464 143.96 75.5934C143.845 75.4431 143.646 75.3653 143.362 75.3653C143.265 75.3653 143.163 75.3841 143.056 75.419C142.949 75.4566 142.844 75.5183 142.745 75.6095C142.645 75.6981 142.565 75.8242 142.503 75.9825C142.441 76.1409 142.409 76.3341 142.409 76.5649V78.5293H141.803V74.9252H142.374V75.4351H142.388C142.433 75.3707 142.484 75.3063 142.543 75.2419C142.6 75.1775 142.675 75.1131 142.763 75.0487C142.852 74.9842 142.957 74.9306 143.077 74.8876C143.198 74.8447 143.33 74.8232 143.477 74.8232C143.633 74.8232 143.783 74.842 143.928 74.8769C144.073 74.9145 144.207 74.9789 144.331 75.0728C144.454 75.1667 144.553 75.2956 144.629 75.4619C144.701 75.6283 144.739 75.8323 144.739 76.0738V78.5293Z" fill="#424143"/>
<path d="M147.785 74.9229H148.453L148.295 75.363C147.803 76.7423 147.425 77.7728 147.157 78.4571C146.99 78.8811 146.867 79.1817 146.781 79.3642C146.695 79.5466 146.612 79.6835 146.526 79.7774C146.44 79.8714 146.344 79.9331 146.234 79.9599C146.124 79.9868 145.96 80.0002 145.745 80.0002C145.7 80.0002 145.632 79.9868 145.544 79.9599C145.539 79.9599 145.52 79.9545 145.49 79.9465V79.3964C145.606 79.4366 145.726 79.4581 145.855 79.4581C145.938 79.4581 146.003 79.4474 146.051 79.4313C146.099 79.4125 146.142 79.3776 146.183 79.3239C146.22 79.2702 146.263 79.1951 146.306 79.0958C146.349 78.9965 146.413 78.8382 146.497 78.6235L145.16 74.9229H145.85L146.808 77.8587H146.821L147.785 74.9229Z" fill="#424143"/>
<path d="M155.414 76.9406C155.33 77.2411 155.193 77.5229 155.006 77.7859C154.818 78.0489 154.566 78.2582 154.252 78.4192C153.938 78.5802 153.562 78.6607 153.124 78.6607C152.687 78.6607 152.311 78.5802 151.997 78.4192C151.683 78.2582 151.431 78.0462 151.243 77.7859C151.055 77.5229 150.919 77.2411 150.835 76.9406C150.752 76.64 150.712 76.3448 150.712 76.055C150.712 75.7651 150.755 75.4699 150.841 75.1694C150.927 74.8688 151.061 74.5871 151.249 74.3241C151.434 74.0611 151.686 73.8517 152 73.6907C152.314 73.5297 152.69 73.4492 153.127 73.4492C153.565 73.4492 153.94 73.5297 154.254 73.6907C154.568 73.8517 154.82 74.0638 155.008 74.3241C155.196 74.5871 155.333 74.8688 155.416 75.1694C155.499 75.4699 155.54 75.7651 155.54 76.055C155.54 76.3448 155.497 76.64 155.414 76.9406ZM154.732 75.2445C154.654 74.9976 154.541 74.7856 154.391 74.6058C154.241 74.426 154.061 74.2865 153.846 74.1899C153.632 74.0906 153.393 74.0423 153.127 74.0423C152.861 74.0423 152.62 74.0906 152.408 74.1899C152.193 74.2892 152.013 74.4287 151.863 74.6112C151.713 74.7937 151.6 75.0057 151.522 75.2499C151.445 75.4941 151.404 75.7625 151.404 76.0576C151.404 76.3475 151.445 76.6158 151.522 76.8627C151.6 77.1123 151.713 77.3243 151.863 77.5041C152.013 77.6839 152.193 77.8234 152.408 77.92C152.623 78.0193 152.861 78.0676 153.127 78.0676C153.393 78.0676 153.634 78.0193 153.846 77.92C154.061 77.8208 154.241 77.6812 154.391 77.4987C154.541 77.3162 154.654 77.1042 154.732 76.8574C154.81 76.6105 154.85 76.3448 154.85 76.055C154.85 75.7598 154.81 75.4914 154.732 75.2445Z" fill="#424143"/>
<path d="M157.005 75.4271V78.5293H156.399V75.4271H155.902V74.9252H156.399V74.3053C156.399 74.0397 156.479 73.8411 156.64 73.7096C156.801 73.5781 157.032 73.5137 157.335 73.5137C157.386 73.5137 157.47 73.519 157.59 73.5271H157.612V74.0719C157.51 74.0611 157.429 74.0584 157.365 74.0584C157.236 74.0584 157.145 74.0933 157.088 74.1577C157.032 74.2248 157.005 74.3322 157.005 74.4798V74.9279H157.612V75.4297H157.005V75.4271Z" fill="#424143"/>
<path d="M163.768 73.5674V74.4449H162.284V78.5266H161.24V74.4449H159.748V73.5674H163.768Z" fill="black"/>
<path d="M165.794 73.5674H166.966L168.721 78.5266H167.597L167.27 77.5069H165.442L165.107 78.5266H164.022L165.794 73.5674ZM165.724 76.6535H166.993L166.368 74.7025L165.724 76.6535Z" fill="black"/>
<path d="M172.181 73.5674H173.356L171.698 76.6669V78.5266H170.662V76.6669L168.944 73.5674H170.165L171.196 75.7277L172.181 73.5674Z" fill="black"/>
<path d="M176.777 73.5674H177.953L176.294 76.6669V78.5266H175.259V76.6669L173.541 73.5674H174.762L175.793 75.7277L176.777 73.5674Z" fill="black"/>
<path d="M179.963 73.5674H181.135L182.89 78.5266H181.766L181.439 77.5069H179.611L179.276 78.5266H178.191L179.963 73.5674ZM179.895 76.6535H181.165L180.54 74.7025L179.895 76.6535Z" fill="black"/>
<path d="M187.222 74.096C187.375 74.308 187.45 74.5603 187.45 74.8528C187.45 75.1561 187.372 75.4003 187.219 75.5827C187.133 75.6847 187.007 75.7813 186.841 75.8645C187.093 75.9558 187.286 76.1034 187.412 76.3019C187.541 76.5005 187.605 76.7447 187.605 77.0292C187.605 77.3244 187.533 77.5874 187.385 77.8208C187.291 77.9765 187.173 78.1053 187.034 78.21C186.875 78.3307 186.688 78.4139 186.473 78.4595C186.258 78.5052 186.025 78.5266 185.773 78.5266H183.537V73.5674H185.934C186.54 73.5781 186.969 73.7525 187.222 74.096ZM184.527 74.4288V75.5237H185.732C185.947 75.5237 186.121 75.4834 186.256 75.4003C186.39 75.3171 186.457 75.1721 186.457 74.9655C186.457 74.7347 186.368 74.5818 186.191 74.5066C186.038 74.4556 185.842 74.4288 185.606 74.4288H184.527ZM184.527 76.3449V77.6679H185.732C185.947 77.6679 186.116 77.6384 186.234 77.5793C186.451 77.472 186.559 77.2653 186.559 76.9594C186.559 76.7018 186.454 76.5247 186.242 76.4281C186.124 76.3744 185.958 76.3449 185.746 76.3449H184.527Z" fill="black"/>
<path d="M191.36 78.5296H190.329V73.5703H191.36V78.5296Z" fill="black"/>
<path d="M195.618 73.5674H197.11V78.5266H196.144V75.1722C196.144 75.0755 196.144 74.9414 196.147 74.7669C196.15 74.5925 196.15 74.4583 196.15 74.3644L195.211 78.5266H194.204L193.27 74.3644C193.27 74.4583 193.27 74.5925 193.273 74.7669C193.276 74.9414 193.276 75.0755 193.276 75.1722V78.5266H192.31V73.5674H193.818L194.719 77.4666L195.618 73.5674Z" fill="black"/>
<path d="M201.673 73.5674V74.4449H200.189V78.5266H199.145V74.4449H197.653V73.5674H201.673Z" fill="black"/>
<path d="M203.227 78.5296H202.196V73.5703H203.227V78.5296Z" fill="black"/>
<path d="M205.613 73.5674H206.786L208.541 78.5266H207.416L207.089 77.5069H205.261L204.926 78.5266H203.842L205.613 73.5674ZM205.546 76.6535H206.815L206.19 74.7025L205.546 76.6535Z" fill="black"/>
<path d="M208.822 77.6547L211.358 74.4478H208.887V73.5703H212.646V74.4022L210.078 77.6574H212.654V78.5322H208.825V77.6547H208.822Z" fill="black"/>
<path d="M213.097 79.9545C213.282 79.6083 213.424 79.3319 213.524 79.1172C213.626 78.9025 213.714 78.6744 213.792 78.4275C213.87 78.1806 213.929 77.9042 213.972 77.5956C214.012 77.287 214.033 76.9328 214.033 76.5356C214.033 76.2592 214.012 75.9962 213.969 75.7466C213.926 75.4971 213.862 75.2502 213.779 75.0086C213.695 74.7671 213.601 74.531 213.491 74.2948C213.384 74.0613 213.25 73.7876 213.089 73.4736H213.497C213.698 73.7769 213.87 74.0479 214.007 74.2868C214.144 74.5256 214.264 74.7725 214.366 75.0247C214.468 75.277 214.546 75.54 214.6 75.8164C214.653 76.0928 214.683 76.3853 214.683 76.6993C214.683 77.2816 214.586 77.8318 214.393 78.347C214.2 78.8623 213.907 79.3963 213.518 79.9518H213.097V79.9545Z" fill="#424143"/>
</svg>
