<svg width="221" height="30" viewBox="0 0 221 30" fill="none" xmlns="http://www.w3.org/2000/svg">
<path d="M6.19361 8.23682H0V29.9939H6.19361V8.23682Z" fill="#3B7DED"/>
<path d="M16.844 21.743C16.973 22.8288 17.2519 23.5996 17.6838 24.0585C18.4456 24.8743 19.8523 25.2792 21.9039 25.2792C23.1096 25.2792 24.0694 25.1023 24.7772 24.7424C25.4881 24.3854 25.842 23.8486 25.842 23.1347C25.842 22.4479 25.5571 21.929 24.9842 21.5691C24.4113 21.2121 22.2818 20.5973 18.5956 19.7275C15.9412 19.0706 14.0696 18.2488 12.9869 17.262C11.9011 16.2902 11.3582 14.8896 11.3582 13.063C11.3582 10.9065 12.207 9.05287 13.9017 7.50221C15.5993 5.95156 17.9868 5.17773 21.0641 5.17773C23.9854 5.17773 26.3639 5.7596 28.2055 6.92334C30.0441 8.08708 31.0998 10.0996 31.3728 12.955H25.2661C25.1791 12.1692 24.9572 11.5483 24.6003 11.0894C23.9254 10.2616 22.7797 9.84769 21.163 9.84769C19.8313 9.84769 18.8806 10.0546 18.3167 10.4686C17.7498 10.8825 17.4679 11.3683 17.4679 11.9262C17.4679 12.6251 17.7678 13.135 18.3707 13.4469C18.9735 13.7768 21.0971 14.3407 24.7472 15.1385C27.1797 15.7114 29.0033 16.5752 30.218 17.7329C31.4177 18.9057 32.0176 20.3693 32.0176 22.1269C32.0176 24.4424 31.1538 26.332 29.4292 27.7957C27.7046 29.2623 25.0382 29.9942 21.43 29.9942C17.7498 29.9942 15.0354 29.2204 13.2808 27.6697C11.5262 26.1191 10.6504 24.1455 10.6504 21.743H16.844Z" fill="#3B7DED"/>
<path d="M34.1172 10.8671V6.51803H37.3745V0.000488281H43.4181V6.51503H47.2123V10.8641H43.4181V23.2093C43.4181 24.1661 43.5381 24.763 43.781 24.9999C44.024 25.2368 44.7678 25.3538 46.0095 25.3538C46.1955 25.3538 46.3904 25.3508 46.6004 25.3418C46.8073 25.3358 47.0113 25.3238 47.2123 25.3088V29.8738L44.3179 29.9818C41.4325 30.0808 39.459 29.5829 38.4032 28.4821C37.7164 27.7833 37.3745 26.7035 37.3745 25.2458V10.8671H34.1172Z" fill="#3B7DED"/>
<path d="M48.7334 10.8671V6.51803H51.9907V0.000488281H58.0343V6.51503H61.8285V10.8641H58.0343V23.2093C58.0343 24.1661 58.1543 24.763 58.3972 24.9999C58.6402 25.2368 59.384 25.3538 60.6257 25.3538C60.8117 25.3538 61.0067 25.3508 61.2166 25.3418C61.4236 25.3358 61.6275 25.3238 61.8285 25.3088V29.8738L58.9341 29.9818C56.0488 30.0808 54.0752 29.5829 53.0194 28.4821C52.3326 27.7833 51.9907 26.7035 51.9907 25.2458V10.8671H48.7334Z" fill="#3B7DED"/>
<path d="M4.61594 1.13975L5.05684 0.698844C4.52296 0.260942 3.83911 0 3.09528 0C2.35145 0 1.6706 0.260942 1.13672 0.698844L1.57762 1.13975C1.99753 0.812818 2.52541 0.620861 3.09528 0.620861C3.66815 0.617862 4.19603 0.812818 4.61594 1.13975Z" fill="#3B7DED"/>
<path d="M5.05371 4.61587L5.49461 5.05677C5.93251 4.52289 6.19346 3.84204 6.19346 3.09821C6.19346 2.35438 5.93251 1.67353 5.49461 1.13965L5.05371 1.58055C5.38064 2.00046 5.57259 2.52834 5.57259 3.09821C5.57259 3.66808 5.38064 4.19597 5.05371 4.61587Z" fill="#3B7DED"/>
<path d="M1.13975 1.57762L0.698844 1.13672C0.260942 1.6706 0 2.35445 0 3.09528C0 3.83911 0.260942 4.51996 0.698844 5.05384L1.13975 4.61294C0.812818 4.19304 0.620861 3.66515 0.620861 3.09528C0.617862 2.52541 0.812818 1.99753 1.13975 1.57762Z" fill="#3B7DED"/>
<path d="M1.57762 5.05371L1.13672 5.49461C1.6706 5.93251 2.35145 6.19346 3.09528 6.19346C3.83911 6.19346 4.51996 5.93251 5.05384 5.49461L4.61294 5.05371C4.19304 5.38064 3.66515 5.57259 3.09528 5.57259C2.52541 5.57259 1.99753 5.38064 1.57762 5.05371Z" fill="#3B7DED"/>
<path d="M3.09487 4.95194C4.12023 4.95194 4.95145 4.12072 4.95145 3.09535C4.95145 2.06999 4.12023 1.23877 3.09487 1.23877C2.0695 1.23877 1.23828 2.06999 1.23828 3.09535C1.23828 4.12072 2.0695 4.95194 3.09487 4.95194Z" fill="#3B7DED"/>
<path d="M85.2292 27.6576C85.0282 27.3727 84.9083 26.8298 84.8663 26.029C84.8363 24.9732 84.8243 24.0704 84.8243 23.3296V12.613C84.8243 9.79964 83.8285 7.88307 81.8339 6.86929C79.8394 5.85552 77.5569 5.34863 74.9895 5.34863C71.0424 5.34863 68.259 6.3774 66.6393 8.43494C65.6196 9.74865 65.0467 11.4283 64.9177 13.4708H70.8114C70.9554 12.571 71.2463 11.8572 71.6812 11.3293C72.2901 10.6155 73.3249 10.2585 74.7885 10.2585C76.0902 10.2585 77.08 10.4415 77.7549 10.8044C78.4297 11.1673 78.7656 11.8302 78.7656 12.787C78.7656 13.5728 78.3277 14.1517 77.4489 14.5236C76.96 14.7365 76.1472 14.9165 75.0105 15.0605L72.9169 15.3184C70.5415 15.6183 68.7419 16.1192 67.5182 16.8181C65.2867 18.1048 64.1709 20.1833 64.1709 23.0537C64.1709 25.2672 64.8637 26.9798 66.2494 28.1855C67.6351 29.3913 69.3927 29.9971 71.5193 29.9971C73.1869 29.9971 74.6805 29.6192 76.0033 28.8604C77.11 28.2185 78.0878 27.4387 78.9336 26.5239C78.9756 27.0518 79.0326 27.5227 79.1046 27.9396C79.1765 28.3535 79.3055 28.7974 79.4915 29.2683H86.135V28.3685C85.7271 28.1795 85.4271 27.9456 85.2292 27.6576ZM74.5036 17.9038C75.5204 17.9038 76.4531 18.2607 77.182 18.8606L76.5791 19.4635C76.0063 19.0166 75.2864 18.7526 74.5036 18.7526C73.7208 18.7526 73.0009 19.0196 72.4281 19.4635L71.8252 18.8606C72.554 18.2637 73.4868 17.9038 74.5036 17.9038ZM77.041 22.1389C77.041 23.5426 75.9043 24.6793 74.5006 24.6793C73.0969 24.6793 71.9602 23.5426 71.9602 22.1389C71.9602 20.7352 73.0969 19.5984 74.5006 19.5984C75.9043 19.5984 77.041 20.7352 77.041 22.1389ZM71.2253 24.8173C70.6285 24.0884 70.2685 23.1556 70.2685 22.1389C70.2685 21.1221 70.6255 20.1893 71.2253 19.4605L71.8282 20.0633C71.3813 20.6362 71.1173 21.3561 71.1173 22.1389C71.1173 22.9217 71.3813 23.6415 71.8282 24.2144L71.2253 24.8173ZM74.5036 26.3709C73.4868 26.3709 72.554 26.014 71.8252 25.4141L72.4281 24.8113C73.0009 25.2582 73.7208 25.5221 74.5036 25.5221C75.2864 25.5221 76.0063 25.2552 76.5791 24.8113L77.182 25.4141C76.4501 26.011 75.5174 26.3709 74.5036 26.3709ZM77.7789 24.8173L77.176 24.2144C77.6229 23.6415 77.8868 22.9217 77.8868 22.1389C77.8868 21.3561 77.6229 20.6362 77.176 20.0633L77.7789 19.4605C78.3757 20.1893 78.7326 21.1221 78.7326 22.1389C78.7356 23.1527 78.3757 24.0854 77.7789 24.8173Z" fill="#3B7DED"/>
<path d="M109.637 27.6576C109.436 27.3727 109.316 26.8298 109.274 26.029C109.244 24.9732 109.232 24.0704 109.232 23.3296V12.613C109.232 9.79964 108.237 7.88307 106.242 6.86929C104.248 5.85552 101.965 5.34863 99.3977 5.34863C95.4506 5.34863 92.6672 6.3774 91.0476 8.43494C90.0278 9.74865 89.4549 11.4283 89.3259 13.4708H95.2196C95.3636 12.571 95.6545 11.8572 96.0894 11.3293C96.6983 10.6155 97.7331 10.2585 99.1967 10.2585C100.498 10.2585 101.488 10.4415 102.163 10.8044C102.838 11.1673 103.174 11.8302 103.174 12.787C103.174 13.5728 102.736 14.1517 101.857 14.5236C101.368 14.7365 100.555 14.9165 99.4187 15.0605L97.3251 15.3184C94.9497 15.6183 93.1501 16.1192 91.9264 16.8181C89.6949 18.1048 88.5791 20.1833 88.5791 23.0537C88.5791 25.2672 89.272 26.9798 90.6576 28.1855C92.0433 29.3913 93.8009 29.9971 95.9275 29.9971C97.5951 29.9971 99.0888 29.6192 100.411 28.8604C101.518 28.2185 102.496 27.4387 103.342 26.5239C103.384 27.0518 103.441 27.5227 103.513 27.9396C103.585 28.3535 103.714 28.7974 103.9 29.2683H110.543V28.3685C110.138 28.1795 109.838 27.9456 109.637 27.6576ZM98.9118 17.9038C99.9286 17.9038 100.861 18.2607 101.59 18.8606L100.987 19.4635C100.414 19.0166 99.6946 18.7526 98.9118 18.7526C98.129 18.7526 97.4091 19.0196 96.8363 19.4635L96.2334 18.8606C96.9622 18.2637 97.895 17.9038 98.9118 17.9038ZM101.449 22.1389C101.449 23.5426 100.312 24.6793 98.9088 24.6793C97.5051 24.6793 96.3684 23.5426 96.3684 22.1389C96.3684 20.7352 97.5051 19.5984 98.9088 19.5984C100.312 19.5984 101.449 20.7352 101.449 22.1389ZM95.6335 24.8173C95.0367 24.0884 94.6797 23.1556 94.6797 22.1389C94.6797 21.1221 95.0367 20.1893 95.6335 19.4605L96.2364 20.0633C95.7895 20.6362 95.5255 21.3561 95.5255 22.1389C95.5255 22.9217 95.7895 23.6415 96.2364 24.2144L95.6335 24.8173ZM98.9118 26.3709C97.895 26.3709 96.9622 26.014 96.2334 25.4141L96.8363 24.8113C97.4091 25.2582 98.129 25.5221 98.9118 25.5221C99.6946 25.5221 100.414 25.2552 100.987 24.8113L101.59 25.4141C100.861 26.011 99.9286 26.3709 98.9118 26.3709ZM102.187 24.8173L101.584 24.2144C102.031 23.6415 102.295 22.9217 102.295 22.1389C102.295 21.3561 102.031 20.6362 101.584 20.0633L102.187 19.4605C102.784 20.1893 103.141 21.1221 103.141 22.1389C103.144 23.1527 102.784 24.0854 102.187 24.8173Z" fill="#3B7DED"/>
<path d="M6.19182 8.23779H0V29.9992H6.19182V8.23779Z" fill="#2DA14B"/>
<path d="M16.8471 21.7492C16.9791 22.8352 17.2551 23.6092 17.6871 24.0652C18.449 24.8812 19.853 25.2891 21.9109 25.2891C23.1169 25.2891 24.0769 25.1091 24.7849 24.7552C25.4928 24.4012 25.8528 23.8612 25.8528 23.1472C25.8528 22.4632 25.5648 21.9412 24.9949 21.5813C24.4249 21.2273 22.2889 20.6093 18.605 19.7393C15.9471 19.0793 14.0812 18.2573 12.9952 17.2734C11.9092 16.3014 11.3633 14.9034 11.3633 13.0735C11.3633 10.9136 12.2092 9.05962 13.9072 7.51167C15.5991 5.95171 17.9931 5.17773 21.071 5.17773C23.9929 5.17773 26.3748 5.75972 28.2108 6.92368C30.0527 8.08765 31.1087 10.0976 31.3787 12.9595H25.2708C25.1868 12.1735 24.9649 11.5495 24.6049 11.0936C23.9329 10.2656 22.7869 9.8516 21.167 9.8516C19.835 9.8516 18.887 10.0616 18.317 10.4756C17.7531 10.8896 17.4651 11.3756 17.4651 11.9335C17.4651 12.6355 17.7651 13.1395 18.365 13.4575C18.965 13.7875 21.095 14.3515 24.7429 15.1494C27.1788 15.7194 29.0027 16.5834 30.2147 17.7414C31.4147 18.9113 32.0146 20.3753 32.0146 22.1332C32.0146 24.4492 31.1507 26.3391 29.4287 27.8031C27.7068 29.267 25.0428 29.999 21.437 29.999C17.7591 29.999 15.0411 29.225 13.2892 27.6711C11.5372 26.1231 10.6553 24.1432 10.6553 21.7432H16.8471V21.7492Z" fill="#2DA14B"/>
<path d="M34.1211 10.8657V6.51581H37.379V0H43.4208V6.51581H47.2127V10.8657H43.4208V23.2133C43.4208 24.1733 43.5408 24.7673 43.7868 25.0013C44.0268 25.2353 44.7708 25.3553 46.0187 25.3553C46.2047 25.3553 46.4027 25.3493 46.6067 25.3433C46.8107 25.3373 47.0147 25.3253 47.2187 25.3133V29.8791L44.3268 29.9871C41.4409 30.0891 39.4669 29.5851 38.411 28.4872C37.727 27.7852 37.385 26.7052 37.385 25.2533V10.8657H34.1211Z" fill="#2DA14B"/>
<path d="M48.7432 10.8657V6.51581H52.0011V0H58.0429V6.51581H61.8348V10.8657H58.0429V23.2133C58.0429 24.1733 58.1629 24.7673 58.4089 25.0013C58.6489 25.2353 59.3929 25.3553 60.6408 25.3553C60.8268 25.3553 61.0248 25.3493 61.2288 25.3433C61.4328 25.3373 61.6368 25.3253 61.8408 25.3133V29.8791L58.9489 29.9871C56.0629 30.0891 54.089 29.5851 53.033 28.4872C52.3491 27.7852 52.0071 26.7052 52.0071 25.2533V10.8657H48.7432Z" fill="#2DA14B"/>
<path d="M4.61452 1.13997L5.05251 0.701979C4.52453 0.263992 3.84055 0 3.09657 0C2.35259 0 1.67461 0.263992 1.14062 0.701979L1.57861 1.13997C1.9986 0.815976 2.52658 0.617982 3.09657 0.617982C3.67255 0.617982 4.20053 0.815976 4.61452 1.13997Z" fill="#2DA14B"/>
<path d="M5.05176 4.61383L5.48974 5.05181C5.92773 4.51783 6.19172 3.83385 6.19172 3.08987C6.19172 2.34589 5.92773 1.66191 5.48974 1.12793L5.05176 1.57792C5.37575 1.9979 5.57374 2.52589 5.57374 3.09587C5.57374 3.67185 5.38175 4.19984 5.05176 4.61383Z" fill="#2DA14B"/>
<path d="M1.13997 1.57812L0.701979 1.14014C0.263992 1.67412 0 2.3521 0 3.09608C0 3.84006 0.263992 4.52404 0.701979 5.05802L1.13997 4.61403C0.815976 4.20005 0.617982 3.67206 0.617982 3.09608C0.617982 2.5261 0.815976 1.99811 1.13997 1.57812Z" fill="#2DA14B"/>
<path d="M1.57861 5.05176L1.14062 5.49574C1.67461 5.93373 2.35859 6.19772 3.10257 6.19772C3.84655 6.19772 4.53052 5.93373 5.06451 5.49574L4.61452 5.05176C4.20053 5.38175 3.67255 5.57374 3.09657 5.57374C2.52058 5.57374 1.9986 5.38175 1.57861 5.05176Z" fill="#2DA14B"/>
<path d="M3.09627 4.95622C4.12349 4.95622 4.95622 4.12349 4.95622 3.09627C4.95622 2.06905 4.12349 1.23633 3.09627 1.23633C2.06905 1.23633 1.23633 2.06905 1.23633 3.09627C1.23633 4.12349 2.06905 4.95622 3.09627 4.95622Z" fill="#2DA14B"/>
<path d="M85.2455 27.6649C85.0475 27.3769 84.9215 26.8369 84.8795 26.039C84.8495 24.983 84.8375 24.083 84.8375 23.339V12.6173C84.8375 9.80343 83.8415 7.88949 81.8436 6.87552C79.8456 5.86155 77.5657 5.35156 74.9978 5.35156C71.0499 5.35156 68.266 6.37753 66.646 8.43547C65.6261 9.74943 65.0501 11.4294 64.9241 13.4753H70.8159C70.9599 12.5753 71.2479 11.8614 71.6859 11.3334C72.2919 10.6194 73.3298 10.2594 74.7938 10.2594C76.0958 10.2594 77.0857 10.4394 77.7577 10.8054C78.4297 11.1714 78.7657 11.8314 78.7657 12.7853C78.7657 13.5713 78.3277 14.1473 77.4457 14.5193C76.9537 14.7353 76.1438 14.9153 75.0038 15.0533L72.9098 15.3113C70.5339 15.6113 68.734 16.1092 67.51 16.8112C65.2781 18.0952 64.1621 20.1771 64.1621 23.051C64.1621 25.265 64.8581 26.9749 66.244 28.1869C67.63 29.3929 69.388 29.9988 71.5179 29.9988C73.1858 29.9988 74.6798 29.6208 75.9998 28.8649C77.1037 28.2229 78.0817 27.4429 78.9337 26.5309C78.9757 27.0589 79.0357 27.5329 79.1077 27.9469C79.1797 28.3609 79.3057 28.8049 79.4917 29.2789H86.1335V28.3789C85.7435 28.1869 85.4435 27.9469 85.2455 27.6649ZM74.5178 17.9092C75.5318 17.9092 76.4677 18.2692 77.1997 18.8632L76.5997 19.4631C76.0238 19.0192 75.3038 18.7492 74.5238 18.7492C73.7438 18.7492 73.0178 19.0132 72.4479 19.4631L71.8479 18.8632C72.5679 18.2632 73.4978 17.9092 74.5178 17.9092ZM77.0557 22.1391C77.0557 23.543 75.9158 24.677 74.5178 24.677C73.1138 24.677 71.9799 23.537 71.9799 22.1391C71.9799 20.7351 73.1198 19.6011 74.5178 19.6011C75.9218 19.6011 77.0557 20.7351 77.0557 22.1391ZM71.2419 24.821C70.6419 24.089 70.2879 23.159 70.2879 22.1391C70.2879 21.1251 70.6479 20.1891 71.2419 19.4571L71.8419 20.0571C71.3979 20.6331 71.1279 21.3531 71.1279 22.1331C71.1279 22.913 71.3919 23.639 71.8419 24.209L71.2419 24.821ZM74.5178 26.3749C73.5038 26.3749 72.5679 26.015 71.8359 25.421L72.4359 24.821C73.0118 25.265 73.7318 25.535 74.5118 25.535C75.2918 25.535 76.0178 25.271 76.5877 24.821L77.1877 25.421C76.4677 26.015 75.5318 26.3749 74.5178 26.3749ZM77.7937 24.821L77.1937 24.221C77.6377 23.645 77.9077 22.925 77.9077 22.1451C77.9077 21.3651 77.6437 20.6391 77.1937 20.0691L77.7937 19.4691C78.3937 20.2011 78.7477 21.1311 78.7477 22.1511C78.7477 23.159 78.3937 24.089 77.7937 24.821Z" fill="#2DA14B"/>
<path d="M109.659 27.6649C109.461 27.3769 109.335 26.8369 109.293 26.039C109.263 24.983 109.251 24.083 109.251 23.339V12.6173C109.251 9.80343 108.255 7.88949 106.257 6.87552C104.259 5.86155 101.979 5.35156 99.4109 5.35156C95.463 5.35156 92.6791 6.37753 91.0591 8.43547C90.0392 9.74943 89.4632 11.4294 89.3372 13.4753H95.229C95.373 12.5753 95.661 11.8614 96.099 11.3334C96.705 10.6194 97.7429 10.2594 99.2069 10.2594C100.509 10.2594 101.499 10.4394 102.171 10.8054C102.843 11.1714 103.179 11.8314 103.179 12.7853C103.179 13.5713 102.741 14.1473 101.859 14.5193C101.367 14.7353 100.557 14.9153 99.4169 15.0533L97.3229 15.3113C94.947 15.6113 93.1471 16.1092 91.9231 16.8112C89.6912 18.0952 88.5752 20.1771 88.5752 23.051C88.5752 25.265 89.2712 26.9749 90.6571 28.1869C92.0431 29.3929 93.801 29.9988 95.931 29.9988C97.5989 29.9988 99.0929 29.6208 100.413 28.8649C101.517 28.2229 102.495 27.4429 103.347 26.5309C103.389 27.0589 103.449 27.5329 103.521 27.9469C103.593 28.3609 103.719 28.8049 103.905 29.2789H110.547V28.3789C110.157 28.1869 109.857 27.9469 109.659 27.6649ZM98.9309 17.9092C99.9449 17.9092 100.881 18.2692 101.613 18.8632L101.013 19.4631C100.437 19.0192 99.7169 18.7492 98.9369 18.7492C98.1569 18.7492 97.4309 19.0132 96.8609 19.4631L96.261 18.8632C96.9809 18.2632 97.9109 17.9092 98.9309 17.9092ZM101.469 22.1391C101.469 23.543 100.329 24.677 98.9309 24.677C97.5269 24.677 96.393 23.537 96.393 22.1391C96.393 20.7351 97.5329 19.6011 98.9309 19.6011C100.335 19.6011 101.469 20.7351 101.469 22.1391ZM95.655 24.821C95.055 24.089 94.701 23.159 94.701 22.1391C94.701 21.1251 95.061 20.1891 95.655 19.4571L96.255 20.0571C95.811 20.6331 95.541 21.3531 95.541 22.1331C95.541 22.913 95.805 23.639 96.255 24.209L95.655 24.821ZM98.9309 26.3749C97.9169 26.3749 96.9809 26.015 96.249 25.421L96.8489 24.821C97.4249 25.265 98.1449 25.535 98.9249 25.535C99.7049 25.535 100.431 25.271 101.001 24.821L101.601 25.421C100.881 26.015 99.9449 26.3749 98.9309 26.3749ZM102.207 24.821L101.607 24.221C102.051 23.645 102.321 22.925 102.321 22.1451C102.321 21.3651 102.057 20.6391 101.607 20.0691L102.207 19.4691C102.807 20.2011 103.161 21.1311 103.161 22.1511C103.161 23.159 102.807 24.089 102.207 24.821Z" fill="#2DA14B"/>
<path d="M128.427 16.4037C128.391 15.7137 128.235 15.1257 127.965 14.6337C127.689 14.1418 127.335 13.7518 126.897 13.4578C126.459 13.1638 125.979 12.9538 125.451 12.8278C124.929 12.7018 124.389 12.6358 123.837 12.6358C123.357 12.6358 122.883 12.6778 122.421 12.7618C121.959 12.8458 121.509 13.0078 121.077 13.2418C120.645 13.4758 120.297 13.8058 120.021 14.2377C119.745 14.6697 119.607 15.2157 119.607 15.8877C119.607 16.5957 119.811 17.1237 120.213 17.4717C120.615 17.8256 121.143 18.0776 121.797 18.2336L127.083 19.4456C128.373 19.7576 129.393 20.3096 130.155 21.1075C130.911 21.9055 131.289 23.0035 131.289 24.3954C131.289 25.4274 131.073 26.3154 130.647 27.0534C130.215 27.7913 129.645 28.3733 128.931 28.7933C128.217 29.2133 127.443 29.5193 126.609 29.7113C125.775 29.8973 124.917 29.9933 124.041 29.9933C123.231 29.9933 122.517 29.9393 121.899 29.8253C121.281 29.7113 120.759 29.5733 120.339 29.3993C119.919 29.2253 119.565 29.0453 119.283 28.8593C119.001 28.6673 118.719 28.4573 118.443 28.2113C117.705 27.5574 117.207 26.8554 116.949 26.1114C116.691 25.3614 116.565 24.4974 116.565 23.5195H118.911C118.911 24.3115 119.055 24.9894 119.349 25.5594C119.643 26.1294 120.039 26.5794 120.537 26.9154C121.035 27.2514 121.581 27.4914 122.175 27.6354C122.769 27.7794 123.381 27.8573 124.017 27.8573C124.551 27.8573 125.085 27.8153 125.631 27.7254C126.171 27.6414 126.687 27.4854 127.179 27.2634C127.671 27.0414 128.073 26.7174 128.391 26.2974C128.709 25.8774 128.871 25.3554 128.871 24.7374C128.871 24.2395 128.805 23.8255 128.679 23.5015C128.553 23.1775 128.337 22.8895 128.049 22.6495C127.755 22.4095 127.365 22.1995 126.873 22.0195C126.381 21.8395 125.733 21.6535 124.923 21.4675L121.131 20.5916C120.717 20.4896 120.303 20.3576 119.883 20.1896C119.463 20.0276 119.043 19.7816 118.635 19.4516C118.221 19.1276 117.879 18.6956 117.603 18.1616C117.327 17.6276 117.189 16.9857 117.189 16.2297C117.189 15.4917 117.315 14.7777 117.561 14.0878C117.813 13.3978 118.191 12.7858 118.707 12.2458C119.223 11.7058 119.889 11.2798 120.705 10.9678C121.521 10.6559 122.469 10.5059 123.555 10.5059C125.067 10.5059 126.309 10.7039 127.281 11.0998C128.253 11.4958 128.985 11.9938 129.471 12.5938C129.963 13.1938 130.293 13.8178 130.467 14.4477C130.641 15.0837 130.743 15.7377 130.779 16.4097H128.427V16.4037Z" fill="#424143"/>
<path d="M133.79 20.1478C134.048 19.3078 134.432 18.5398 134.948 17.8498C135.464 17.1598 136.124 16.6199 136.922 16.2239C137.72 15.8279 138.638 15.6299 139.67 15.6299C140.702 15.6299 141.62 15.8279 142.418 16.2239C143.216 16.6199 143.876 17.1598 144.392 17.8378C144.908 18.5158 145.292 19.2838 145.55 20.1358C145.808 20.9877 145.934 21.8577 145.934 22.7517C145.934 23.6456 145.808 24.5156 145.55 25.3556C145.292 26.1956 144.908 26.9635 144.392 27.6535C143.876 28.3435 143.216 28.8835 142.418 29.2795C141.62 29.6755 140.702 29.8735 139.67 29.8735C138.638 29.8735 137.72 29.6755 136.922 29.2795C136.124 28.8835 135.464 28.3435 134.948 27.6535C134.432 26.9635 134.048 26.2016 133.79 25.3556C133.532 24.5156 133.406 23.6456 133.406 22.7517C133.4 21.8577 133.532 20.9877 133.79 20.1478ZM135.932 24.4016C136.052 24.9836 136.256 25.5476 136.538 26.0756C136.82 26.6096 137.222 27.0475 137.738 27.3895C138.254 27.7315 138.896 27.9055 139.67 27.9055C140.444 27.9055 141.086 27.7315 141.602 27.3895C142.118 27.0475 142.52 26.6096 142.814 26.0756C143.108 25.5416 143.306 24.9836 143.42 24.4016C143.534 23.8196 143.588 23.2677 143.588 22.7517C143.588 22.2357 143.534 21.6837 143.42 21.1017C143.306 20.5197 143.108 19.9558 142.814 19.4278C142.52 18.8938 142.118 18.4558 141.602 18.1138C141.086 17.7718 140.444 17.5978 139.67 17.5978C138.896 17.5978 138.254 17.7718 137.738 18.1138C137.222 18.4558 136.82 18.8998 136.538 19.4278C136.256 19.9618 136.052 20.5197 135.932 21.1017C135.812 21.6837 135.752 22.2357 135.752 22.7517C135.746 23.2677 135.806 23.8196 135.932 24.4016Z" fill="#424143"/>
<path d="M150.836 29.5072H148.568V10.9917H150.836V29.5072Z" fill="#424143"/>
<path d="M163.04 29.5071V27.5452L162.986 27.4912C162.488 28.3192 161.912 28.9251 161.258 29.3091C160.604 29.6931 159.752 29.8911 158.702 29.8911C158.168 29.8911 157.646 29.8251 157.142 29.6871C156.632 29.5491 156.164 29.3151 155.738 28.9911C155.306 28.6672 154.964 28.2292 154.706 27.6892C154.448 27.1492 154.322 26.4892 154.322 25.7152V16.0195H156.59V24.9713C156.59 26.0212 156.824 26.7772 157.286 27.2392C157.748 27.7012 158.384 27.9352 159.194 27.9352C159.884 27.9352 160.466 27.8032 160.946 27.5332C161.426 27.2692 161.81 26.9092 162.092 26.4652C162.374 26.0212 162.584 25.5353 162.71 25.0193C162.836 24.5033 162.902 23.9813 162.902 23.4473V16.0195H165.17V29.5071H163.04Z" fill="#424143"/>
<path d="M171.368 17.9038V26.6755C171.368 27.1375 171.5 27.4315 171.77 27.5515C172.034 27.6715 172.358 27.7315 172.736 27.7315H173.533V29.5134C173.342 29.5314 173 29.5674 172.502 29.6154C172.142 29.6694 171.92 29.6934 171.83 29.6934C170.798 29.6934 170.084 29.4414 169.688 28.9315C169.292 28.4275 169.094 27.7135 169.094 26.8015V17.9038H167.264V16.0198H169.094V12.252H171.362V16.0198H173.527V17.9038H171.368Z" fill="#424143"/>
<path d="M175.808 13.5716V10.9917H178.076V13.5716H175.808ZM178.076 29.5072H175.808V16.0196H178.076V29.5072Z" fill="#424143"/>
<path d="M181.094 20.1478C181.352 19.3078 181.736 18.5398 182.252 17.8498C182.768 17.1598 183.428 16.6199 184.226 16.2239C185.024 15.8279 185.942 15.6299 186.974 15.6299C188.006 15.6299 188.924 15.8279 189.722 16.2239C190.52 16.6199 191.18 17.1598 191.696 17.8378C192.212 18.5158 192.596 19.2838 192.854 20.1358C193.112 20.9877 193.238 21.8577 193.238 22.7517C193.238 23.6456 193.112 24.5156 192.854 25.3556C192.596 26.1956 192.212 26.9635 191.696 27.6535C191.18 28.3435 190.52 28.8835 189.722 29.2795C188.924 29.6755 188.006 29.8735 186.974 29.8735C185.942 29.8735 185.024 29.6755 184.226 29.2795C183.428 28.8835 182.768 28.3435 182.252 27.6535C181.736 26.9635 181.346 26.2016 181.094 25.3556C180.836 24.5156 180.704 23.6456 180.704 22.7517C180.704 21.8577 180.836 20.9877 181.094 20.1478ZM183.236 24.4016C183.356 24.9836 183.56 25.5476 183.842 26.0756C184.124 26.6096 184.526 27.0475 185.042 27.3895C185.558 27.7315 186.2 27.9055 186.974 27.9055C187.748 27.9055 188.39 27.7315 188.906 27.3895C189.422 27.0475 189.824 26.6096 190.118 26.0756C190.412 25.5416 190.61 24.9836 190.724 24.4016C190.838 23.8196 190.892 23.2677 190.892 22.7517C190.892 22.2357 190.838 21.6837 190.724 21.1017C190.61 20.5197 190.412 19.9558 190.118 19.4278C189.824 18.8938 189.422 18.4558 188.906 18.1138C188.39 17.7718 187.748 17.5978 186.974 17.5978C186.2 17.5978 185.558 17.7718 185.042 18.1138C184.526 18.4558 184.124 18.8998 183.842 19.4278C183.56 19.9618 183.356 20.5197 183.236 21.1017C183.116 21.6837 183.056 22.2357 183.056 22.7517C183.056 23.2677 183.116 23.8196 183.236 24.4016Z" fill="#424143"/>
<path d="M206.809 29.5073H204.541V21.2036C204.541 19.9856 204.325 19.0916 203.893 18.5217C203.461 17.9517 202.717 17.6697 201.649 17.6697C201.289 17.6697 200.905 17.7357 200.503 17.8737C200.101 18.0117 199.711 18.2457 199.345 18.5817C198.973 18.9176 198.673 19.3796 198.445 19.9736C198.211 20.5676 198.097 21.2936 198.097 22.1515V29.5013H195.829V16.0197H197.971V17.9277H198.025C198.199 17.6877 198.391 17.4477 198.607 17.2077C198.823 16.9677 199.099 16.7277 199.435 16.4877C199.771 16.2477 200.161 16.0437 200.611 15.8817C201.055 15.7197 201.559 15.6357 202.105 15.6357C202.687 15.6357 203.251 15.7077 203.797 15.8397C204.337 15.9777 204.841 16.2237 205.309 16.5717C205.771 16.9257 206.143 17.4117 206.419 18.0297C206.695 18.6477 206.833 19.4156 206.833 20.3276V29.5073H206.809Z" fill="#424143"/>
<path d="M217.825 19.8596C217.807 19.5836 217.765 19.3256 217.699 19.0856C217.627 18.8456 217.489 18.6057 217.273 18.3777C217.057 18.1437 216.733 17.9577 216.295 17.8077C215.857 17.6637 215.299 17.5857 214.633 17.5857C214.411 17.5857 214.153 17.6097 213.859 17.6517C213.565 17.6937 213.271 17.7837 212.983 17.9217C212.689 18.0597 212.443 18.2577 212.251 18.5157C212.053 18.7737 211.957 19.0976 211.957 19.4936C211.957 20.0096 212.125 20.3816 212.461 20.6036C212.797 20.8256 213.445 21.0596 214.411 21.2996L216.679 21.8696C218.071 22.2115 219.055 22.6615 219.619 23.2135C220.189 23.7655 220.471 24.5035 220.471 25.4335C220.471 26.7894 219.973 27.8754 218.977 28.6854C217.981 29.4953 216.697 29.8973 215.131 29.8973C213.877 29.8973 212.857 29.7413 212.077 29.4353C211.297 29.1233 210.709 28.7274 210.325 28.2354C209.935 27.7434 209.677 27.2514 209.551 26.7534C209.425 26.2554 209.347 25.7334 209.329 25.1815H211.519C211.555 25.5415 211.609 25.8654 211.687 26.1474C211.765 26.4294 211.927 26.7174 212.179 26.9994C212.425 27.2814 212.791 27.5094 213.277 27.6834C213.757 27.8574 214.369 27.9414 215.107 27.9414C215.983 27.9414 216.721 27.7614 217.315 27.4014C217.909 27.0414 218.203 26.5074 218.203 25.7994C218.203 25.2835 218.011 24.8995 217.621 24.6415C217.237 24.3835 216.535 24.1255 215.521 23.8675L212.893 23.2195C211.897 22.9795 211.123 22.5955 210.583 22.0736C210.043 21.5516 209.773 20.8376 209.773 19.9436C209.773 19.2236 209.911 18.5877 210.187 18.0477C210.463 17.5077 210.841 17.0457 211.321 16.6677C212.251 15.9777 213.439 15.6357 214.879 15.6357C215.995 15.6357 216.907 15.8097 217.615 16.1517C218.317 16.4937 218.845 16.9077 219.187 17.3877C219.529 17.8677 219.757 18.3297 219.871 18.7677C219.985 19.2056 220.039 19.5716 220.039 19.8656H217.825V19.8596Z" fill="#424143"/>
</svg>
