<svg width="176" height="30" viewBox="0 0 176 30" fill="none" xmlns="http://www.w3.org/2000/svg">
<g clip-path="url(#clip0_2400_3057)">
<path d="M6.192 8.23779H0V29.9998H6.192V8.23779Z" fill="#FF9900"/>
<path d="M16.8482 21.7502C16.9802 22.8362 17.2562 23.6102 17.6882 24.0662C18.4502 24.8822 19.8542 25.2902 21.9122 25.2902C23.1182 25.2902 24.0782 25.1102 24.7863 24.7562C25.4942 24.4022 25.8542 23.8622 25.8542 23.1482C25.8542 22.4642 25.5662 21.9422 24.9962 21.5822C24.4262 21.2282 22.2902 20.6102 18.6062 19.7402C15.9482 19.0802 14.0822 18.2582 12.9962 17.2742C11.9102 16.3022 11.3643 14.9042 11.3643 13.0742C11.3643 10.9142 12.2103 9.06022 13.9082 7.51222C15.6002 5.95222 17.9942 5.17822 21.0722 5.17822C23.9942 5.17822 26.3762 5.76022 28.2122 6.92422C30.0542 8.08822 31.1102 10.0982 31.3802 12.9602H25.2722C25.1882 12.1742 24.9662 11.5502 24.6062 11.0942C23.9342 10.2662 22.7882 9.85222 21.1682 9.85222C19.8362 9.85222 18.8882 10.0622 18.3182 10.4762C17.7543 10.8902 17.4662 11.3762 17.4662 11.9342C17.4662 12.6362 17.7662 13.1402 18.3662 13.4582C18.9662 13.7882 21.0963 14.3522 24.7443 15.1502C27.1803 15.7202 29.0042 16.5842 30.2162 17.7422C31.4162 18.9122 32.0162 20.3762 32.0162 22.1342C32.0162 24.4502 31.1522 26.3402 29.4302 27.8042C27.7082 29.2682 25.0442 30.0002 21.4382 30.0002C17.7602 30.0002 15.0422 29.2262 13.2902 27.6722C11.5382 26.1242 10.6562 24.1442 10.6562 21.7442H16.8482V21.7502Z" fill="#FF9900"/>
<path d="M34.1221 10.866V6.516H37.3801V0H43.4221V6.516H47.2141V10.866H43.4221V23.214C43.4221 24.174 43.5421 24.768 43.7881 25.002C44.0281 25.236 44.7721 25.356 46.0201 25.356C46.2061 25.356 46.4041 25.35 46.6081 25.344C46.8121 25.338 47.0161 25.326 47.2201 25.314V29.88L44.3281 29.988C41.4421 30.09 39.4681 29.586 38.4121 28.488C37.7281 27.786 37.3861 26.706 37.3861 25.254V10.866H34.1221Z" fill="#FF9900"/>
<path d="M48.7441 10.866V6.516H52.0021V0H58.0441V6.516H61.8361V10.866H58.0441V23.214C58.0441 24.174 58.1641 24.768 58.4101 25.002C58.6501 25.236 59.3941 25.356 60.6421 25.356C60.8281 25.356 61.0261 25.35 61.2301 25.344C61.4341 25.338 61.6381 25.326 61.8421 25.314V29.88L58.9501 29.988C56.0641 30.09 54.0901 29.586 53.0341 28.488C52.3501 27.786 52.0081 26.706 52.0081 25.254V10.866H48.7441Z" fill="#FF9900"/>
<path d="M4.61365 1.14L5.05165 0.702C4.52365 0.264 3.83965 0 3.09565 0C2.35165 0 1.67365 0.264 1.13965 0.702L1.57765 1.14C1.99765 0.816 2.52565 0.618 3.09565 0.618C3.67165 0.618 4.19965 0.816 4.61365 1.14Z" fill="#FF9900"/>
<path d="M5.05176 4.61393L5.48976 5.05193C5.92776 4.51793 6.19176 3.83393 6.19176 3.08993C6.19176 2.34593 5.92776 1.66193 5.48976 1.12793L5.05176 1.57793C5.37576 1.99793 5.57376 2.52593 5.57376 3.09593C5.57376 3.67193 5.38176 4.19993 5.05176 4.61393Z" fill="#FF9900"/>
<path d="M1.14 1.57814L0.702 1.14014C0.264 1.67414 0 2.35214 0 3.09614C0 3.84014 0.264 4.52414 0.702 5.05814L1.14 4.61414C0.816 4.20014 0.618 3.67214 0.618 3.09614C0.618 2.52614 0.816 1.99814 1.14 1.57814Z" fill="#FF9900"/>
<path d="M1.57765 5.05176L1.13965 5.49576C1.67365 5.93376 2.35765 6.19776 3.10165 6.19776C3.84565 6.19776 4.52965 5.93376 5.06365 5.49576L4.61365 5.05176C4.19965 5.38176 3.67165 5.57376 3.09565 5.57376C2.51965 5.57376 1.99765 5.38176 1.57765 5.05176Z" fill="#FF9900"/>
<path d="M3.09633 4.95584C4.12358 4.95584 4.95633 4.12309 4.95633 3.09584C4.95633 2.06859 4.12358 1.23584 3.09633 1.23584C2.06908 1.23584 1.23633 2.06859 1.23633 3.09584C1.23633 4.12309 2.06908 4.95584 3.09633 4.95584Z" fill="#FF9900"/>
<path d="M85.2481 27.6661C85.0501 27.3781 84.9241 26.8381 84.8821 26.0401C84.8521 24.9841 84.8401 24.0841 84.8401 23.34V12.6181C84.8401 9.80405 83.8441 7.89005 81.8461 6.87605C79.8481 5.86205 77.5681 5.35205 75.0001 5.35205C71.0521 5.35205 68.2681 6.37805 66.6481 8.43605C65.6281 9.75005 65.0521 11.43 64.9261 13.476H70.8181C70.9621 12.576 71.2501 11.8621 71.6881 11.3341C72.2941 10.62 73.3321 10.2601 74.7961 10.2601C76.0981 10.2601 77.0881 10.4401 77.7601 10.8061C78.4321 11.1721 78.7681 11.832 78.7681 12.786C78.7681 13.5721 78.3301 14.1481 77.4481 14.5201C76.9561 14.7361 76.1461 14.916 75.0061 15.0541L72.9121 15.3121C70.5361 15.6121 68.7361 16.1101 67.5121 16.812C65.2801 18.0961 64.1641 20.178 64.1641 23.052C64.1641 25.266 64.8601 26.976 66.2461 28.188C67.6321 29.394 69.3901 30 71.5201 30C73.1881 30 74.6821 29.6221 76.0021 28.8661C77.1061 28.2241 78.0841 27.4441 78.9361 26.5321C78.9781 27.0601 79.0381 27.5341 79.1101 27.9481C79.1821 28.3621 79.3081 28.806 79.4941 29.28H86.1361V28.38C85.7461 28.188 85.4461 27.9481 85.2481 27.6661ZM74.5201 17.9101C75.5341 17.9101 76.4701 18.2701 77.2021 18.864L76.6021 19.464C76.0261 19.02 75.3061 18.75 74.5261 18.75C73.7461 18.75 73.0201 19.014 72.4501 19.464L71.8501 18.864C72.5701 18.2641 73.5001 17.9101 74.5201 17.9101ZM77.0581 22.1401C77.0581 23.5441 75.9181 24.678 74.5201 24.678C73.1161 24.678 71.9821 23.538 71.9821 22.1401C71.9821 20.7361 73.1221 19.602 74.5201 19.602C75.9241 19.602 77.0581 20.7361 77.0581 22.1401ZM71.2441 24.822C70.6441 24.09 70.2901 23.1601 70.2901 22.1401C70.2901 21.1261 70.6501 20.1901 71.2441 19.458L71.8441 20.0581C71.4001 20.6341 71.1301 21.354 71.1301 22.134C71.1301 22.914 71.3941 23.64 71.8441 24.21L71.2441 24.822ZM74.5201 26.3761C73.5061 26.3761 72.5701 26.016 71.8381 25.422L72.4381 24.822C73.0141 25.266 73.7341 25.536 74.5141 25.536C75.2941 25.536 76.0201 25.272 76.5901 24.822L77.1901 25.422C76.4701 26.016 75.5341 26.3761 74.5201 26.3761ZM77.7961 24.822L77.1961 24.222C77.6401 23.646 77.9101 22.9261 77.9101 22.146C77.9101 21.366 77.6461 20.64 77.1961 20.0701L77.7961 19.4701C78.3961 20.2021 78.7501 21.132 78.7501 22.152C78.7501 23.16 78.3961 24.09 77.7961 24.822Z" fill="#FF9900"/>
<path d="M109.662 27.6661C109.464 27.3781 109.338 26.8381 109.296 26.0401C109.266 24.9841 109.254 24.0841 109.254 23.34V12.6181C109.254 9.80405 108.258 7.89005 106.26 6.87605C104.262 5.86205 101.982 5.35205 99.4141 5.35205C95.4661 5.35205 92.6821 6.37805 91.0621 8.43605C90.0421 9.75005 89.4661 11.43 89.3401 13.476H95.2321C95.3761 12.576 95.6641 11.8621 96.1021 11.3341C96.7081 10.62 97.7461 10.2601 99.2101 10.2601C100.512 10.2601 101.502 10.4401 102.174 10.8061C102.846 11.1721 103.182 11.832 103.182 12.786C103.182 13.5721 102.744 14.1481 101.862 14.5201C101.37 14.7361 100.56 14.916 99.4201 15.0541L97.3261 15.3121C94.9501 15.6121 93.1501 16.1101 91.9261 16.812C89.6941 18.0961 88.5781 20.178 88.5781 23.052C88.5781 25.266 89.2741 26.976 90.6601 28.188C92.0461 29.394 93.8041 30 95.9341 30C97.6021 30 99.0961 29.6221 100.416 28.8661C101.52 28.2241 102.498 27.4441 103.35 26.5321C103.392 27.0601 103.452 27.5341 103.524 27.9481C103.596 28.3621 103.722 28.806 103.908 29.28H110.55V28.38C110.16 28.188 109.86 27.9481 109.662 27.6661ZM98.9341 17.9101C99.9481 17.9101 100.884 18.2701 101.616 18.864L101.016 19.464C100.44 19.02 99.7201 18.75 98.9401 18.75C98.1601 18.75 97.4341 19.014 96.8641 19.464L96.2641 18.864C96.9841 18.2641 97.9141 17.9101 98.9341 17.9101ZM101.472 22.1401C101.472 23.5441 100.332 24.678 98.9341 24.678C97.5301 24.678 96.3961 23.538 96.3961 22.1401C96.3961 20.7361 97.5361 19.602 98.9341 19.602C100.338 19.602 101.472 20.7361 101.472 22.1401ZM95.6581 24.822C95.0581 24.09 94.7041 23.1601 94.7041 22.1401C94.7041 21.1261 95.0641 20.1901 95.6581 19.458L96.2581 20.0581C95.8141 20.6341 95.5441 21.354 95.5441 22.134C95.5441 22.914 95.8081 23.64 96.2581 24.21L95.6581 24.822ZM98.9341 26.3761C97.9201 26.3761 96.9841 26.016 96.2521 25.422L96.8521 24.822C97.4281 25.266 98.1481 25.536 98.9281 25.536C99.7081 25.536 100.434 25.272 101.004 24.822L101.604 25.422C100.884 26.016 99.9481 26.3761 98.9341 26.3761ZM102.21 24.822L101.61 24.222C102.054 23.646 102.324 22.9261 102.324 22.146C102.324 21.366 102.06 20.64 101.61 20.0701L102.21 19.4701C102.81 20.2021 103.164 21.132 103.164 22.152C103.164 23.16 102.81 24.09 102.21 24.822Z" fill="#FF9900"/>
<path d="M128.43 16.4039C128.394 15.7139 128.238 15.1259 127.968 14.6339C127.692 14.1419 127.338 13.7519 126.9 13.4579C126.462 13.1639 125.982 12.9539 125.454 12.8279C124.932 12.7019 124.392 12.6359 123.84 12.6359C123.36 12.6359 122.886 12.6779 122.424 12.7619C121.962 12.8459 121.512 13.0079 121.08 13.2419C120.648 13.4759 120.3 13.8059 120.024 14.2379C119.748 14.6699 119.61 15.2159 119.61 15.8879C119.61 16.5959 119.814 17.1239 120.216 17.4719C120.618 17.8259 121.146 18.0779 121.8 18.2339L127.086 19.4459C128.376 19.7579 129.396 20.3099 130.158 21.1079C130.914 21.9059 131.292 23.0039 131.292 24.3959C131.292 25.4279 131.076 26.3159 130.65 27.0539C130.218 27.7919 129.648 28.3739 128.934 28.7939C128.22 29.2139 127.446 29.5199 126.612 29.7119C125.778 29.8979 124.92 29.9939 124.044 29.9939C123.234 29.9939 122.52 29.9399 121.902 29.8259C121.284 29.7119 120.762 29.5739 120.342 29.3999C119.922 29.2259 119.568 29.0459 119.286 28.8599C119.004 28.6679 118.722 28.4579 118.446 28.2119C117.708 27.5579 117.21 26.8559 116.952 26.1119C116.694 25.3619 116.568 24.4979 116.568 23.5199H118.914C118.914 24.3119 119.058 24.9899 119.352 25.5599C119.646 26.1299 120.042 26.5799 120.54 26.9159C121.038 27.2519 121.584 27.4919 122.178 27.6359C122.772 27.7799 123.384 27.8579 124.02 27.8579C124.554 27.8579 125.088 27.8159 125.634 27.7259C126.174 27.6419 126.69 27.4859 127.182 27.2639C127.674 27.0419 128.076 26.7179 128.394 26.2979C128.712 25.8779 128.874 25.3559 128.874 24.7379C128.874 24.2399 128.808 23.8259 128.682 23.5019C128.556 23.1779 128.34 22.8899 128.052 22.6499C127.758 22.4099 127.368 22.1999 126.876 22.0199C126.384 21.8399 125.736 21.6539 124.926 21.4679L121.134 20.5919C120.72 20.4899 120.306 20.3579 119.886 20.1899C119.466 20.0279 119.046 19.7819 118.638 19.4519C118.224 19.1279 117.882 18.6959 117.606 18.1619C117.33 17.6279 117.192 16.9859 117.192 16.2299C117.192 15.4919 117.318 14.7779 117.564 14.0879C117.816 13.3979 118.194 12.7859 118.71 12.2459C119.226 11.7059 119.892 11.2799 120.708 10.9679C121.524 10.6559 122.472 10.5059 123.558 10.5059C125.07 10.5059 126.312 10.7039 127.284 11.0999C128.256 11.4959 128.988 11.9939 129.474 12.5939C129.966 13.1939 130.296 13.8179 130.47 14.4479C130.644 15.0839 130.746 15.7379 130.782 16.4099H128.43V16.4039Z" fill="#424143"/>
<path d="M136.962 17.904V26.676C136.962 27.138 137.094 27.432 137.364 27.552C137.628 27.672 137.952 27.732 138.33 27.732H139.128V29.514C138.936 29.532 138.594 29.568 138.096 29.616C137.736 29.67 137.514 29.694 137.424 29.694C136.392 29.694 135.678 29.442 135.282 28.932C134.886 28.428 134.688 27.714 134.688 26.802V17.904H132.858V16.02H134.688V12.252H136.956V16.02H139.122V17.904H136.962Z" fill="#424143"/>
<path d="M140.964 20.1479C141.222 19.3079 141.606 18.5399 142.122 17.8499C142.638 17.1599 143.298 16.6199 144.096 16.2239C144.894 15.8279 145.812 15.6299 146.844 15.6299C147.876 15.6299 148.794 15.8279 149.592 16.2239C150.39 16.6199 151.05 17.1599 151.566 17.8379C152.082 18.5159 152.466 19.2839 152.724 20.1359C152.982 20.9879 153.108 21.8579 153.108 22.7519C153.108 23.6459 152.982 24.5159 152.724 25.3559C152.466 26.1959 152.082 26.9639 151.566 27.6539C151.05 28.3439 150.39 28.8839 149.592 29.2799C148.794 29.6759 147.876 29.8739 146.844 29.8739C145.812 29.8739 144.894 29.6759 144.096 29.2799C143.298 28.8839 142.638 28.3439 142.122 27.6539C141.606 26.9639 141.216 26.2019 140.964 25.3559C140.706 24.5159 140.574 23.6459 140.574 22.7519C140.574 21.8579 140.706 20.9879 140.964 20.1479ZM143.106 24.4019C143.226 24.9839 143.43 25.5479 143.712 26.0759C143.994 26.6099 144.396 27.0479 144.912 27.3899C145.428 27.7319 146.07 27.9059 146.844 27.9059C147.618 27.9059 148.26 27.7319 148.776 27.3899C149.292 27.0479 149.694 26.6099 149.988 26.0759C150.282 25.5419 150.48 24.9839 150.594 24.4019C150.708 23.8199 150.762 23.2679 150.762 22.7519C150.762 22.2359 150.708 21.6839 150.594 21.1019C150.48 20.5199 150.282 19.9559 149.988 19.4279C149.694 18.8939 149.292 18.4559 148.776 18.1139C148.26 17.7719 147.618 17.5979 146.844 17.5979C146.07 17.5979 145.428 17.7719 144.912 18.1139C144.396 18.4559 143.994 18.8999 143.712 19.4279C143.43 19.9619 143.226 20.5199 143.106 21.1019C142.986 21.6839 142.926 22.2359 142.926 22.7519C142.926 23.2679 142.986 23.8199 143.106 24.4019Z" fill="#424143"/>
<path d="M158.268 29.5079H156V16.0199H158.142V18.2639H158.196C158.676 17.4239 159.228 16.7699 159.846 16.3139C160.464 15.8579 161.178 15.6299 161.988 15.6299C162.21 15.6299 162.408 15.6539 162.582 15.7079V18.0539H161.73C160.698 18.0539 159.864 18.4019 159.228 19.0979C158.592 19.7939 158.274 20.6519 158.274 21.6659V29.5079H158.268Z" fill="#424143"/>
<path d="M175.735 25.278C175.681 25.758 175.483 26.31 175.141 26.928C174.937 27.324 174.679 27.696 174.379 28.05C174.079 28.404 173.731 28.71 173.335 28.968C172.903 29.244 172.429 29.466 171.901 29.64C171.379 29.814 170.635 29.898 169.669 29.898C167.815 29.898 166.339 29.268 165.259 28.014C164.173 26.76 163.633 25.134 163.633 23.136C163.633 22.068 163.759 21.084 164.017 20.184C164.275 19.284 164.677 18.486 165.217 17.796C165.757 17.106 166.435 16.578 167.257 16.194C168.073 15.816 169.021 15.624 170.107 15.624C172.015 15.624 173.461 16.32 174.439 17.712C175.417 19.104 175.909 21.03 175.909 23.49H166.057C166.057 24.918 166.387 26.016 167.047 26.778C167.707 27.546 168.685 27.924 169.975 27.924C170.491 27.924 170.959 27.84 171.379 27.666C171.799 27.492 172.177 27.264 172.501 26.97C173.083 26.418 173.407 25.854 173.455 25.266H175.735V25.278ZM173.569 21.696C173.533 21.126 173.443 20.61 173.299 20.136C173.155 19.662 172.939 19.242 172.651 18.87C172.369 18.498 171.991 18.21 171.517 17.994C171.043 17.778 170.473 17.67 169.801 17.67C169.303 17.67 168.823 17.778 168.355 17.994C167.893 18.21 167.485 18.504 167.143 18.882C166.801 19.26 166.531 19.692 166.345 20.184C166.159 20.676 166.063 21.18 166.063 21.696H173.569Z" fill="#424143"/>
</g>
<defs>
<clipPath id="clip0_2400_3057">
<rect width="175.914" height="30" fill="white"/>
</clipPath>
</defs>
</svg>
